<?xml version="1.0" encoding="utf-8"?>
<!-- Generator: Adobe Illustrator 18.0.0, SVG Export Plug-In . SVG Version: 6.00 Build 0)  -->
<!DOCTYPE svg PUBLIC "-//W3C//DTD SVG 1.1//EN" "http://www.w3.org/Graphics/SVG/1.1/DTD/svg11.dtd">
<svg version="1.1" xmlns="http://www.w3.org/2000/svg" xmlns:xlink="http://www.w3.org/1999/xlink" x="0px" y="0px"
	 viewBox="0 0 125 125" enable-background="new 0 0 125 125" xml:space="preserve">
<g id="_x2014_ÎÓÈ_x5F_1" display="none">
	<rect x="-428.5" y="-162.7" display="inline" fill="#22313F" width="570" height="450"/>
</g>
<g id="_x2014_ÎÓÈ_x5F_2" display="none">
	<g display="inline">
		<path fill="#10AAC3" d="M-286-116.2v83.3c0,11.5-9.3,20.8-20.8,20.8h-83.3c-11.5,0-20.8-9.3-20.8-20.8v-83.3
			c0-11.5,9.3-20.8,20.8-20.8h83.3C-295.3-137-286-127.7-286-116.2z"/>
		<path opacity="0.3" d="M-355.1-111.8c0.5-0.8,1.9-1.4,3.7-1.4c2.1,0,3.9,0.9,3.9,1.9v4l-1.9,1.8h3.8v4l-1.9,1.8h7.7
			c1.1,0,1.9,0.9,1.9,1.9v5.2l2.2-2.1c0.2-0.4,0.4-0.6,0.7-0.6c0.5,0,1,0.8,1,1.8v10.8c0,0.9-0.4,1.6-0.8,1.7l-8,8.1v8.1l-1.9,1.8
			h8.1l3-3c0.3-0.5,0.9-0.9,1.6-0.9h5.8c1.1,0,1.9,0.9,1.9,1.9v13.6c0,0.7-0.4,1.2-0.9,1.6l-9.9,10h5v3.9L-353.8-12h-36.4
			c-11.5,0-20.8-9.3-20.8-20.8v-23.1L-355.1-111.8z"/>
		<path fill="#EEEEEE" d="M-356.1-88.6c0.8-0.8,0.8-2,0-2.7c-0.8-0.8-2-0.8-2.7,0c-0.8,0.8-0.8,2,0,2.7
			C-358.1-87.9-356.8-87.9-356.1-88.6z M-363-80.3h23.2c1.1,0,1.9-0.9,1.9-1.9v-4.8h1.9v4.4c0,1,0.4,1.8,1,1.8c0.5,0,1-0.8,1-1.8
			v-10.8c0-1-0.4-1.8-1-1.8c-0.5,0-1,0.8-1,1.8v4.4h-1.9v-8.7c0-1.1-0.9-1.9-1.9-1.9H-363c-1.1,0-1.9,0.9-1.9,1.9v15.5
			C-364.9-81.2-364.1-80.3-363-80.3z M-348.6-92.7c1.3-1.3,3.1-1.4,4.6-0.6l2.2-0.7l-0.7,2.2c0.8,1.5,0.6,3.4-0.6,4.6
			c-1.5,1.5-4,1.5-5.5,0C-350.1-88.8-350.1-91.2-348.6-92.7z M-360.2-92.7c1.3-1.3,3.1-1.4,4.6-0.6l2.2-0.7l-0.7,2.2
			c0.8,1.5,0.6,3.4-0.6,4.6c-1.5,1.5-4,1.5-5.5,0C-361.7-88.8-361.7-91.2-360.2-92.7z M-344.5-88.6c0.8-0.8,0.8-2,0-2.7
			c-0.8-0.8-2-0.8-2.7,0c-0.8,0.8-0.8,2,0,2.7C-346.4-87.9-345.2-87.9-344.5-88.6z M-345.6-47.4l7.8-7.8H-365l7.8,7.8H-345.6z
			 M-347.5-111.3c0-1.1-1.7-1.9-3.9-1.9c-2.1,0-3.9,0.9-3.9,1.9v4h7.7V-111.3z M-357.2-64.7v-13.7h-2.8v13.7H-357.2z M-342.8-64.7
			v-13.7h-2.8v13.7H-342.8z M-345.6-105.5h-11.6v4h11.6V-105.5z M-345.6-45.6h-11.6v5.9h-15.5v3.9h42.6v-3.9h-15.5V-45.6z
			 M-347.5-78.5h-7.7v4h7.7V-78.5z M-326.2-66.8h-5.8c-1.1,0-1.9,0.9-1.9,1.9v13.6c0,1.1,0.9,1.9,1.9,1.9h5.8c1.1,0,1.9-0.9,1.9-1.9
			v-13.6C-324.3-65.9-325.2-66.8-326.2-66.8z M-329.1-53.2c-1.1,0-1.9-0.9-1.9-1.9c0-1.1,0.9-1.9,1.9-1.9c1.1,0,1.9,0.9,1.9,1.9
			C-327.2-54.1-328.1-53.2-329.1-53.2z M-329.1-59c-1.1,0-1.9-0.9-1.9-1.9c0-1.1,0.9-1.9,1.9-1.9c1.1,0,1.9,0.9,1.9,1.9
			C-327.2-59.9-328.1-59-329.1-59z M-351.4-68.7l1.9-1.9v-2h-3.9v2L-351.4-68.7z M-335.8-62.9h-34.9v5.8h34.9V-62.9z"/>
	</g>
</g>
<g id="_x2014_ÎÓÈ_x5F_3" display="none">
	<g display="inline">
		<path fill="#F39C12" d="M-149-116.2v83.3c0,11.5-9.3,20.8-20.8,20.8h-83.3c-11.5,0-20.8-9.3-20.8-20.8v-83.3
			c0-11.5,9.3-20.8,20.8-20.8h83.3C-158.3-137-149-127.7-149-116.2z"/>
		<path opacity="0.3" d="M-226-110.3c1.8-2.2,6.6-3.2,14.5-3.2c10.2,0,15.3,1.8,15.3,5.3v29.1l-1.9,1.8h13.8v4.2l-6.3,6.2v29.7
			c0,0.6-0.3,1.1-0.8,1.4L-215.2-12h-38c-11.5,0-20.8-9.3-20.8-20.8v-29.5L-226-110.3z"/>
		<path fill="#EEEEEE" d="M-224.1-108.2c0-1.4,5.6-2.6,12.6-2.6c6.9,0,12.6,1.2,12.6,2.6v29.1h2.8v-29.1c0-3.5-5.2-5.3-15.3-5.3
			c-10.2,0-15.3,1.8-15.3,5.3v29.1h2.8V-108.2z M-238.7-77.3v4.2h54.4v-4.2H-238.7z M-205.2-93.8h-3.1c0,1.7-1.4,3.1-3.1,3.1
			c-1.7,0-3.1-1.4-3.1-3.1h-3.1c0,3.5,2.8,6.3,6.3,6.3C-208-87.5-205.2-90.3-205.2-93.8z M-211.5-104c-4.6,0-8.4,3.8-8.4,8.4h16.7
			C-203.1-100.3-206.9-104-211.5-104z M-219.9-79.2h16.7v-4.2h-16.7V-79.2z M-221.4-59.1c-0.5-0.5-0.7-1.3-0.5-2l-1.6-1.6
			c-0.9,1.6-0.7,3.7,0.6,5.1c1.4,1.4,3.5,1.6,5.1,0.6l-1.6-1.6C-220-58.4-220.8-58.5-221.4-59.1z M-192.7-71h-37.7
			c-1.2,0-2.1,0.8-2.1,1.8v32c0,1,0.9,1.8,2.1,1.8h37.7c1.1,0,2.1-0.8,2.1-1.8v-32C-190.6-70.2-191.5-71-192.7-71z M-222-45.9
			c-1.2,0-2.1-0.9-2.1-2.1c0-1.2,0.9-2.1,2.1-2.1c1.2,0,2.1,0.9,2.1,2.1C-219.9-46.8-220.8-45.9-222-45.9z M-215.7-45.9
			c-1.2,0-2.1-0.9-2.1-2.1c0-1.2,0.9-2.1,2.1-2.1c1.2,0,2.1,0.9,2.1,2.1C-213.6-46.8-214.5-45.9-215.7-45.9z M-215.4-56.1
			c-2.4,2.5-6.4,2.5-8.9,0c-2.5-2.5-2.5-6.4,0-8.9c2.5-2.5,6.4-2.5,8.9,0C-213-62.5-213-58.6-215.4-56.1z M-195.8-39.6h-12.6
			c-0.6,0-1-0.5-1-1c0-0.6,0.5-1,1-1h12.6c0.6,0,1,0.5,1,1C-194.8-40.1-195.2-39.6-195.8-39.6z M-195.8-43.8h-12.6c-0.6,0-1-0.5-1-1
			c0-0.6,0.5-1.1,1-1.1h12.6c0.6,0,1,0.5,1,1.1C-194.8-44.3-195.2-43.8-195.8-43.8z M-195.8-48h-12.6c-0.6,0-1-0.5-1-1.1
			c0-0.6,0.5-1,1-1h12.6c0.6,0,1,0.5,1,1C-194.8-48.5-195.2-48-195.8-48z M-196.8-62.7c-0.2,0-0.4,0-0.5-0.1l-2.1,2.1
			c0.4,0.6,0.6,1.3,0.6,2.1c0,2.3-1.9,4.2-4.2,4.2c-2.3,0-4.2-1.9-4.2-4.2c0-2.3,1.9-4.2,4.2-4.2c0.8,0,1.5,0.2,2.1,0.6l2.1-2.2
			c0-0.2-0.1-0.3-0.1-0.5c0-1.2,0.9-2.1,2.1-2.1c1.2,0,2.1,0.9,2.1,2.1C-194.8-63.6-195.7-62.7-196.8-62.7z M-222-64.2l1.6,1.6
			c0.7-0.2,1.5,0,2,0.5c0.5,0.5,0.7,1.3,0.5,2l1.6,1.6c0.9-1.6,0.7-3.7-0.6-5.1C-218.3-64.9-220.4-65.1-222-64.2z"/>
	</g>
</g>
<g id="_x2014_ÎÓÈ_x5F_4" display="none">
	<g display="inline">
		<path fill="#2FCC58" d="M-12-116.2v83.3C-12-21.3-21.3-12-32.8-12h-83.3c-11.5,0-20.8-9.3-20.8-20.8v-83.3
			c0-11.5,9.3-20.8,20.8-20.8h83.3C-21.3-137-12-127.7-12-116.2z"/>
		<path opacity="0.3" d="M-93.5-104.6c0.3-0.5,0.9-0.9,1.6-0.9h11.2l6.4-6.4c0.5-0.8,1.9-1.4,3.7-1.4c2.1,0,3.9,0.9,3.9,1.9v4
			l-1.9,1.8h1.9c1.1,0,1.9,0.9,1.9,1.9v1.9c0,0.7-0.4,1.3-0.9,1.6l-4.1,4.2h24.4v7.7l-3.9,3.8v13.7l-1.9,1.8h5.3
			c1.3,0,2.4,0.9,2.4,1.9v25.2c0,0,0,0.1,0,0.1l-1.8,1.8h3.8v3.9L-65.3-12h-50.9c-11.5,0-20.8-9.3-20.8-20.8v-28.3L-93.5-104.6z"/>
		<path fill="#EEEEEE" d="M-91.9-99.7h25.2c1.1,0,1.9-0.9,1.9-1.9v-1.9c0-1.1-0.9-1.9-1.9-1.9h-25.2c-1.1,0-1.9,0.9-1.9,1.9v1.9
			C-93.9-100.5-93-99.7-91.9-99.7z M-66.8-111.3c0-1.1-1.7-1.9-3.9-1.9c-2.1,0-3.9,0.9-3.9,1.9v4h7.7V-111.3z M-80.3-97.8h-11.6
			v13.6h11.6V-97.8z M-86.1-70.6l1.9-1.9v-2H-88v2L-86.1-70.6z M-82.2-82.3H-90v5.9h7.7V-82.3z M-98.7-85c0.5,0,1-0.8,1-1.7V-91h1.9
			v2.9h2v-7.7h-2v2.9h-1.9v-4.2c0-1-0.4-1.7-1-1.7c-0.5,0-1,0.8-1,1.7v10.4C-99.7-85.8-99.2-85-98.7-85z M-78.5-88h33v-7.7h-33V-88z
			 M-57.1-86.2v15.7h7.7v-15.7H-57.1z M-100.6-53.2c0.5,0,1-0.4,1-1v-1.9h1.9v2.9h33V-61h-33v2.9h-1.9V-60c0-0.5-0.4-1-1-1
			c-0.5,0-1,0.4-1,1v5.8C-101.6-53.6-101.2-53.2-100.6-53.2z M-64.7-51.4h-28.5l28.5,6.9V-51.4z M-107.4-39.7v3.9h65.8v-3.9H-107.4z
			 M-54.6-60.2c-0.8,0.8-0.8,2,0,2.7c0.8,0.8,2,0.8,2.7,0c0.8-0.8,0.8-2,0-2.7C-52.6-60.9-53.8-60.9-54.6-60.2z M-60.5-68.7
			c-1.3,0-2.4,0.9-2.4,1.9v25.2c0,0,0,0.1,0,0.1h19.3c0,0,0-0.1,0-0.1v-25.2c0-1.1-1.1-1.9-2.4-1.9H-60.5z M-56.1-47.4
			c-1.1,0-1.9-0.9-1.9-1.9c0-1.1,0.9-1.9,1.9-1.9c1.1,0,1.9,0.9,1.9,1.9C-54.2-48.3-55-47.4-56.1-47.4z M-55.9-56
			c-1.5-1.5-1.5-4,0-5.5c1.3-1.3,3.1-1.5,4.6-0.6l2.2-0.7l-0.7,2.2c0.8,1.5,0.6,3.4-0.6,4.6C-52-54.5-54.4-54.5-55.9-56z
			 M-50.3-47.4c-1.1,0-1.9-0.9-1.9-1.9c0-1.1,0.9-1.9,1.9-1.9c1.1,0,1.9,0.9,1.9,1.9C-48.4-48.3-49.2-47.4-50.3-47.4z M-93.9-62.8
			h15.5v-3.9h-15.5V-62.8z"/>
	</g>
</g>
<g id="_x2014_ÎÓÈ_x5F_5" display="none">
	<g display="inline">
		<path fill="#EF4836" d="M125-116.2v83.3c0,11.5-9.3,20.8-20.8,20.8H20.8C9.3-12,0-21.3,0-32.8v-83.3C0-127.7,9.3-137,20.8-137
			h83.3C115.7-137,125-127.7,125-116.2z"/>
		<path opacity="0.3" d="M35.6-106c0.5-0.8,1.9-1.4,3.7-1.4c2.1,0,3.9,0.9,3.9,1.9v7.8l-1.9,1.8H44c1.3,0,2.4,1.1,2.4,2.4v2.7
			l21.2-21.1c0.5-0.8,1.9-1.4,3.7-1.4c2.1,0,3.9,0.9,3.9,1.9v4l-1.9,1.8H77v7.8l-1.8,1.8H79c1.1,0,1.9,0.9,1.9,1.9v3.8l1.8-1.8h8.8
			v7.7L72-64.7h3.1v3.9L73.2-59h11.5v1.6l2-1.9c0.1-0.4,0.5-0.6,0.9-0.6c0.5,0,1,0.4,1,1v5.8c0,0.4-0.3,0.8-0.6,0.9L75.3-39.7h20.1
			v3.9L71.8-12H20.8C9.3-12,0-21.3,0-32.8v-37.6L35.6-106z"/>
		<path fill="#EEEEEE" d="M65.4-88c0.7,0,1.3,0.4,1.7,1h2.1c-0.4-1.7-1.9-2.9-3.7-2.9c-1.8,0-3.3,1.2-3.7,2.9h2.1
			C64.1-87.7,64.7-88,65.4-88z M57.7-76.4H79c1.1,0,1.9-0.9,1.9-1.9v-15.5c0-1.1-0.9-1.9-1.9-1.9H57.7c-1.1,0-1.9,0.9-1.9,1.9v15.5
			C55.7-77.3,56.6-76.4,57.7-76.4z M75.1-91.9c1.1,0,1.9,0.9,1.9,1.9c0,1.1-0.9,1.9-1.9,1.9c-1.1,0-1.9-0.9-1.9-1.9
			C73.1-91.1,74-91.9,75.1-91.9z M65.4-91.9c3.2,0,5.8,2.6,5.8,5.8c0,3.2-2.6,5.8-5.8,5.8c-3.2,0-5.8-2.6-5.8-5.8
			C59.6-89.3,62.2-91.9,65.4-91.9z M65.4-82.2c1.8,0,3.3-1.2,3.7-2.9h-2.1c-0.3,0.6-1,1-1.7,1c-0.7,0-1.3-0.4-1.7-1h-2.1
			C62.1-83.5,63.6-82.2,65.4-82.2z M75.1-111.3c0-1.1-1.7-1.9-3.9-1.9c-2.1,0-3.9,0.9-3.9,1.9v4h7.7V-111.3z M34.5-74.5H44
			c1.3,0,2.4-1.1,2.4-2.4v-16.6c0-1.3-1.1-2.4-2.4-2.4h-9.5c-1.3,0-2.4,1.1-2.4,2.4v16.6C32.2-75.6,33.2-74.5,34.5-74.5z M39.3-90
			c1.1,0,1.9,0.9,1.9,1.9c0,1.1-0.9,1.9-1.9,1.9c-1.1,0-1.9-0.9-1.9-1.9C37.3-89.1,38.2-90,39.3-90z M39.3-84.2
			c1.1,0,1.9,0.9,1.9,1.9c0,1.1-0.9,1.9-1.9,1.9c-1.1,0-1.9-0.9-1.9-1.9C37.3-83.3,38.2-84.2,39.3-84.2z M43.1-72.7h-7.7v9.9h7.7
			V-72.7z M43.1-105.5c0-1.1-1.7-1.9-3.9-1.9c-2.1,0-3.9,0.9-3.9,1.9v7.8h7.7V-105.5z M69.3-65.8l1.9-1.9v-2h-3.9v2L69.3-65.8z
			 M91.5-91.9h-8.8v8.7l8.8-1V-91.9z M77-105.5H61.5v7.8H77V-105.5z M46.9-43.9l35.9-4.7v-2.8H46.9V-43.9z M53.9-91.9h-5.7v12.6
			l5.7-0.6V-91.9z M46.9-53.2h37.8v-1.9h1.9v1.9c0,0.5,0.4,1,1,1c0.5,0,1-0.4,1-1V-59c0-0.5-0.4-1-1-1c-0.5,0-1,0.4-1,1v1.9h-1.9
			V-59H46.8c0.1,0.4,0.1,0.7,0.1,1.1V-53.2z M73.1-74.6h-7.7v3h7.7V-74.6z M33.5-57.9v15.2c0,0.4,0.1,0.8,0.2,1.2h11.3
			c0.1-0.4,0.2-0.8,0.2-1.2v-15.2c0-1.7-0.9-3-1.9-3h-7.7C34.3-61,33.5-59.6,33.5-57.9z M29.6-39.7v3.9h65.8v-3.9H29.6z M63.5-60.9
			h11.6v-3.9H63.5V-60.9z"/>
	</g>
</g>
<g id="_x2014_ÎÓÈ_x5F_6" display="none">
	<g display="inline">
		<path fill="#2FCC58" d="M-286,20.8v83.3c0,11.5-9.3,20.8-20.8,20.8h-83.3c-11.5,0-20.8-9.3-20.8-20.8V20.8
			C-411,9.3-401.7,0-390.2,0h83.3C-295.3,0-286,9.3-286,20.8z"/>
		<path opacity="0.3" d="M-339.3,125h-50.9c-11.5,0-20.8-9.3-20.8-20.8V68.9l37.3-37.4h18.9l6.4-6.4c0.5-0.8,1.9-1.4,3.7-1.4
			c2.1,0,3.9,0.9,3.9,1.9v4l-1.8,1.8h1.9v1.9l1.8-1.9h13.6l9.7,38.7v5.9l-1.9,1.8h1.9v23.2L-339.3,125z"/>
		<path fill="#EEEEEE" d="M-362,60.6l1.9-1.9v-2h-3.9v2L-362,60.6z M-340.8,25.7c0-1.1-1.7-1.9-3.9-1.9c-2.1,0-3.9,0.9-3.9,1.9v4
			h7.7V25.7z M-358.2,48.9h-7.7v5.9h7.7V48.9z M-325.3,31.5h-13.5v44.6h23.2v-5.9L-325.3,31.5z M-346.6,76v-5.8h-31v1.9h-1.9v-1.9
			c0-0.5-0.4-1-1-1c-0.5,0-1,0.4-1,1V76c0,0.5,0.4,1,1,1c0.5,0,1-0.4,1-1v-1.9h1.9V76H-346.6z M-367.9,68.4h13.5v-3.9h-13.5V68.4z
			 M-363.4,40.6c-0.5-0.5-0.7-1.2-0.5-1.9l-1.5-1.5c-0.9,1.5-0.7,3.4,0.6,4.7c1.3,1.3,3.2,1.5,4.7,0.6l-1.5-1.5
			C-362.2,41.3-362.9,41.1-363.4,40.6z M-364.8,36.5C-364.8,36.5-364.8,36.5-364.8,36.5L-364.8,36.5
			C-364.8,36.5-364.8,36.5-364.8,36.5z M-364,35.9l1.5,1.5c0.6-0.2,1.4,0,1.9,0.5c0.5,0.5,0.7,1.2,0.5,1.9l1.5,1.5
			c0.9-1.5,0.7-3.4-0.6-4.7C-360.6,35.3-362.5,35.1-364,35.9z M-340.7,31.5h-33V47h33V31.5z M-357.9,43.4c-2.3,2.3-5.9,2.3-8.2,0
			c-2.3-2.3-2.3-5.9,0-8.2c2.3-2.3,5.9-2.3,8.2,0C-355.7,37.4-355.7,41.1-357.9,43.4z M-373.7,87.7l15.5,13.5h42.6V78h-58.1V87.7z
			 M-334,83.8h11.6c0.5,0,1,0.4,1,1c0,0.5-0.4,1-1,1H-334c-0.5,0-1-0.4-1-1C-335,84.2-334.5,83.8-334,83.8z M-334,87.7h11.6
			c0.5,0,1,0.4,1,1c0,0.5-0.4,1-1,1H-334c-0.5,0-1-0.4-1-1C-335,88.1-334.5,87.7-334,87.7z M-334,91.5h11.6c0.5,0,1,0.4,1,1
			c0,0.5-0.4,1-1,1H-334c-0.5,0-1-0.4-1-1C-335,92-334.5,91.5-334,91.5z M-360.1,81.9c1.1,0,1.9,0.9,1.9,1.9c0,1.1-0.9,1.9-1.9,1.9
			c-1.1,0-1.9-0.9-1.9-1.9C-362,82.7-361.2,81.9-360.1,81.9z M-365.9,81.9c1.1,0,1.9,0.9,1.9,1.9c0,1.1-0.9,1.9-1.9,1.9
			c-1.1,0-1.9-0.9-1.9-1.9C-367.9,82.7-367,81.9-365.9,81.9z"/>
	</g>
</g>
<g id="_x2014_ÎÓÈ_x5F_7" display="none">
	<g display="inline">
		<path fill="#EF4836" d="M-149,20.8v83.3c0,11.5-9.3,20.8-20.8,20.8h-83.3c-11.5,0-20.8-9.3-20.8-20.8V20.8
			C-274,9.3-264.7,0-253.2,0h83.3C-158.3,0-149,9.3-149,20.8z"/>
		<path opacity="0.3" d="M-244.3,29.3h56.7l5.7,6.7v2.2l-1.8,1.7v1.8l-1.9,1.8h1.9c1,0,1.8,0.8,1.8,1.8v7.2c0,0.6-0.4,1.2-0.9,1.5
			l-6.3,6.5v0.5l2.4-2.3c0.3-0.5,0.8-0.8,1.3-0.8h12.5c1,0,1.8,1.2,1.8,2.6V84c0,1.1-0.5,2-1.1,2.4l-2,2h1.3v12.5l-24.1,24.1h-56
			c-11.5,0-20.8-9.3-20.8-20.8V59.1L-244.3,29.3z"/>
		<path fill="#EEEEEE" d="M-237.4,79.4h42.9v-3.2h-42.9V79.4z M-182,52.6v-7.2c0-1-0.8-1.8-1.8-1.8h-7.2c-1,0-1.8,0.8-1.8,1.8v7.2
			c0,1,0.8,1.8,1.8,1.8h7.2C-182.8,54.4-182,53.6-182,52.6z M-248.2,54.4h7.2c1,0,1.8-0.8,1.8-1.8v-7.2c0-1-0.8-1.8-1.8-1.8h-7.2
			c-1,0-1.8,0.8-1.8,1.8v7.2C-250,53.6-249.2,54.4-248.2,54.4z M-217.8,58v5.3h3.6V58H-217.8z M-223.1,68.7v3.6h14.3v-3.6l-3.6-3.6
			h-7.2L-223.1,68.7z M-248.2,41.8h7.2l0,0v-3.5h50.1v3.5h7.2v-3.5h1.8V36l-5.7-6.7h-56.7L-250,36v2.2h1.8V41.8z M-190.9,79.4h1.7
			V60.5c0-2.2,1.2-3.9,2.9-4.3h-4.6V79.4z M-248.2,56.2v23.2h7.2V56.2l0,0H-248.2z M-194.6,45.4h-42.8v7.2h16.1v3.6h10.7v-3.6h16.1
			V45.4z M-179.2,70.5c-1,0-1.8,0.8-1.8,1.8c0,1,0.8,1.8,1.8,1.8c1,0,1.8-0.8,1.8-1.8C-177.4,71.3-178.2,70.5-179.2,70.5z
			 M-173,57.9h-12.5c-1,0-1.8,1.2-1.8,2.6V84c0,1.4,0.8,2.6,1.8,2.6h12.5c1,0,1.8-1.2,1.8-2.6V60.5C-171.2,59.1-172,57.9-173,57.9z
			 M-182,83c-1,0-1.8-0.8-1.8-1.8c0-1,0.8-1.8,1.8-1.8c1,0,1.8,0.8,1.8,1.8C-180.2,82.2-181,83-182,83z M-182.8,72.3
			c0-1.6,1.1-3,2.6-3.4l1-1.9l1,1.9c1.5,0.4,2.6,1.8,2.6,3.4c0,2-1.6,3.6-3.6,3.6C-181.2,75.8-182.8,74.2-182.8,72.3z M-176.6,83
			c-1,0-1.8-0.8-1.8-1.8c0-1,0.8-1.8,1.8-1.8c1,0,1.8,0.8,1.8,1.8C-174.8,82.2-175.6,83-176.6,83z M-174.8,65.1h-8.9v-3.6h8.9V65.1z
			 M-189.2,84v-2.8h-62.6v19.7h21.5l3.6-8.9h21.5l3.6,8.9h28.6V88.4h-12.5C-187.6,88.4-189.2,86.5-189.2,84z M-234.8,95.5h-10.7
			c-0.5,0-0.9-0.4-0.9-0.9c0-0.5,0.4-0.9,0.9-0.9h10.7c0.5,0,0.9,0.4,0.9,0.9C-233.9,95.1-234.3,95.5-234.8,95.5z M-234.8,91.9
			h-10.7c-0.5,0-0.9-0.4-0.9-0.9c0-0.5,0.4-0.9,0.9-0.9h10.7c0.5,0,0.9,0.4,0.9,0.9C-233.9,91.5-234.3,91.9-234.8,91.9z
			 M-234.8,88.4h-10.7c-0.5,0-0.9-0.4-0.9-0.9c0-0.5,0.4-0.9,0.9-0.9h10.7c0.5,0,0.9,0.4,0.9,0.9C-233.9,88-234.3,88.4-234.8,88.4z"
			/>
	</g>
</g>
<g id="_x2014_ÎÓÈ_x5F_8" display="none">
	<g display="inline">
		<path fill="#10AAC3" d="M-12,20.8v83.3c0,11.5-9.3,20.8-20.8,20.8h-83.3c-11.5,0-20.8-9.3-20.8-20.8V20.8
			C-137,9.3-127.7,0-116.2,0h83.3C-21.3,0-12,9.3-12,20.8z"/>
		<path opacity="0.3" d="M-106.7,29.3l21.5-1.8h14.3v7.2l-1.8,1.8v5.3l-1.8,1.8v3.5l-1.8,1.8v1.7l-1.8,1.8l-7.2,7.2v3.6l-5.4,5.4h4
			L-76.3,58h1.8v3.6h1.8l0.9,1.8l-1.9,1.8H-62l7.2-7.2h1.7l1.8-1.8h14.3v2.4l1.9-1.8c0.1-0.3,0.4-0.6,0.8-0.6c0.5,0,0.9,0.4,0.9,0.9
			v5.4c0,0.4-0.3,0.7-0.6,0.8l-5.3,5.4h2.3c1,0,1.8,0.8,1.8,1.8v10.7c0,0.6-0.3,1.2-0.9,1.5l-2,2.1h1.1v16.1L-61.1,125h-55.1
			c-11.5,0-20.8-9.3-20.8-20.8V59.8L-106.7,29.3z"/>
		<path fill="#EEEEEE" d="M-72.7,61.6h-1.8V58h-1.8v3.6h-1.8l-0.9,1.7h7.1L-72.7,61.6z M-83.4,66.9v14.3c0,1,0.8,1.8,1.8,1.8H-62
			c1,0,1.8-0.8,1.8-1.8V66.9c0-1-0.8-1.8-1.8-1.8h-19.7C-82.6,65.1-83.4,65.9-83.4,66.9z M-65.6,68.7c1,0,1.8,0.8,1.8,1.8
			c0,1-0.8,1.8-1.8,1.8c-1,0-1.8-0.8-1.8-1.8C-67.3,69.5-66.5,68.7-65.6,68.7z M-74.5,68.7c3,0,5.4,2.4,5.4,5.4c0,3-2.4,5.4-5.4,5.4
			c-3,0-5.4-2.4-5.4-5.4C-79.9,71.1-77.5,68.7-74.5,68.7z M-74.5,75.9c-0.7,0-1.2-0.4-1.5-0.9H-78c0.4,1.5,1.8,2.7,3.5,2.7
			c1.7,0,3.1-1.1,3.5-2.7H-73C-73.3,75.5-73.8,75.9-74.5,75.9z M-74.5,72.3c0.7,0,1.2,0.4,1.5,0.9h1.9c-0.4-1.5-1.8-2.7-3.5-2.7
			c-1.7,0-3.1,1.1-3.5,2.7h1.9C-75.7,72.6-75.2,72.3-74.5,72.3z M-92.3,80.7c0,0.2,0,0.3,0,0.5h7.1v-3.5h-7.1V80.7z M-85.3,68.7
			h-7.1v1.7h7.1V68.7z M-47.7,77.7h-10.6v3.5h10.6V77.7z M-85.3,72.3h-7.1v3.6h7.1V72.3z M-47.7,72.3h-10.6v3.6h10.6V72.3z
			 M-44.1,66.9h5.4v-1.7h-10.7v3.5h-8.9v1.7h10.6C-47.7,68.5-46.1,66.9-44.1,66.9z M-85.2,54.4h-3.6v-1.8h-3.6v12.5h3.6v-1.8h3.6
			V54.4z M-36.9,68.7h-7.2c-1,0-1.8,0.8-1.8,1.8v10.7c0,1,0.8,1.8,1.8,1.8h7.2c1,0,1.8-0.8,1.8-1.8V70.5
			C-35.1,69.5-35.9,68.7-36.9,68.7z M-34.2,56.2c-0.5,0-0.9,0.4-0.9,0.9v1.8h-1.8v-2.7h-14.3v7.2h14.3v-2.7h1.8v1.8
			c0,0.5,0.4,0.9,0.9,0.9c0.5,0,0.9-0.4,0.9-0.9v-5.4C-33.3,56.6-33.7,56.2-34.2,56.2z M-53.1,61.6V58h-1.7l-1.8,1.8l1.8,1.8H-53.1z
			 M-76.3,50.8v-1.7h-3.6v1.7l1.8,1.8L-76.3,50.8z M-81.7,45.5v1.7h7.2v-3.5h-2.4C-78.2,44.9-79.9,45.5-81.7,45.5z M-90.6,36.6v5.3
			h2.7c-0.6-1.1-1-2.3-1-3.6c0-0.6,0.1-1.2,0.2-1.7H-90.6z M-86.8,33.2c1.4-1.4,3.2-2.1,5.1-2.1c1.9,0,3.7,0.8,5.1,2.1
			c0.5,0.5,0.8,1,1.2,1.5h4.5v-7.2h-14.3l-21.5,1.8v5.4h18.8C-87.6,34.2-87.2,33.7-86.8,33.2z M-72.7,41.9v-5.3h-2
			c0.1,0.6,0.2,1.1,0.2,1.7c0,1.3-0.3,2.5-1,3.6H-72.7z M-97.8,36.6h-9.4l-3.1,12.4h12.5V36.6z M-77.9,42.1c2.1-2.1,2.1-5.5,0-7.6
			c-2.1-2.1-5.5-2.1-7.6,0c-2.1,2.1-2.1,5.5,0,7.6C-83.4,44.2-80,44.2-77.9,42.1z M-79.1,40.8C-79.1,40.8-79.1,40.8-79.1,40.8
			L-79.1,40.8C-79.1,40.8-79.1,40.8-79.1,40.8z M-79.1,35.8c1.2,1.2,1.4,3,0.5,4.3l-1.4-1.4c0.2-0.6,0-1.3-0.5-1.7
			c-0.5-0.5-1.1-0.6-1.7-0.5l-1.4-1.4C-82.1,34.4-80.3,34.6-79.1,35.8z M-84.7,36.5l1.4,1.4c-0.2,0.6,0,1.3,0.5,1.7
			c0.5,0.5,1.1,0.6,1.7,0.5l1.4,1.4c-1.4,0.8-3.2,0.6-4.3-0.5C-85.4,39.6-85.5,37.9-84.7,36.5z M-94.2,80.7V53.1
			c0-1.3-0.8-2.3-1.8-2.3h-17.9c-1,0-1.8,1-1.8,2.3v27.6c0,1.3,0.8,2.3,1.8,2.3H-96C-95,83-94.2,82-94.2,80.7z M-108.5,74.1
			c-1,0-1.8-0.8-1.8-1.8c0-1,0.8-1.8,1.8-1.8c1,0,1.8,0.8,1.8,1.8C-106.7,73.3-107.5,74.1-108.5,74.1z M-101.3,74.1
			c-1,0-1.8-0.8-1.8-1.8c0-1,0.8-1.8,1.8-1.8c1,0,1.8,0.8,1.8,1.8C-99.6,73.3-100.4,74.1-101.3,74.1z M-99.6,59.8
			c-0.2,0-0.3,0-0.5-0.1l-1.8,1.8c0.3,0.5,0.5,1.1,0.5,1.8c0,2-1.6,3.6-3.6,3.6c-2,0-3.6-1.6-3.6-3.6c0-2,1.6-3.6,3.6-3.6
			c0.7,0,1.3,0.2,1.8,0.5l1.8-1.8c0-0.1-0.1-0.3-0.1-0.5c0-1,0.8-1.8,1.8-1.8c1,0,1.8,0.8,1.8,1.8C-97.8,59-98.6,59.8-99.6,59.8z
			 M-47.2,83.1h-11.7c-0.6,1.1-1.8,1.8-3.1,1.8h-19.7c-1.3,0-2.5-0.7-3.1-1.8H-93c-0.7,1.1-1.7,1.8-3,1.8h-16.1v16.1h21.5l3.6-10.7
			h34l5.4,10.7h10.7V84.9h-7.2C-45.4,84.9-46.6,84.1-47.2,83.1z M-95.1,96.5h-10.7c-0.5,0-0.9-0.4-0.9-0.9c0-0.5,0.4-0.9,0.9-0.9
			h10.7c0.5,0,0.9,0.4,0.9,0.9C-94.2,96.1-94.6,96.5-95.1,96.5z M-95.1,92.9h-10.7c-0.5,0-0.9-0.4-0.9-0.9c0-0.5,0.4-0.9,0.9-0.9
			h10.7c0.5,0,0.9,0.4,0.9,0.9C-94.2,92.5-94.6,92.9-95.1,92.9z M-95.1,89.3h-10.7c-0.5,0-0.9-0.4-0.9-0.9c0-0.5,0.4-0.9,0.9-0.9
			h10.7c0.5,0,0.9,0.4,0.9,0.9C-94.2,88.9-94.6,89.3-95.1,89.3z"/>
	</g>
</g>
<g id="_x2014_ÎÓÈ_x5F_9">
	<g>
		<path fill="#F39C12" d="M125,20.8v83.3c0,11.5-9.3,20.8-20.8,20.8H20.8C9.3,125,0,115.7,0,104.2V20.8C0,9.3,9.3,0,20.8,0h83.3
			C115.7,0,125,9.3,125,20.8z"/>
		<path opacity="0.3" d="M37.4,29.3H50V49l16.1-16.1h12.7l3.5-3.6h8.9l12.5,37.6v12.5l-1.8,1.8v19.7L77.7,125H20.8
			C9.3,125,0,115.7,0,104.2V66.8L37.4,29.3z"/>
		<path fill="#EEEEEE" d="M57.1,68.6h19.7v-3.6H57.1V68.6z M80.3,32.9H66.1v7.2h14.3V32.9z M71.4,52.6l1.8-1.8V49h-3.6v1.7
			L71.4,52.6z M75,41.9h-7.2v5.3H75V41.9z M55.3,61.5h3.6V50.8h-3.6V49h-3.6v14.3h3.6V61.5z M29.8,63c0.7-0.7,0.7-1.8,0-2.5
			c-0.7-0.7-1.8-0.7-2.5,0c-0.7,0.7-0.7,1.8,0,2.5C27.9,63.7,29.1,63.7,29.8,63z M50,29.3H37.4L21.3,47.2v34h1.7v-1.8H50V29.3z
			 M36.7,59.2c1.2-1.2,2.9-1.3,4.3-0.6l2.1-0.7L42.3,60c0.8,1.4,0.6,3.1-0.6,4.3c-1.4,1.4-3.7,1.4-5.1,0
			C35.3,62.9,35.3,60.6,36.7,59.2z M26,59.2c1.2-1.2,2.9-1.3,4.3-0.6l2.1-0.7L31.6,60c0.8,1.4,0.6,3.1-0.6,4.3
			c-1.4,1.4-3.7,1.4-5.1,0C24.6,62.9,24.6,60.6,26,59.2z M33.9,70.5c-0.2,0-0.3,0-0.5-0.1l-1.8,1.8c0.3,0.5,0.5,1.1,0.5,1.8
			c0,2-1.6,3.6-3.6,3.6c-2,0-3.6-1.6-3.6-3.6c0-2,1.6-3.6,3.6-3.6c0.7,0,1.3,0.2,1.8,0.5l1.8-1.8c0-0.1-0.1-0.3-0.1-0.5
			c0-1,0.8-1.8,1.8-1.8c1,0,1.8,0.8,1.8,1.8C35.7,69.7,34.9,70.5,33.9,70.5z M44.6,70.5c-0.2,0-0.3,0-0.5-0.1l-1.8,1.8
			c0.3,0.5,0.5,1.1,0.5,1.8c0,2-1.6,3.6-3.6,3.6c-2,0-3.6-1.6-3.6-3.6c0-2,1.6-3.6,3.6-3.6c0.7,0,1.3,0.2,1.8,0.5l1.8-1.8
			c0-0.1-0.1-0.3-0.1-0.5c0-1,0.8-1.8,1.8-1.8c1,0,1.8,0.8,1.8,1.8C46.4,69.7,45.6,70.5,44.6,70.5z M40.5,63c0.7-0.7,0.7-1.8,0-2.5
			c-0.7-0.7-1.8-0.7-2.5,0c-0.7,0.7-0.7,1.8,0,2.5C38.7,63.7,39.8,63.7,40.5,63z M91.1,29.3h-8.9v41.2H53.6v8.9h50.1V66.9L91.1,29.3
			z M92.9,72.3c-1,0-1.8-0.8-1.8-1.8c0-1,0.8-1.8,1.8-1.8c1,0,1.8,0.8,1.8,1.8C94.7,71.5,93.9,72.3,92.9,72.3z M92.9,66.9
			c-1,0-1.8-0.8-1.8-1.8c0-1,0.8-1.8,1.8-1.8c1,0,1.8,0.8,1.8,1.8C94.7,66.1,93.9,66.9,92.9,66.9z M24.9,100.9h18.3l3.7-7.2h33
			l3.7,7.2h18.3V81.2H24.9V100.9z M31.2,84.8h10.7c0.5,0,0.9,0.4,0.9,0.9c0,0.5-0.4,0.9-0.9,0.9H31.2c-0.5,0-0.9-0.4-0.9-0.9
			C30.3,85.2,30.7,84.8,31.2,84.8z M31.2,88.4h10.7c0.5,0,0.9,0.4,0.9,0.9c0,0.5-0.4,0.9-0.9,0.9H31.2c-0.5,0-0.9-0.4-0.9-0.9
			C30.3,88.8,30.7,88.4,31.2,88.4z M31.2,91.9h10.7c0.5,0,0.9,0.4,0.9,0.9s-0.4,0.9-0.9,0.9H31.2c-0.5,0-0.9-0.4-0.9-0.9
			S30.7,91.9,31.2,91.9z"/>
	</g>
</g>
<g id="_x2014_ÎÓÈ_x5F_10" display="none">
	<g display="inline">
		<path fill="#F39C12" d="M-286,157.8v83.3c0,11.5-9.3,20.8-20.8,20.8h-83.3c-11.5,0-20.8-9.3-20.8-20.8v-83.3
			c0-11.5,9.3-20.8,20.8-20.8h83.3C-295.3,137-286,146.3-286,157.8z"/>
		<path opacity="0.3" d="M-376.1,171.1c0.5-0.8,1.8-1.3,3.4-1.3c2,0,3.6,0.8,3.6,1.9v3.6l1.8-1.9h8.2l2.8-2.7
			c0.3-0.5,0.8-0.9,1.5-0.9h19.7c1,0,1.8,0.8,1.8,1.8v3.7l1.8-1.9h10.4l2.3-2.3c0.5-0.8,1.8-1.3,3.4-1.3c2,0,3.6,0.8,3.6,1.9v44.6
			l-1.9,1.8h5.5v19.7l-24,24.2h-57.9c-11.5,0-20.8-9.3-20.8-20.8v-35.1L-376.1,171.1z"/>
		<path fill="#EEEEEE" d="M-370.8,197.5v18.8h1.7v-44.6c0-1-1.6-1.9-3.6-1.9c-2,0-3.6,0.8-3.6,1.9v21.4h1.8
			C-372.4,193.1-370.8,195-370.8,197.5z M-365.5,216.3h42.9v-3.2h-42.9V216.3z M-311.8,171.7c0-1-1.6-1.9-3.6-1.9
			c-2,0-3.6,0.8-3.6,1.9v44.6h7.2V171.7z M-320.8,173.4h-10.6v10.7h10.6V173.4z M-358.4,173.4h-8.8v10.7h8.8V173.4z M-354.8,187.7
			h19.7c1,0,1.8-0.8,1.8-1.8v-14.3c0-1-0.8-1.8-1.8-1.8h-19.7c-1,0-1.8,0.8-1.8,1.8v14.3C-356.6,186.9-355.7,187.7-354.8,187.7z
			 M-338.7,173.4c1,0,1.8,0.8,1.8,1.8c0,1-0.8,1.8-1.8,1.8c-1,0-1.8-0.8-1.8-1.8C-340.4,174.2-339.7,173.4-338.7,173.4z
			 M-347.6,173.4c3,0,5.4,2.4,5.4,5.4c0,3-2.4,5.4-5.4,5.4c-3,0-5.4-2.4-5.4-5.4C-353,175.8-350.6,173.4-347.6,173.4z M-347.6,177
			c0.7,0,1.2,0.4,1.5,0.9h1.9c-0.4-1.5-1.8-2.7-3.5-2.7c-1.7,0-3.1,1.1-3.5,2.7h1.9C-348.8,177.4-348.3,177-347.6,177z
			 M-347.6,182.4c1.7,0,3.1-1.1,3.5-2.7h-1.9c-0.3,0.5-0.9,0.9-1.5,0.9c-0.7,0-1.2-0.4-1.5-0.9h-1.9
			C-350.7,181.2-349.3,182.4-347.6,182.4z M-344,200.2l1.8-1.8v-1.7h-3.6v1.7L-344,200.2z M-340.4,189.6h-7.2v5.3h7.2V189.6z
			 M-372.7,220.9v-23.4c0-1.4-0.8-2.6-1.8-2.6H-387c-1,0-1.8,1.2-1.8,2.6v23.4c0,1.4,0.8,2.6,1.8,2.6h12.5
			C-373.5,223.5-372.7,222.4-372.7,220.9z M-383.4,219.9c-1,0-1.8-0.8-1.8-1.8c0-1,0.8-1.8,1.8-1.8c1,0,1.8,0.8,1.8,1.8
			C-381.6,219.1-382.4,219.9-383.4,219.9z M-383.4,214.6c-1,0-1.8-0.8-1.8-1.8c0-1,0.8-1.8,1.8-1.8c1,0,1.8,0.8,1.8,1.8
			C-381.6,213.8-382.4,214.6-383.4,214.6z M-383.4,209.2c-1,0-1.8-0.8-1.8-1.8c0-1,0.8-1.8,1.8-1.8c1,0,1.8,0.8,1.8,1.8
			C-381.6,208.4-382.4,209.2-383.4,209.2z M-378,219.9c-1,0-1.8-0.8-1.8-1.8c0-1,0.8-1.8,1.8-1.8c1,0,1.8,0.8,1.8,1.8
			C-376.2,219.1-377,219.9-378,219.9z M-378,214.6c-1,0-1.8-0.8-1.8-1.8c0-1,0.8-1.8,1.8-1.8c1,0,1.8,0.8,1.8,1.8
			C-376.2,213.8-377,214.6-378,214.6z M-378,209.2c-1,0-1.8-0.8-1.8-1.8c0-1,0.8-1.8,1.8-1.8c1,0,1.8,0.8,1.8,1.8
			C-376.2,208.4-377,209.2-378,209.2z M-376.2,202.1h-8.9v-3.6h8.9V202.1z M-370.8,218.2v2.8c0,2.5-1.6,4.4-3.6,4.4h-5.4v12.5h21.5
			l3.6-8.9h21.5l3.6,8.9h21.5v-19.7H-370.8z M-314.5,232.5h-10.7c-0.5,0-0.9-0.4-0.9-0.9c0-0.5,0.4-0.9,0.9-0.9h10.7
			c0.5,0,0.9,0.4,0.9,0.9C-313.6,232.1-314,232.5-314.5,232.5z M-314.5,228.9h-10.7c-0.5,0-0.9-0.4-0.9-0.9c0-0.5,0.4-0.9,0.9-0.9
			h10.7c0.5,0,0.9,0.4,0.9,0.9C-313.6,228.5-314,228.9-314.5,228.9z M-314.5,225.3h-10.7c-0.5,0-0.9-0.4-0.9-0.9
			c0-0.5,0.4-0.9,0.9-0.9h10.7c0.5,0,0.9,0.4,0.9,0.9C-313.6,224.9-314,225.3-314.5,225.3z"/>
	</g>
</g>
<g id="_x2014_ÎÓÈ_x5F_11" display="none">
	<g display="inline">
		<path fill="#10AAC3" d="M-149,157.8v83.3c0,11.5-9.3,20.8-20.8,20.8h-83.3c-11.5,0-20.8-9.3-20.8-20.8v-83.3
			c0-11.5,9.3-20.8,20.8-20.8h83.3C-158.3,137-149,146.3-149,157.8z"/>
		<path opacity="0.3" d="M-194.4,262h-58.7c-11.5,0-20.8-9.3-20.8-20.8V194l19.8-19.8c0.3-0.5,0.9-0.9,1.5-0.9h23.3
			c1,0,1.8,0.8,1.8,1.8v1.8l1.8-1.8h55.4c1,0,1.8,0.8,1.8,1.8v23.3l-1.9,1.8h1.9v12.5c0,0.6-0.4,1.2-0.9,1.5l-2.1,2.1h1.1v19.6
			L-194.4,262z"/>
		<path fill="#EEEEEE" d="M-170.3,175.2h-55.4v25h57.2v-23.3C-168.6,176-169.4,175.2-170.3,175.2z M-222.2,190.4
			c0,0.5-0.4,0.9-0.9,0.9c-0.5,0-0.9-0.4-0.9-0.9V185c0-0.5,0.4-0.9,0.9-0.9c0.5,0,0.9,0.4,0.9,0.9V190.4z M-177.5,191.3
			c0,1-0.8,1.8-1.8,1.8h-37.6c-1,0-1.8-0.8-1.8-1.8v-8.9c0-1,0.8-1.8,1.8-1.8h37.6c1,0,1.8,0.8,1.8,1.8V191.3z M-172.1,190.4
			c0,0.5-0.4,0.9-0.9,0.9c-0.5,0-0.9-0.4-0.9-0.9V185c0-0.5,0.4-0.9,0.9-0.9c0.5,0,0.9,0.4,0.9,0.9V190.4z M-225.8,214.5
			c0,0.6-0.2,1.2-0.5,1.7c0.1,0,0.3,0.1,0.4,0.1h55.5c1,0,1.8-0.8,1.8-1.8V202h-57.2V214.5z M-248.5,206.3c-0.7,0.7-0.7,1.8,0,2.5
			c0.7,0.7,1.8,0.7,2.5,0c0.7-0.7,0.7-1.8,0-2.5C-246.7,205.6-247.9,205.6-248.5,206.3z M-237.8,206.3c-0.7,0.7-0.7,1.8,0,2.5
			c0.7,0.7,1.8,0.7,2.5,0c0.7-0.7,0.7-1.8,0-2.5C-236,205.6-237.1,205.6-237.8,206.3z M-227.6,214.5v-39.4c0-1-0.8-1.8-1.8-1.8
			h-23.3c-1,0-1.8,0.8-1.8,1.8v39.4c0,1,0.8,1.8,1.8,1.8h23.3C-228.4,216.3-227.6,215.5-227.6,214.5z M-249.1,178.7h16.1v5.4h-16.1
			V178.7z M-236.5,191.3c-1,0-1.8-0.8-1.8-1.8c0-1,0.8-1.8,1.8-1.8c1,0,1.8,0.8,1.8,1.8C-234.8,190.5-235.6,191.3-236.5,191.3z
			 M-234.8,194.8c0,1-0.8,1.8-1.8,1.8c-1,0-1.8-0.8-1.8-1.8c0-1,0.8-1.8,1.8-1.8C-235.6,193.1-234.8,193.9-234.8,194.8z
			 M-247.3,187.7c1,0,1.8,0.8,1.8,1.8c0,1-0.8,1.8-1.8,1.8c-1,0-1.8-0.8-1.8-1.8C-249.1,188.5-248.3,187.7-247.3,187.7z
			 M-247.3,193.1c1,0,1.8,0.8,1.8,1.8c0,1-0.8,1.8-1.8,1.8c-1,0-1.8-0.8-1.8-1.8C-249.1,193.9-248.3,193.1-247.3,193.1z
			 M-244.8,210.1c-1.4,1.4-3.7,1.4-5.1,0c-1.4-1.4-1.4-3.7,0-5.1c1.2-1.2,2.9-1.3,4.3-0.6l2.1-0.7l-0.7,2.1
			C-243.4,207.2-243.6,209-244.8,210.1z M-241.9,196.6c-1,0-1.8-0.8-1.8-1.8c0-1,0.8-1.8,1.8-1.8c1,0,1.8,0.8,1.8,1.8
			C-240.1,195.8-240.9,196.6-241.9,196.6z M-241.9,191.3c-1,0-1.8-0.8-1.8-1.8c0-1,0.8-1.8,1.8-1.8c1,0,1.8,0.8,1.8,1.8
			C-240.1,190.5-240.9,191.3-241.9,191.3z M-234,210.1c-1.4,1.4-3.7,1.4-5.1,0c-1.4-1.4-1.4-3.7,0-5.1c1.2-1.2,2.9-1.3,4.3-0.6
			l2.1-0.7l-0.7,2.1C-232.7,207.2-232.9,209-234,210.1z M-226.7,218.1l-1.2-0.3c-0.5,0.2-1,0.4-1.6,0.4h-21.5v19.6h23.3l3.6-8.9
			h35.8l3.6,8.9h14.3v-19.6h-55.5C-226.1,218.2-226.4,218.1-226.7,218.1z M-233.9,229.8h-10.7c-0.5,0-0.9-0.4-0.9-0.9
			c0-0.5,0.4-0.9,0.9-0.9h10.7c0.5,0,0.9,0.4,0.9,0.9C-233,229.4-233.4,229.8-233.9,229.8z M-233.9,226.2h-10.7
			c-0.5,0-0.9-0.4-0.9-0.9c0-0.5,0.4-0.9,0.9-0.9h10.7c0.5,0,0.9,0.4,0.9,0.9C-233,225.8-233.4,226.2-233.9,226.2z M-233.9,222.6
			h-10.7c-0.5,0-0.9-0.4-0.9-0.9c0-0.5,0.4-0.9,0.9-0.9h10.7c0.5,0,0.9,0.4,0.9,0.9C-233,222.2-233.4,222.6-233.9,222.6z"/>
	</g>
</g>
<g id="_x2014_ÎÓÈ_x5F_12" display="none">
	<g display="inline">
		<path fill="#EF4836" d="M-12,157.8v83.3c0,11.5-9.3,20.8-20.8,20.8h-83.3c-11.5,0-20.8-9.3-20.8-20.8v-83.3
			c0-11.5,9.3-20.8,20.8-20.8h83.3C-21.3,137-12,146.3-12,157.8z"/>
		<path opacity="0.3" d="M-58.4,262h-57.8c-11.5,0-20.8-9.3-20.8-20.8v-48l19-19c0.3-0.5,0.9-0.9,1.5-0.9h23.2v1.1l2.1-2.1
			c0.3-0.5,0.9-0.9,1.5-0.9h39.4c1,0,1.8,0.8,1.8,1.8v1.9l1.8-1.9h14.3c1,0,1.8,0.8,1.8,1.8v39.4c0,0.6-0.4,1.2-0.9,1.5l-2.7,2.8v19
			L-58.4,262z"/>
		<path fill="#EEEEEE" d="M-89.7,218.1h39.4c1,0,1.8-0.8,1.8-1.8v-42.9c0-1-0.8-1.8-1.8-1.8h-39.4c-1,0-1.8,0.8-1.8,1.8v42.9
			C-91.5,217.3-90.7,218.1-89.7,218.1z M-53.9,210.1c0,0.5-0.4,0.9-0.9,0.9c-0.5,0-0.9-0.4-0.9-0.9v-5.4c0-0.5,0.4-0.9,0.9-0.9
			c0.5,0,0.9,0.4,0.9,0.9V210.1z M-86.1,180.6c0-1,0.8-1.8,1.8-1.8h28.6c1,0,1.8,0.8,1.8,1.8v14.3c0,1-0.8,1.8-1.8,1.8h-28.6
			c-1,0-1.8-0.8-1.8-1.8V180.6z M-86.1,204.7c0-0.5,0.4-0.9,0.9-0.9c0.5,0,0.9,0.4,0.9,0.9v5.4c0,0.5-0.4,0.9-0.9,0.9
			c-0.5,0-0.9-0.4-0.9-0.9V204.7z M-112.4,207.9c-0.7,0.7-0.7,1.8,0,2.5c0.7,0.7,1.8,0.7,2.5,0c0.7-0.7,0.7-1.8,0-2.5
			C-110.6,207.2-111.7,207.2-112.4,207.9z M-93.3,173.4h-23.2c-1,0-1.8,0.8-1.8,1.8v39.4c0,1,0.8,1.8,1.8,1.8h23.2V173.4z
			 M-113,178.8h14.3v5.4H-113V178.8z M-100.4,198.4c1,0,1.8,0.8,1.8,1.8c0,1-0.8,1.8-1.8,1.8c-1,0-1.8-0.8-1.8-1.8
			C-102.2,199.2-101.4,198.4-100.4,198.4z M-102.2,194.9c0-1,0.8-1.8,1.8-1.8c1,0,1.8,0.8,1.8,1.8c0,1-0.8,1.8-1.8,1.8
			C-101.4,196.7-102.2,195.9-102.2,194.9z M-100.4,191.3c-1,0-1.8-0.8-1.8-1.8c0-1,0.8-1.8,1.8-1.8c1,0,1.8,0.8,1.8,1.8
			C-98.7,190.5-99.5,191.3-100.4,191.3z M-105.8,191.3c-1,0-1.8-0.8-1.8-1.8c0-1,0.8-1.8,1.8-1.8c1,0,1.8,0.8,1.8,1.8
			C-104,190.5-104.8,191.3-105.8,191.3z M-104,194.9c0,1-0.8,1.8-1.8,1.8c-1,0-1.8-0.8-1.8-1.8c0-1,0.8-1.8,1.8-1.8
			C-104.8,193.1-104,193.9-104,194.9z M-109.4,189.5c0,1-0.8,1.8-1.8,1.8c-1,0-1.8-0.8-1.8-1.8c0-1,0.8-1.8,1.8-1.8
			C-110.2,187.7-109.4,188.5-109.4,189.5z M-111.2,193.1c1,0,1.8,0.8,1.8,1.8c0,1-0.8,1.8-1.8,1.8c-1,0-1.8-0.8-1.8-1.8
			C-113,193.9-112.2,193.1-111.2,193.1z M-109.4,200.2c0,1-0.8,1.8-1.8,1.8c-1,0-1.8-0.8-1.8-1.8c0-1,0.8-1.8,1.8-1.8
			C-110.2,198.4-109.4,199.2-109.4,200.2z M-108.7,211.7c-1.4,1.4-3.7,1.4-5.1,0c-1.4-1.4-1.4-3.7,0-5.1c1.2-1.2,2.9-1.3,4.3-0.6
			l2.1-0.7l-0.7,2.1C-107.3,208.8-107.5,210.6-108.7,211.7z M-105.8,202c-1,0-1.8-0.8-1.8-1.8c0-1,0.8-1.8,1.8-1.8
			c1,0,1.8,0.8,1.8,1.8C-104,201.2-104.8,202-105.8,202z M-97.9,211.7c-1.4,1.4-3.7,1.4-5.1,0c-1.4-1.4-1.4-3.7,0-5.1
			c1.2-1.2,2.9-1.3,4.3-0.6l2.1-0.7l-0.7,2.1C-96.6,208.8-96.8,210.6-97.9,211.7z M-32.5,173.4h-14.3v42.9h14.3c1,0,1.8-0.8,1.8-1.8
			v-39.4C-30.7,174.2-31.5,173.4-32.5,173.4z M-101.7,207.9c-0.7,0.7-0.7,1.8,0,2.5c0.7,0.7,1.8,0.7,2.5,0c0.7-0.7,0.7-1.8,0-2.5
			C-99.9,207.2-101,207.2-101.7,207.9z M-50.3,220h-39.4c-1.3,0-2.5-0.7-3.1-1.8h-21.9v19.6h23.3l3.6-8.9h35.8l3.6,8.9h14.3v-19.6
			h-13C-47.9,219.2-49,220-50.3,220z M-97.8,229.8h-10.7c-0.5,0-0.9-0.4-0.9-0.9c0-0.5,0.4-0.9,0.9-0.9h10.7c0.5,0,0.9,0.4,0.9,0.9
			C-96.9,229.4-97.3,229.8-97.8,229.8z M-97.8,226.2h-10.7c-0.5,0-0.9-0.4-0.9-0.9c0-0.5,0.4-0.9,0.9-0.9h10.7
			c0.5,0,0.9,0.4,0.9,0.9C-96.9,225.8-97.3,226.2-97.8,226.2z M-97.8,222.6h-10.7c-0.5,0-0.9-0.4-0.9-0.9c0-0.5,0.4-0.9,0.9-0.9
			h10.7c0.5,0,0.9,0.4,0.9,0.9C-96.9,222.2-97.3,222.6-97.8,222.6z"/>
	</g>
</g>
<g id="_x2014_ÎÓÈ_x5F_13" display="none">
	<g display="inline">
		<path fill="#2FCC58" d="M125,157.8v83.3c0,11.5-9.3,20.8-20.8,20.8H20.8C9.3,262,0,252.7,0,241.2v-83.3C0,146.3,9.3,137,20.8,137
			h83.3C115.7,137,125,146.3,125,157.8z"/>
		<path opacity="0.3" d="M18.1,174.2c0.3-0.5,0.9-0.9,1.5-0.9H50c1,0,1.8,0.8,1.8,1.8v7.3l1.8-1.9h3.6v1.8h3.6v10.7L50,203.8v1.3
			l3.1-3.1h2.7l13.8-14.3h1.8v3.6h1.8l1.3,5.3l-1.9,1.8h0.6l12.5-12.5h1.7v0.1l1.8-1.9h14.3v2.4l1.8-1.8c0.1-0.3,0.4-0.6,0.8-0.6
			c0.5,0,0.9,0.4,0.9,0.9v5.4c0,0.4-0.3,0.7-0.6,0.8l-5.3,5.4h2.4v4l-1.4,1.4c0.8,0.2,1.4,0.9,1.4,1.7v10.7c0,0.6-0.4,1.2-0.9,1.5
			l-2.7,2.8v19L75.8,262h-55C9.3,262,0,252.7,0,241.2v-48.9L18.1,174.2z"/>
		<path fill="#EEEEEE" d="M94.7,214.6h-7.1c0,2-1.6,3.6-3.6,3.6H64.3c-2,0-3.6-1.6-3.6-3.6l-35.7,0v23.2h21.5L50,227h34l5.4,10.7
			h10.7v-19.6h-1.8C96.3,218.2,94.7,216.6,94.7,214.6z M41.9,227H31.2c-0.5,0-0.9-0.4-0.9-0.9c0-0.5,0.4-0.9,0.9-0.9h10.7
			c0.5,0,0.9,0.4,0.9,0.9C42.8,226.6,42.4,227,41.9,227z M41.9,223.5H31.2c-0.5,0-0.9-0.4-0.9-0.9c0-0.5,0.4-0.9,0.9-0.9h10.7
			c0.5,0,0.9,0.4,0.9,0.9C42.8,223.1,42.4,223.5,41.9,223.5z M41.9,219.9H31.2c-0.5,0-0.9-0.4-0.9-0.9c0-0.5,0.4-0.9,0.9-0.9h10.7
			c0.5,0,0.9,0.4,0.9,0.9C42.8,219.5,42.4,219.9,41.9,219.9z M101.9,202h-3.6c-1,0-1.8,0.8-1.8,1.8v10.7c0,1,0.8,1.8,1.8,1.8h3.6
			c1,0,1.8-0.8,1.8-1.8v-10.7C103.7,202.8,102.8,202,101.9,202z M50,210.9v-7.2c0-1-0.8-1.8-1.8-1.8H50c1,0,1.8-0.8,1.8-1.8v-25
			c0-1-0.8-1.8-1.8-1.8H19.6c-1,0-1.8,0.8-1.8,1.8v25c0,1,0.8,1.8,1.8,1.8h3.6c-1,0-1.8,0.8-1.8,1.8v7.2c0,1,0.8,1.8,1.8,1.8h25.1
			C49.2,212.7,50,211.9,50,210.9z M30.3,198.4c-1,0-1.8-0.8-1.8-1.8c0-1,0.8-1.8,1.8-1.8c1,0,1.8,0.8,1.8,1.8
			C32.1,197.6,31.3,198.4,30.3,198.4z M32.1,185.9c0,2-1.6,3.6-3.6,3.6c-2,0-3.6-1.6-3.6-3.6c0-2,1.6-3.6,3.6-3.6
			c0.7,0,1.3,0.2,1.8,0.5l1.8-1.8c0-0.1-0.1-0.3-0.1-0.5c0-1,0.8-1.8,1.8-1.8c1,0,1.8,0.8,1.8,1.8c0,1-0.8,1.8-1.8,1.8
			c-0.2,0-0.3,0-0.5-0.1l-1.8,1.8C31.9,184.6,32.1,185.2,32.1,185.9z M35.7,209.2c-1,0-1.8-0.8-1.8-1.8c0-1,0.8-1.8,1.8-1.8
			c1,0,1.8,0.8,1.8,1.8C37.4,208.4,36.6,209.2,35.7,209.2z M37.4,198.4c-1,0-1.8-0.8-1.8-1.8c0-1,0.8-1.8,1.8-1.8
			c1,0,1.8,0.8,1.8,1.8C39.2,197.6,38.4,198.4,37.4,198.4z M42.8,209.2c-1,0-1.8-0.8-1.8-1.8c0-1,0.8-1.8,1.8-1.8
			c1,0,1.8,0.8,1.8,1.8C44.6,208.4,43.8,209.2,42.8,209.2z M44.6,198.4c-1,0-1.8-0.8-1.8-1.8c0-1,0.8-1.8,1.8-1.8
			c1,0,1.8,0.8,1.8,1.8C46.4,197.6,45.6,198.4,44.6,198.4z M46.4,182.3c-0.2,0-0.3,0-0.5-0.1l-1.8,1.8c0.3,0.5,0.5,1.1,0.5,1.8
			c0,2-1.6,3.6-3.6,3.6c-2,0-3.6-1.6-3.6-3.6c0-2,1.6-3.6,3.6-3.6c0.7,0,1.3,0.2,1.8,0.5l1.8-1.8c0-0.1-0.1-0.3-0.1-0.5
			c0-1,0.8-1.8,1.8-1.8c1,0,1.8,0.8,1.8,1.8C48.2,181.5,47.4,182.3,46.4,182.3z M57.1,193.1h3.6v-10.7h-3.6v-1.8h-3.6v14.3h3.6
			V193.1z M73.2,191.3h-1.8v-3.6h-1.8v3.6h-1.8l-1.3,5.3h8L73.2,191.3z M71.4,205.6c0.7,0,1.2,0.4,1.5,0.9h1.9
			c-0.4-1.5-1.8-2.7-3.5-2.7c-1.7,0-3.1,1.1-3.5,2.7h1.9C70.2,205.9,70.8,205.6,71.4,205.6z M64.3,216.3H84c1,0,1.8-0.8,1.8-1.8
			v-14.3c0-1-0.8-1.8-1.8-1.8H64.3c-1,0-1.8,0.8-1.8,1.8v14.3C62.5,215.5,63.3,216.3,64.3,216.3z M80.4,202c1,0,1.8,0.8,1.8,1.8
			c0,1-0.8,1.8-1.8,1.8c-1,0-1.8-0.8-1.8-1.8C78.6,202.8,79.4,202,80.4,202z M71.4,202c3,0,5.4,2.4,5.4,5.4c0,3-2.4,5.4-5.4,5.4
			c-3,0-5.4-2.4-5.4-5.4C66.1,204.4,68.5,202,71.4,202z M71.4,209.2c-0.7,0-1.2-0.4-1.5-0.9H68c0.4,1.5,1.8,2.7,3.5,2.7
			c1.7,0,3.1-1.1,3.5-2.7H73C72.7,208.8,72.1,209.2,71.4,209.2z M60.7,203.7V202h-7.5c-0.3,0.6-0.8,1-1.3,1.4c0,0.1,0,0.3,0,0.4
			H60.7z M89.3,202h-1.7v1.7h7.1c0-2,1.6-3.6,3.6-3.6h3.6c0.7,0,1.3,0.2,1.8,0.5v-4H89.3V202z M94.7,205.6h-7.1v3.6h7.1V205.6z
			 M94.7,211h-7.1v1.7h7.1V211z M60.7,205.6h-8.8v3.6h8.8V205.6z M51.3,212.7h9.3V211h-8.8C51.8,211.6,51.6,212.2,51.3,212.7z
			 M106.3,184.1c-0.5,0-0.9,0.4-0.9,0.9v1.8h-1.8v-2.7H89.3v7.2h1.8v3.5h10.7v-3.5h1.8v-2.7h1.8v1.8c0,0.5,0.4,0.9,0.9,0.9
			c0.5,0,0.9-0.4,0.9-0.9v-1.8v-1.8V185C107.2,184.5,106.8,184.1,106.3,184.1z M87.5,189.5v-3.6h-1.7l-1.8,1.8l1.8,1.8H87.5z"/>
	</g>
</g>
</svg>
