<?xml version="1.0" encoding="utf-8"?>
<!-- Generator: Adobe Illustrator 18.0.0, SVG Export Plug-In . SVG Version: 6.00 Build 0)  -->
<!DOCTYPE svg PUBLIC "-//W3C//DTD SVG 1.1//EN" "http://www.w3.org/Graphics/SVG/1.1/DTD/svg11.dtd">
<svg version="1.1" xmlns="http://www.w3.org/2000/svg" xmlns:xlink="http://www.w3.org/1999/xlink" x="0px" y="0px"
	 viewBox="0 0 125 125" enable-background="new 0 0 125 125" xml:space="preserve">
<g id="_x2014_ÎÓÈ_x5F_1" display="none">
	<rect x="-428.5" y="-299.7" display="inline" fill="#22313F" width="570" height="450"/>
</g>
<g id="_x2014_ÎÓÈ_x5F_2" display="none">
	<g display="inline">
		<path fill="#10AAC3" d="M-286-253.2v83.3c0,11.5-9.3,20.8-20.8,20.8h-83.3c-11.5,0-20.8-9.3-20.8-20.8v-83.3
			c0-11.5,9.3-20.8,20.8-20.8h83.3C-295.3-274-286-264.7-286-253.2z"/>
		<path opacity="0.3" d="M-355.1-248.8c0.5-0.8,1.9-1.4,3.7-1.4c2.1,0,3.9,0.9,3.9,1.9v4l-1.9,1.8h3.8v4l-1.9,1.8h7.7
			c1.1,0,1.9,0.9,1.9,1.9v5.2l2.2-2.1c0.2-0.4,0.4-0.6,0.7-0.6c0.5,0,1,0.8,1,1.8v10.8c0,0.9-0.4,1.6-0.8,1.7l-8,8.1v8.1l-1.9,1.8
			h8.1l3-3c0.3-0.5,0.9-0.9,1.6-0.9h5.8c1.1,0,1.9,0.9,1.9,1.9v13.6c0,0.7-0.4,1.2-0.9,1.6l-9.9,10h5v3.9l-23.7,23.8h-36.4
			c-11.5,0-20.8-9.3-20.8-20.8v-23.1L-355.1-248.8z"/>
		<path fill="#EEEEEE" d="M-356.1-225.6c0.8-0.8,0.8-2,0-2.7c-0.8-0.8-2-0.8-2.7,0c-0.8,0.8-0.8,2,0,2.7
			C-358.1-224.9-356.8-224.9-356.1-225.6z M-363-217.3h23.2c1.1,0,1.9-0.9,1.9-1.9v-4.8h1.9v4.4c0,1,0.4,1.8,1,1.8
			c0.5,0,1-0.8,1-1.8v-10.8c0-1-0.4-1.8-1-1.8c-0.5,0-1,0.8-1,1.8v4.4h-1.9v-8.7c0-1.1-0.9-1.9-1.9-1.9H-363c-1.1,0-1.9,0.9-1.9,1.9
			v15.5C-364.9-218.2-364.1-217.3-363-217.3z M-348.6-229.7c1.3-1.3,3.1-1.4,4.6-0.6l2.2-0.7l-0.7,2.2c0.8,1.5,0.6,3.4-0.6,4.6
			c-1.5,1.5-4,1.5-5.5,0C-350.1-225.8-350.1-228.2-348.6-229.7z M-360.2-229.7c1.3-1.3,3.1-1.4,4.6-0.6l2.2-0.7l-0.7,2.2
			c0.8,1.5,0.6,3.4-0.6,4.6c-1.5,1.5-4,1.5-5.5,0C-361.7-225.8-361.7-228.2-360.2-229.7z M-344.5-225.6c0.8-0.8,0.8-2,0-2.7
			c-0.8-0.8-2-0.8-2.7,0c-0.8,0.8-0.8,2,0,2.7C-346.4-224.9-345.2-224.9-344.5-225.6z M-345.6-184.4l7.8-7.8H-365l7.8,7.8H-345.6z
			 M-347.5-248.3c0-1.1-1.7-1.9-3.9-1.9c-2.1,0-3.9,0.9-3.9,1.9v4h7.7V-248.3z M-357.2-201.7v-13.7h-2.8v13.7H-357.2z M-342.8-201.7
			v-13.7h-2.8v13.7H-342.8z M-345.6-242.5h-11.6v4h11.6V-242.5z M-345.6-182.6h-11.6v5.9h-15.5v3.9h42.6v-3.9h-15.5V-182.6z
			 M-347.5-215.5h-7.7v4h7.7V-215.5z M-326.2-203.8h-5.8c-1.1,0-1.9,0.9-1.9,1.9v13.6c0,1.1,0.9,1.9,1.9,1.9h5.8
			c1.1,0,1.9-0.9,1.9-1.9v-13.6C-324.3-202.9-325.2-203.8-326.2-203.8z M-329.1-190.2c-1.1,0-1.9-0.9-1.9-1.9c0-1.1,0.9-1.9,1.9-1.9
			c1.1,0,1.9,0.9,1.9,1.9C-327.2-191.1-328.1-190.2-329.1-190.2z M-329.1-196c-1.1,0-1.9-0.9-1.9-1.9c0-1.1,0.9-1.9,1.9-1.9
			c1.1,0,1.9,0.9,1.9,1.9C-327.2-196.9-328.1-196-329.1-196z M-351.4-205.7l1.9-1.9v-2h-3.9v2L-351.4-205.7z M-335.8-199.9h-34.9
			v5.8h34.9V-199.9z"/>
	</g>
</g>
<g id="_x2014_ÎÓÈ_x5F_3" display="none">
	<g display="inline">
		<path fill="#F39C12" d="M-149-253.2v83.3c0,11.5-9.3,20.8-20.8,20.8h-83.3c-11.5,0-20.8-9.3-20.8-20.8v-83.3
			c0-11.5,9.3-20.8,20.8-20.8h83.3C-158.3-274-149-264.7-149-253.2z"/>
		<path opacity="0.3" d="M-226-247.3c1.8-2.2,6.6-3.2,14.5-3.2c10.2,0,15.3,1.8,15.3,5.3v29.1l-1.9,1.8h13.8v4.2l-6.3,6.2v29.7
			c0,0.6-0.3,1.1-0.8,1.4l-23.8,23.8h-38c-11.5,0-20.8-9.3-20.8-20.8v-29.5L-226-247.3z"/>
		<path fill="#EEEEEE" d="M-224.1-245.2c0-1.4,5.6-2.6,12.6-2.6c6.9,0,12.6,1.2,12.6,2.6v29.1h2.8v-29.1c0-3.5-5.2-5.3-15.3-5.3
			c-10.2,0-15.3,1.8-15.3,5.3v29.1h2.8V-245.2z M-238.7-214.3v4.2h54.4v-4.2H-238.7z M-205.2-230.8h-3.1c0,1.7-1.4,3.1-3.1,3.1
			c-1.7,0-3.1-1.4-3.1-3.1h-3.1c0,3.5,2.8,6.3,6.3,6.3C-208-224.5-205.2-227.3-205.2-230.8z M-211.5-241c-4.6,0-8.4,3.8-8.4,8.4
			h16.7C-203.1-237.3-206.9-241-211.5-241z M-219.9-216.2h16.7v-4.2h-16.7V-216.2z M-221.4-196.1c-0.5-0.5-0.7-1.3-0.5-2l-1.6-1.6
			c-0.9,1.6-0.7,3.7,0.6,5.1c1.4,1.4,3.5,1.6,5.1,0.6l-1.6-1.6C-220-195.4-220.8-195.5-221.4-196.1z M-192.7-208h-37.7
			c-1.2,0-2.1,0.8-2.1,1.8v32c0,1,0.9,1.8,2.1,1.8h37.7c1.1,0,2.1-0.8,2.1-1.8v-32C-190.6-207.2-191.5-208-192.7-208z M-222-182.9
			c-1.2,0-2.1-0.9-2.1-2.1c0-1.2,0.9-2.1,2.1-2.1c1.2,0,2.1,0.9,2.1,2.1C-219.9-183.8-220.8-182.9-222-182.9z M-215.7-182.9
			c-1.2,0-2.1-0.9-2.1-2.1c0-1.2,0.9-2.1,2.1-2.1c1.2,0,2.1,0.9,2.1,2.1C-213.6-183.8-214.5-182.9-215.7-182.9z M-215.4-193.1
			c-2.4,2.5-6.4,2.5-8.9,0c-2.5-2.5-2.5-6.4,0-8.9c2.5-2.5,6.4-2.5,8.9,0C-213-199.5-213-195.6-215.4-193.1z M-195.8-176.6h-12.6
			c-0.6,0-1-0.5-1-1c0-0.6,0.5-1,1-1h12.6c0.6,0,1,0.5,1,1C-194.8-177.1-195.2-176.6-195.8-176.6z M-195.8-180.8h-12.6
			c-0.6,0-1-0.5-1-1c0-0.6,0.5-1.1,1-1.1h12.6c0.6,0,1,0.5,1,1.1C-194.8-181.3-195.2-180.8-195.8-180.8z M-195.8-185h-12.6
			c-0.6,0-1-0.5-1-1.1c0-0.6,0.5-1,1-1h12.6c0.6,0,1,0.5,1,1C-194.8-185.5-195.2-185-195.8-185z M-196.8-199.7c-0.2,0-0.4,0-0.5-0.1
			l-2.1,2.1c0.4,0.6,0.6,1.3,0.6,2.1c0,2.3-1.9,4.2-4.2,4.2c-2.3,0-4.2-1.9-4.2-4.2c0-2.3,1.9-4.2,4.2-4.2c0.8,0,1.5,0.2,2.1,0.6
			l2.1-2.2c0-0.2-0.1-0.3-0.1-0.5c0-1.2,0.9-2.1,2.1-2.1c1.2,0,2.1,0.9,2.1,2.1C-194.8-200.6-195.7-199.7-196.8-199.7z M-222-201.2
			l1.6,1.6c0.7-0.2,1.5,0,2,0.5c0.5,0.5,0.7,1.3,0.5,2l1.6,1.6c0.9-1.6,0.7-3.7-0.6-5.1C-218.3-201.9-220.4-202.1-222-201.2z"/>
	</g>
</g>
<g id="_x2014_ÎÓÈ_x5F_4" display="none">
	<g display="inline">
		<path fill="#2FCC58" d="M-12-253.2v83.3c0,11.5-9.3,20.8-20.8,20.8h-83.3c-11.5,0-20.8-9.3-20.8-20.8v-83.3
			c0-11.5,9.3-20.8,20.8-20.8h83.3C-21.3-274-12-264.7-12-253.2z"/>
		<path opacity="0.3" d="M-93.5-241.6c0.3-0.5,0.9-0.9,1.6-0.9h11.2l6.4-6.4c0.5-0.8,1.9-1.4,3.7-1.4c2.1,0,3.9,0.9,3.9,1.9v4
			l-1.9,1.8h1.9c1.1,0,1.9,0.9,1.9,1.9v1.9c0,0.7-0.4,1.3-0.9,1.6l-4.1,4.2h24.4v7.7l-3.9,3.8v13.7l-1.9,1.8h5.3
			c1.3,0,2.4,0.9,2.4,1.9v25.2c0,0,0,0.1,0,0.1l-1.8,1.8h3.8v3.9L-65.3-149h-50.9c-11.5,0-20.8-9.3-20.8-20.8v-28.3L-93.5-241.6z"/>
		<path fill="#EEEEEE" d="M-91.9-236.7h25.2c1.1,0,1.9-0.9,1.9-1.9v-1.9c0-1.1-0.9-1.9-1.9-1.9h-25.2c-1.1,0-1.9,0.9-1.9,1.9v1.9
			C-93.9-237.5-93-236.7-91.9-236.7z M-66.8-248.3c0-1.1-1.7-1.9-3.9-1.9c-2.1,0-3.9,0.9-3.9,1.9v4h7.7V-248.3z M-80.3-234.8h-11.6
			v13.6h11.6V-234.8z M-86.1-207.6l1.9-1.9v-2H-88v2L-86.1-207.6z M-82.2-219.3H-90v5.9h7.7V-219.3z M-98.7-222c0.5,0,1-0.8,1-1.7
			v-4.2h1.9v2.9h2v-7.7h-2v2.9h-1.9v-4.2c0-1-0.4-1.7-1-1.7c-0.5,0-1,0.8-1,1.7v10.4C-99.7-222.8-99.2-222-98.7-222z M-78.5-225h33
			v-7.7h-33V-225z M-57.1-223.2v15.7h7.7v-15.7H-57.1z M-100.6-190.2c0.5,0,1-0.4,1-1v-1.9h1.9v2.9h33v-7.7h-33v2.9h-1.9v-1.9
			c0-0.5-0.4-1-1-1c-0.5,0-1,0.4-1,1v5.8C-101.6-190.6-101.2-190.2-100.6-190.2z M-64.7-188.4h-28.5l28.5,6.9V-188.4z M-107.4-176.7
			v3.9h65.8v-3.9H-107.4z M-54.6-197.2c-0.8,0.8-0.8,2,0,2.7c0.8,0.8,2,0.8,2.7,0c0.8-0.8,0.8-2,0-2.7
			C-52.6-197.9-53.8-197.9-54.6-197.2z M-60.5-205.7c-1.3,0-2.4,0.9-2.4,1.9v25.2c0,0,0,0.1,0,0.1h19.3c0,0,0-0.1,0-0.1v-25.2
			c0-1.1-1.1-1.9-2.4-1.9H-60.5z M-56.1-184.4c-1.1,0-1.9-0.9-1.9-1.9c0-1.1,0.9-1.9,1.9-1.9c1.1,0,1.9,0.9,1.9,1.9
			C-54.2-185.3-55-184.4-56.1-184.4z M-55.9-193c-1.5-1.5-1.5-4,0-5.5c1.3-1.3,3.1-1.5,4.6-0.6l2.2-0.7l-0.7,2.2
			c0.8,1.5,0.6,3.4-0.6,4.6C-52-191.5-54.4-191.5-55.9-193z M-50.3-184.4c-1.1,0-1.9-0.9-1.9-1.9c0-1.1,0.9-1.9,1.9-1.9
			c1.1,0,1.9,0.9,1.9,1.9C-48.4-185.3-49.2-184.4-50.3-184.4z M-93.9-199.8h15.5v-3.9h-15.5V-199.8z"/>
	</g>
</g>
<g id="_x2014_ÎÓÈ_x5F_5" display="none">
	<g display="inline">
		<path fill="#EF4836" d="M125-253.2v83.3c0,11.5-9.3,20.8-20.8,20.8H20.8C9.3-149,0-158.3,0-169.8v-83.3C0-264.7,9.3-274,20.8-274
			h83.3C115.7-274,125-264.7,125-253.2z"/>
		<path opacity="0.3" d="M35.6-243c0.5-0.8,1.9-1.4,3.7-1.4c2.1,0,3.9,0.9,3.9,1.9v7.8l-1.9,1.8H44c1.3,0,2.4,1.1,2.4,2.4v2.7
			l21.2-21.1c0.5-0.8,1.9-1.4,3.7-1.4c2.1,0,3.9,0.9,3.9,1.9v4l-1.9,1.8H77v7.8l-1.8,1.8H79c1.1,0,1.9,0.9,1.9,1.9v3.8l1.8-1.8h8.8
			v7.7L72-201.7h3.1v3.9l-1.8,1.8h11.5v1.6l2-1.9c0.1-0.4,0.5-0.6,0.9-0.6c0.5,0,1,0.4,1,1v5.8c0,0.4-0.3,0.8-0.6,0.9l-12.6,12.7
			h20.1v3.9L71.8-149H20.8C9.3-149,0-158.3,0-169.8v-37.6L35.6-243z"/>
		<path fill="#EEEEEE" d="M65.4-225c0.7,0,1.3,0.4,1.7,1h2.1c-0.4-1.7-1.9-2.9-3.7-2.9c-1.8,0-3.3,1.2-3.7,2.9h2.1
			C64.1-224.7,64.7-225,65.4-225z M57.7-213.4H79c1.1,0,1.9-0.9,1.9-1.9v-15.5c0-1.1-0.9-1.9-1.9-1.9H57.7c-1.1,0-1.9,0.9-1.9,1.9
			v15.5C55.7-214.3,56.6-213.4,57.7-213.4z M75.1-228.9c1.1,0,1.9,0.9,1.9,1.9c0,1.1-0.9,1.9-1.9,1.9c-1.1,0-1.9-0.9-1.9-1.9
			C73.1-228.1,74-228.9,75.1-228.9z M65.4-228.9c3.2,0,5.8,2.6,5.8,5.8c0,3.2-2.6,5.8-5.8,5.8c-3.2,0-5.8-2.6-5.8-5.8
			C59.6-226.3,62.2-228.9,65.4-228.9z M65.4-219.2c1.8,0,3.3-1.2,3.7-2.9h-2.1c-0.3,0.6-1,1-1.7,1c-0.7,0-1.3-0.4-1.7-1h-2.1
			C62.1-220.5,63.6-219.2,65.4-219.2z M75.1-248.3c0-1.1-1.7-1.9-3.9-1.9c-2.1,0-3.9,0.9-3.9,1.9v4h7.7V-248.3z M34.5-211.5H44
			c1.3,0,2.4-1.1,2.4-2.4v-16.6c0-1.3-1.1-2.4-2.4-2.4h-9.5c-1.3,0-2.4,1.1-2.4,2.4v16.6C32.2-212.6,33.2-211.5,34.5-211.5z
			 M39.3-227c1.1,0,1.9,0.9,1.9,1.9c0,1.1-0.9,1.9-1.9,1.9c-1.1,0-1.9-0.9-1.9-1.9C37.3-226.1,38.2-227,39.3-227z M39.3-221.2
			c1.1,0,1.9,0.9,1.9,1.9c0,1.1-0.9,1.9-1.9,1.9c-1.1,0-1.9-0.9-1.9-1.9C37.3-220.3,38.2-221.2,39.3-221.2z M43.1-209.7h-7.7v9.9
			h7.7V-209.7z M43.1-242.5c0-1.1-1.7-1.9-3.9-1.9c-2.1,0-3.9,0.9-3.9,1.9v7.8h7.7V-242.5z M69.3-202.8l1.9-1.9v-2h-3.9v2
			L69.3-202.8z M91.5-228.9h-8.8v8.7l8.8-1V-228.9z M77-242.5H61.5v7.8H77V-242.5z M46.9-180.9l35.9-4.7v-2.8H46.9V-180.9z
			 M53.9-228.9h-5.7v12.6l5.7-0.6V-228.9z M46.9-190.2h37.8v-1.9h1.9v1.9c0,0.5,0.4,1,1,1c0.5,0,1-0.4,1-1v-5.8c0-0.5-0.4-1-1-1
			c-0.5,0-1,0.4-1,1v1.9h-1.9v-1.9H46.8c0.1,0.4,0.1,0.7,0.1,1.1V-190.2z M73.1-211.6h-7.7v3h7.7V-211.6z M33.5-194.9v15.2
			c0,0.4,0.1,0.8,0.2,1.2h11.3c0.1-0.4,0.2-0.8,0.2-1.2v-15.2c0-1.7-0.9-3-1.9-3h-7.7C34.3-198,33.5-196.6,33.5-194.9z M29.6-176.7
			v3.9h65.8v-3.9H29.6z M63.5-197.9h11.6v-3.9H63.5V-197.9z"/>
	</g>
</g>
<g id="_x2014_ÎÓÈ_x5F_6" display="none">
	<g display="inline">
		<path fill="#2FCC58" d="M-286-116.2v83.3c0,11.5-9.3,20.8-20.8,20.8h-83.3c-11.5,0-20.8-9.3-20.8-20.8v-83.3
			c0-11.5,9.3-20.8,20.8-20.8h83.3C-295.3-137-286-127.7-286-116.2z"/>
		<path opacity="0.3" d="M-339.3-12h-50.9c-11.5,0-20.8-9.3-20.8-20.8v-35.3l37.3-37.4h18.9l6.4-6.4c0.5-0.8,1.9-1.4,3.7-1.4
			c2.1,0,3.9,0.9,3.9,1.9v4l-1.8,1.8h1.9v1.9l1.8-1.9h13.6l9.7,38.7v5.9l-1.9,1.8h1.9v23.2L-339.3-12z"/>
		<path fill="#EEEEEE" d="M-362-76.4l1.9-1.9v-2h-3.9v2L-362-76.4z M-340.8-111.3c0-1.1-1.7-1.9-3.9-1.9c-2.1,0-3.9,0.9-3.9,1.9v4
			h7.7V-111.3z M-358.2-88.1h-7.7v5.9h7.7V-88.1z M-325.3-105.5h-13.5v44.6h23.2v-5.9L-325.3-105.5z M-346.6-61v-5.8h-31v1.9h-1.9
			v-1.9c0-0.5-0.4-1-1-1c-0.5,0-1,0.4-1,1v5.8c0,0.5,0.4,1,1,1c0.5,0,1-0.4,1-1v-1.9h1.9v1.9H-346.6z M-367.9-68.6h13.5v-3.9h-13.5
			V-68.6z M-363.4-96.4c-0.5-0.5-0.7-1.2-0.5-1.9l-1.5-1.5c-0.9,1.5-0.7,3.4,0.6,4.7c1.3,1.3,3.2,1.5,4.7,0.6l-1.5-1.5
			C-362.2-95.7-362.9-95.9-363.4-96.4z M-364.8-100.5C-364.8-100.5-364.8-100.5-364.8-100.5L-364.8-100.5
			C-364.8-100.5-364.8-100.5-364.8-100.5z M-364-101.1l1.5,1.5c0.6-0.2,1.4,0,1.9,0.5c0.5,0.5,0.7,1.2,0.5,1.9l1.5,1.5
			c0.9-1.5,0.7-3.4-0.6-4.7C-360.6-101.7-362.5-101.9-364-101.1z M-340.7-105.5h-33V-90h33V-105.5z M-357.9-93.6
			c-2.3,2.3-5.9,2.3-8.2,0c-2.3-2.3-2.3-5.9,0-8.2c2.3-2.3,5.9-2.3,8.2,0C-355.7-99.6-355.7-95.9-357.9-93.6z M-373.7-49.3
			l15.5,13.5h42.6V-59h-58.1V-49.3z M-334-53.2h11.6c0.5,0,1,0.4,1,1c0,0.5-0.4,1-1,1H-334c-0.5,0-1-0.4-1-1
			C-335-52.8-334.5-53.2-334-53.2z M-334-49.3h11.6c0.5,0,1,0.4,1,1c0,0.5-0.4,1-1,1H-334c-0.5,0-1-0.4-1-1
			C-335-48.9-334.5-49.3-334-49.3z M-334-45.5h11.6c0.5,0,1,0.4,1,1c0,0.5-0.4,1-1,1H-334c-0.5,0-1-0.4-1-1
			C-335-45-334.5-45.5-334-45.5z M-360.1-55.1c1.1,0,1.9,0.9,1.9,1.9c0,1.1-0.9,1.9-1.9,1.9c-1.1,0-1.9-0.9-1.9-1.9
			C-362-54.3-361.2-55.1-360.1-55.1z M-365.9-55.1c1.1,0,1.9,0.9,1.9,1.9c0,1.1-0.9,1.9-1.9,1.9c-1.1,0-1.9-0.9-1.9-1.9
			C-367.9-54.3-367-55.1-365.9-55.1z"/>
	</g>
</g>
<g id="_x2014_ÎÓÈ_x5F_7" display="none">
	<g display="inline">
		<path fill="#EF4836" d="M-149-116.2v83.3c0,11.5-9.3,20.8-20.8,20.8h-83.3c-11.5,0-20.8-9.3-20.8-20.8v-83.3
			c0-11.5,9.3-20.8,20.8-20.8h83.3C-158.3-137-149-127.7-149-116.2z"/>
		<path opacity="0.3" d="M-244.3-107.7h56.7l5.7,6.7v2.2l-1.8,1.7v1.8l-1.9,1.8h1.9c1,0,1.8,0.8,1.8,1.8v7.2c0,0.6-0.4,1.2-0.9,1.5
			l-6.3,6.5v0.5l2.4-2.3c0.3-0.5,0.8-0.8,1.3-0.8h12.5c1,0,1.8,1.2,1.8,2.6V-53c0,1.1-0.5,2-1.1,2.4l-2,2h1.3v12.5L-197.2-12h-56
			c-11.5,0-20.8-9.3-20.8-20.8v-45.1L-244.3-107.7z"/>
		<path fill="#EEEEEE" d="M-237.4-57.6h42.9v-3.2h-42.9V-57.6z M-182-84.4v-7.2c0-1-0.8-1.8-1.8-1.8h-7.2c-1,0-1.8,0.8-1.8,1.8v7.2
			c0,1,0.8,1.8,1.8,1.8h7.2C-182.8-82.6-182-83.4-182-84.4z M-248.2-82.6h7.2c1,0,1.8-0.8,1.8-1.8v-7.2c0-1-0.8-1.8-1.8-1.8h-7.2
			c-1,0-1.8,0.8-1.8,1.8v7.2C-250-83.4-249.2-82.6-248.2-82.6z M-217.8-79v5.3h3.6V-79H-217.8z M-223.1-68.3v3.6h14.3v-3.6l-3.6-3.6
			h-7.2L-223.1-68.3z M-248.2-95.2h7.2l0,0v-3.5h50.1v3.5h7.2v-3.5h1.8v-2.2l-5.7-6.7h-56.7l-5.7,6.7v2.2h1.8V-95.2z M-190.9-57.6
			h1.7v-18.8c0-2.2,1.2-3.9,2.9-4.3h-4.6V-57.6z M-248.2-80.8v23.2h7.2v-23.2l0,0H-248.2z M-194.6-91.6h-42.8v7.2h16.1v3.6h10.7
			v-3.6h16.1V-91.6z M-179.2-66.5c-1,0-1.8,0.8-1.8,1.8c0,1,0.8,1.8,1.8,1.8c1,0,1.8-0.8,1.8-1.8C-177.4-65.7-178.2-66.5-179.2-66.5
			z M-173-79.1h-12.5c-1,0-1.8,1.2-1.8,2.6V-53c0,1.4,0.8,2.6,1.8,2.6h12.5c1,0,1.8-1.2,1.8-2.6v-23.4
			C-171.2-77.9-172-79.1-173-79.1z M-182-54c-1,0-1.8-0.8-1.8-1.8c0-1,0.8-1.8,1.8-1.8c1,0,1.8,0.8,1.8,1.8
			C-180.2-54.8-181-54-182-54z M-182.8-64.7c0-1.6,1.1-3,2.6-3.4l1-1.9l1,1.9c1.5,0.4,2.6,1.8,2.6,3.4c0,2-1.6,3.6-3.6,3.6
			C-181.2-61.2-182.8-62.8-182.8-64.7z M-176.6-54c-1,0-1.8-0.8-1.8-1.8c0-1,0.8-1.8,1.8-1.8c1,0,1.8,0.8,1.8,1.8
			C-174.8-54.8-175.6-54-176.6-54z M-174.8-71.9h-8.9v-3.6h8.9V-71.9z M-189.2-53v-2.8h-62.6v19.7h21.5l3.6-8.9h21.5l3.6,8.9h28.6
			v-12.5h-12.5C-187.6-48.6-189.2-50.5-189.2-53z M-234.8-41.5h-10.7c-0.5,0-0.9-0.4-0.9-0.9c0-0.5,0.4-0.9,0.9-0.9h10.7
			c0.5,0,0.9,0.4,0.9,0.9C-233.9-41.9-234.3-41.5-234.8-41.5z M-234.8-45.1h-10.7c-0.5,0-0.9-0.4-0.9-0.9c0-0.5,0.4-0.9,0.9-0.9
			h10.7c0.5,0,0.9,0.4,0.9,0.9C-233.9-45.5-234.3-45.1-234.8-45.1z M-234.8-48.6h-10.7c-0.5,0-0.9-0.4-0.9-0.9
			c0-0.5,0.4-0.9,0.9-0.9h10.7c0.5,0,0.9,0.4,0.9,0.9C-233.9-49-234.3-48.6-234.8-48.6z"/>
	</g>
</g>
<g id="_x2014_ÎÓÈ_x5F_8" display="none">
	<g display="inline">
		<path fill="#10AAC3" d="M-12-116.2v83.3C-12-21.3-21.3-12-32.8-12h-83.3c-11.5,0-20.8-9.3-20.8-20.8v-83.3
			c0-11.5,9.3-20.8,20.8-20.8h83.3C-21.3-137-12-127.7-12-116.2z"/>
		<path opacity="0.3" d="M-106.7-107.7l21.5-1.8h14.3v7.2l-1.8,1.8v5.3l-1.8,1.8v3.5l-1.8,1.8v1.7l-1.8,1.8l-7.2,7.2v3.6l-5.4,5.4h4
			L-76.3-79h1.8v3.6h1.8l0.9,1.8l-1.9,1.8H-62l7.2-7.2h1.7l1.8-1.8h14.3v2.4l1.9-1.8c0.1-0.3,0.4-0.6,0.8-0.6c0.5,0,0.9,0.4,0.9,0.9
			v5.4c0,0.4-0.3,0.7-0.6,0.8l-5.3,5.4h2.3c1,0,1.8,0.8,1.8,1.8v10.7c0,0.6-0.3,1.2-0.9,1.5l-2,2.1h1.1v16.1L-61.1-12h-55.1
			c-11.5,0-20.8-9.3-20.8-20.8v-44.4L-106.7-107.7z"/>
		<path fill="#EEEEEE" d="M-72.7-75.4h-1.8V-79h-1.8v3.6h-1.8l-0.9,1.7h7.1L-72.7-75.4z M-83.4-70.1v14.3c0,1,0.8,1.8,1.8,1.8H-62
			c1,0,1.8-0.8,1.8-1.8v-14.3c0-1-0.8-1.8-1.8-1.8h-19.7C-82.6-71.9-83.4-71.1-83.4-70.1z M-65.6-68.3c1,0,1.8,0.8,1.8,1.8
			c0,1-0.8,1.8-1.8,1.8c-1,0-1.8-0.8-1.8-1.8C-67.3-67.5-66.5-68.3-65.6-68.3z M-74.5-68.3c3,0,5.4,2.4,5.4,5.4c0,3-2.4,5.4-5.4,5.4
			c-3,0-5.4-2.4-5.4-5.4C-79.9-65.9-77.5-68.3-74.5-68.3z M-74.5-61.1c-0.7,0-1.2-0.4-1.5-0.9H-78c0.4,1.5,1.8,2.7,3.5,2.7
			c1.7,0,3.1-1.1,3.5-2.7H-73C-73.3-61.5-73.8-61.1-74.5-61.1z M-74.5-64.7c0.7,0,1.2,0.4,1.5,0.9h1.9c-0.4-1.5-1.8-2.7-3.5-2.7
			c-1.7,0-3.1,1.1-3.5,2.7h1.9C-75.7-64.4-75.2-64.7-74.5-64.7z M-92.3-56.3c0,0.2,0,0.3,0,0.5h7.1v-3.5h-7.1V-56.3z M-85.3-68.3
			h-7.1v1.7h7.1V-68.3z M-47.7-59.3h-10.6v3.5h10.6V-59.3z M-85.3-64.7h-7.1v3.6h7.1V-64.7z M-47.7-64.7h-10.6v3.6h10.6V-64.7z
			 M-44.1-70.1h5.4v-1.7h-10.7v3.5h-8.9v1.7h10.6C-47.7-68.5-46.1-70.1-44.1-70.1z M-85.2-82.6h-3.6v-1.8h-3.6v12.5h3.6v-1.8h3.6
			V-82.6z M-36.9-68.3h-7.2c-1,0-1.8,0.8-1.8,1.8v10.7c0,1,0.8,1.8,1.8,1.8h7.2c1,0,1.8-0.8,1.8-1.8v-10.7
			C-35.1-67.5-35.9-68.3-36.9-68.3z M-34.2-80.8c-0.5,0-0.9,0.4-0.9,0.9v1.8h-1.8v-2.7h-14.3v7.2h14.3v-2.7h1.8v1.8
			c0,0.5,0.4,0.9,0.9,0.9c0.5,0,0.9-0.4,0.9-0.9v-5.4C-33.3-80.4-33.7-80.8-34.2-80.8z M-53.1-75.4V-79h-1.7l-1.8,1.8l1.8,1.8H-53.1
			z M-76.3-86.2v-1.7h-3.6v1.7l1.8,1.8L-76.3-86.2z M-81.7-91.5v1.7h7.2v-3.5h-2.4C-78.2-92.1-79.9-91.5-81.7-91.5z M-90.6-100.4
			v5.3h2.7c-0.6-1.1-1-2.3-1-3.6c0-0.6,0.1-1.2,0.2-1.7H-90.6z M-86.8-103.8c1.4-1.4,3.2-2.1,5.1-2.1c1.9,0,3.7,0.8,5.1,2.1
			c0.5,0.5,0.8,1,1.2,1.5h4.5v-7.2h-14.3l-21.5,1.8v5.4h18.8C-87.6-102.8-87.2-103.3-86.8-103.8z M-72.7-95.1v-5.3h-2
			c0.1,0.6,0.2,1.1,0.2,1.7c0,1.3-0.3,2.5-1,3.6H-72.7z M-97.8-100.4h-9.4l-3.1,12.4h12.5V-100.4z M-77.9-94.9
			c2.1-2.1,2.1-5.5,0-7.6c-2.1-2.1-5.5-2.1-7.6,0c-2.1,2.1-2.1,5.5,0,7.6C-83.4-92.8-80-92.8-77.9-94.9z M-79.1-96.2
			C-79.1-96.2-79.1-96.2-79.1-96.2L-79.1-96.2C-79.1-96.2-79.1-96.2-79.1-96.2z M-79.1-101.2c1.2,1.2,1.4,3,0.5,4.3l-1.4-1.4
			c0.2-0.6,0-1.3-0.5-1.7c-0.5-0.5-1.1-0.6-1.7-0.5l-1.4-1.4C-82.1-102.6-80.3-102.4-79.1-101.2z M-84.7-100.5l1.4,1.4
			c-0.2,0.6,0,1.3,0.5,1.7c0.5,0.5,1.1,0.6,1.7,0.5l1.4,1.4c-1.4,0.8-3.2,0.6-4.3-0.5C-85.4-97.4-85.5-99.1-84.7-100.5z M-94.2-56.3
			v-27.6c0-1.3-0.8-2.3-1.8-2.3h-17.9c-1,0-1.8,1-1.8,2.3v27.6c0,1.3,0.8,2.3,1.8,2.3H-96C-95-54-94.2-55-94.2-56.3z M-108.5-62.9
			c-1,0-1.8-0.8-1.8-1.8c0-1,0.8-1.8,1.8-1.8c1,0,1.8,0.8,1.8,1.8C-106.7-63.7-107.5-62.9-108.5-62.9z M-101.3-62.9
			c-1,0-1.8-0.8-1.8-1.8c0-1,0.8-1.8,1.8-1.8c1,0,1.8,0.8,1.8,1.8C-99.6-63.7-100.4-62.9-101.3-62.9z M-99.6-77.2
			c-0.2,0-0.3,0-0.5-0.1l-1.8,1.8c0.3,0.5,0.5,1.1,0.5,1.8c0,2-1.6,3.6-3.6,3.6c-2,0-3.6-1.6-3.6-3.6c0-2,1.6-3.6,3.6-3.6
			c0.7,0,1.3,0.2,1.8,0.5l1.8-1.8c0-0.1-0.1-0.3-0.1-0.5c0-1,0.8-1.8,1.8-1.8c1,0,1.8,0.8,1.8,1.8C-97.8-78-98.6-77.2-99.6-77.2z
			 M-47.2-53.9h-11.7c-0.6,1.1-1.8,1.8-3.1,1.8h-19.7c-1.3,0-2.5-0.7-3.1-1.8H-93c-0.7,1.1-1.7,1.8-3,1.8h-16.1v16.1h21.5l3.6-10.7
			h34l5.4,10.7h10.7v-16.1h-7.2C-45.4-52.1-46.6-52.9-47.2-53.9z M-95.1-40.5h-10.7c-0.5,0-0.9-0.4-0.9-0.9c0-0.5,0.4-0.9,0.9-0.9
			h10.7c0.5,0,0.9,0.4,0.9,0.9C-94.2-40.9-94.6-40.5-95.1-40.5z M-95.1-44.1h-10.7c-0.5,0-0.9-0.4-0.9-0.9c0-0.5,0.4-0.9,0.9-0.9
			h10.7c0.5,0,0.9,0.4,0.9,0.9C-94.2-44.5-94.6-44.1-95.1-44.1z M-95.1-47.7h-10.7c-0.5,0-0.9-0.4-0.9-0.9c0-0.5,0.4-0.9,0.9-0.9
			h10.7c0.5,0,0.9,0.4,0.9,0.9C-94.2-48.1-94.6-47.7-95.1-47.7z"/>
	</g>
</g>
<g id="_x2014_ÎÓÈ_x5F_9" display="none">
	<g display="inline">
		<path fill="#F39C12" d="M125-116.2v83.3c0,11.5-9.3,20.8-20.8,20.8H20.8C9.3-12,0-21.3,0-32.8v-83.3C0-127.7,9.3-137,20.8-137
			h83.3C115.7-137,125-127.7,125-116.2z"/>
		<path opacity="0.3" d="M37.4-107.7H50V-88l16.1-16.1h12.7l3.5-3.6h8.9l12.5,37.6v12.5l-1.8,1.8v19.7L77.7-12H20.8
			C9.3-12,0-21.3,0-32.8v-37.4L37.4-107.7z"/>
		<path fill="#EEEEEE" d="M57.1-68.4h19.7v-3.6H57.1V-68.4z M80.3-104.1H66.1v7.2h14.3V-104.1z M71.4-84.4l1.8-1.8V-88h-3.6v1.7
			L71.4-84.4z M75-95.1h-7.2v5.3H75V-95.1z M55.3-75.5h3.6v-10.7h-3.6V-88h-3.6v14.3h3.6V-75.5z M29.8-74c0.7-0.7,0.7-1.8,0-2.5
			c-0.7-0.7-1.8-0.7-2.5,0c-0.7,0.7-0.7,1.8,0,2.5C27.9-73.3,29.1-73.3,29.8-74z M50-107.7H37.4L21.3-89.8v34h1.7v-1.8H50V-107.7z
			 M36.7-77.8c1.2-1.2,2.9-1.3,4.3-0.6l2.1-0.7L42.3-77c0.8,1.4,0.6,3.1-0.6,4.3c-1.4,1.4-3.7,1.4-5.1,0
			C35.3-74.1,35.3-76.4,36.7-77.8z M26-77.8c1.2-1.2,2.9-1.3,4.3-0.6l2.1-0.7L31.6-77c0.8,1.4,0.6,3.1-0.6,4.3
			c-1.4,1.4-3.7,1.4-5.1,0C24.6-74.1,24.6-76.4,26-77.8z M33.9-66.5c-0.2,0-0.3,0-0.5-0.1l-1.8,1.8c0.3,0.5,0.5,1.1,0.5,1.8
			c0,2-1.6,3.6-3.6,3.6c-2,0-3.6-1.6-3.6-3.6c0-2,1.6-3.6,3.6-3.6c0.7,0,1.3,0.2,1.8,0.5l1.8-1.8c0-0.1-0.1-0.3-0.1-0.5
			c0-1,0.8-1.8,1.8-1.8c1,0,1.8,0.8,1.8,1.8C35.7-67.3,34.9-66.5,33.9-66.5z M44.6-66.5c-0.2,0-0.3,0-0.5-0.1l-1.8,1.8
			c0.3,0.5,0.5,1.1,0.5,1.8c0,2-1.6,3.6-3.6,3.6c-2,0-3.6-1.6-3.6-3.6c0-2,1.6-3.6,3.6-3.6c0.7,0,1.3,0.2,1.8,0.5l1.8-1.8
			c0-0.1-0.1-0.3-0.1-0.5c0-1,0.8-1.8,1.8-1.8c1,0,1.8,0.8,1.8,1.8C46.4-67.3,45.6-66.5,44.6-66.5z M40.5-74c0.7-0.7,0.7-1.8,0-2.5
			c-0.7-0.7-1.8-0.7-2.5,0c-0.7,0.7-0.7,1.8,0,2.5C38.7-73.3,39.8-73.3,40.5-74z M91.1-107.7h-8.9v41.2H53.6v8.9h50.1v-12.5
			L91.1-107.7z M92.9-64.7c-1,0-1.8-0.8-1.8-1.8c0-1,0.8-1.8,1.8-1.8c1,0,1.8,0.8,1.8,1.8C94.7-65.5,93.9-64.7,92.9-64.7z
			 M92.9-70.1c-1,0-1.8-0.8-1.8-1.8c0-1,0.8-1.8,1.8-1.8c1,0,1.8,0.8,1.8,1.8C94.7-70.9,93.9-70.1,92.9-70.1z M24.9-36.1h18.3
			l3.7-7.2h33l3.7,7.2h18.3v-19.7H24.9V-36.1z M31.2-52.2h10.7c0.5,0,0.9,0.4,0.9,0.9c0,0.5-0.4,0.9-0.9,0.9H31.2
			c-0.5,0-0.9-0.4-0.9-0.9C30.3-51.8,30.7-52.2,31.2-52.2z M31.2-48.6h10.7c0.5,0,0.9,0.4,0.9,0.9c0,0.5-0.4,0.9-0.9,0.9H31.2
			c-0.5,0-0.9-0.4-0.9-0.9C30.3-48.2,30.7-48.6,31.2-48.6z M31.2-45.1h10.7c0.5,0,0.9,0.4,0.9,0.9c0,0.5-0.4,0.9-0.9,0.9H31.2
			c-0.5,0-0.9-0.4-0.9-0.9C30.3-44.7,30.7-45.1,31.2-45.1z"/>
	</g>
</g>
<g id="_x2014_ÎÓÈ_x5F_10" display="none">
	<g display="inline">
		<path fill="#F39C12" d="M-286,20.8v83.3c0,11.5-9.3,20.8-20.8,20.8h-83.3c-11.5,0-20.8-9.3-20.8-20.8V20.8
			C-411,9.3-401.7,0-390.2,0h83.3C-295.3,0-286,9.3-286,20.8z"/>
		<path opacity="0.3" d="M-376.1,34.1c0.5-0.8,1.8-1.3,3.4-1.3c2,0,3.6,0.8,3.6,1.9v3.6l1.8-1.9h8.2l2.8-2.7
			c0.3-0.5,0.8-0.9,1.5-0.9h19.7c1,0,1.8,0.8,1.8,1.8v3.7l1.8-1.9h10.4l2.3-2.3c0.5-0.8,1.8-1.3,3.4-1.3c2,0,3.6,0.8,3.6,1.9v44.6
			l-1.9,1.8h5.5v19.7l-24,24.2h-57.9c-11.5,0-20.8-9.3-20.8-20.8V69.1L-376.1,34.1z"/>
		<path fill="#EEEEEE" d="M-370.8,60.5v18.8h1.7V34.7c0-1-1.6-1.9-3.6-1.9c-2,0-3.6,0.8-3.6,1.9v21.4h1.8
			C-372.4,56.1-370.8,58-370.8,60.5z M-365.5,79.3h42.9v-3.2h-42.9V79.3z M-311.8,34.7c0-1-1.6-1.9-3.6-1.9c-2,0-3.6,0.8-3.6,1.9
			v44.6h7.2V34.7z M-320.8,36.4h-10.6v10.7h10.6V36.4z M-358.4,36.4h-8.8v10.7h8.8V36.4z M-354.8,50.7h19.7c1,0,1.8-0.8,1.8-1.8
			V34.6c0-1-0.8-1.8-1.8-1.8h-19.7c-1,0-1.8,0.8-1.8,1.8v14.3C-356.6,49.9-355.7,50.7-354.8,50.7z M-338.7,36.4c1,0,1.8,0.8,1.8,1.8
			c0,1-0.8,1.8-1.8,1.8c-1,0-1.8-0.8-1.8-1.8C-340.4,37.2-339.7,36.4-338.7,36.4z M-347.6,36.4c3,0,5.4,2.4,5.4,5.4
			c0,3-2.4,5.4-5.4,5.4c-3,0-5.4-2.4-5.4-5.4C-353,38.8-350.6,36.4-347.6,36.4z M-347.6,40c0.7,0,1.2,0.4,1.5,0.9h1.9
			c-0.4-1.5-1.8-2.7-3.5-2.7c-1.7,0-3.1,1.1-3.5,2.7h1.9C-348.8,40.4-348.3,40-347.6,40z M-347.6,45.4c1.7,0,3.1-1.1,3.5-2.7h-1.9
			c-0.3,0.5-0.9,0.9-1.5,0.9c-0.7,0-1.2-0.4-1.5-0.9h-1.9C-350.7,44.2-349.3,45.4-347.6,45.4z M-344,63.2l1.8-1.8v-1.7h-3.6v1.7
			L-344,63.2z M-340.4,52.6h-7.2v5.3h7.2V52.6z M-372.7,83.9V60.5c0-1.4-0.8-2.6-1.8-2.6H-387c-1,0-1.8,1.2-1.8,2.6v23.4
			c0,1.4,0.8,2.6,1.8,2.6h12.5C-373.5,86.5-372.7,85.4-372.7,83.9z M-383.4,82.9c-1,0-1.8-0.8-1.8-1.8c0-1,0.8-1.8,1.8-1.8
			c1,0,1.8,0.8,1.8,1.8C-381.6,82.1-382.4,82.9-383.4,82.9z M-383.4,77.6c-1,0-1.8-0.8-1.8-1.8c0-1,0.8-1.8,1.8-1.8
			c1,0,1.8,0.8,1.8,1.8C-381.6,76.8-382.4,77.6-383.4,77.6z M-383.4,72.2c-1,0-1.8-0.8-1.8-1.8c0-1,0.8-1.8,1.8-1.8
			c1,0,1.8,0.8,1.8,1.8C-381.6,71.4-382.4,72.2-383.4,72.2z M-378,82.9c-1,0-1.8-0.8-1.8-1.8c0-1,0.8-1.8,1.8-1.8
			c1,0,1.8,0.8,1.8,1.8C-376.2,82.1-377,82.9-378,82.9z M-378,77.6c-1,0-1.8-0.8-1.8-1.8c0-1,0.8-1.8,1.8-1.8c1,0,1.8,0.8,1.8,1.8
			C-376.2,76.8-377,77.6-378,77.6z M-378,72.2c-1,0-1.8-0.8-1.8-1.8c0-1,0.8-1.8,1.8-1.8c1,0,1.8,0.8,1.8,1.8
			C-376.2,71.4-377,72.2-378,72.2z M-376.2,65.1h-8.9v-3.6h8.9V65.1z M-370.8,81.2v2.8c0,2.5-1.6,4.4-3.6,4.4h-5.4v12.5h21.5
			l3.6-8.9h21.5l3.6,8.9h21.5V81.2H-370.8z M-314.5,95.5h-10.7c-0.5,0-0.9-0.4-0.9-0.9c0-0.5,0.4-0.9,0.9-0.9h10.7
			c0.5,0,0.9,0.4,0.9,0.9C-313.6,95.1-314,95.5-314.5,95.5z M-314.5,91.9h-10.7c-0.5,0-0.9-0.4-0.9-0.9c0-0.5,0.4-0.9,0.9-0.9h10.7
			c0.5,0,0.9,0.4,0.9,0.9C-313.6,91.5-314,91.9-314.5,91.9z M-314.5,88.3h-10.7c-0.5,0-0.9-0.4-0.9-0.9c0-0.5,0.4-0.9,0.9-0.9h10.7
			c0.5,0,0.9,0.4,0.9,0.9C-313.6,87.9-314,88.3-314.5,88.3z"/>
	</g>
</g>
<g id="_x2014_ÎÓÈ_x5F_11" display="none">
	<g display="inline">
		<path fill="#10AAC3" d="M-149,20.8v83.3c0,11.5-9.3,20.8-20.8,20.8h-83.3c-11.5,0-20.8-9.3-20.8-20.8V20.8
			C-274,9.3-264.7,0-253.2,0h83.3C-158.3,0-149,9.3-149,20.8z"/>
		<path opacity="0.3" d="M-194.4,125h-58.7c-11.5,0-20.8-9.3-20.8-20.8V57l19.8-19.8c0.3-0.5,0.9-0.9,1.5-0.9h23.3
			c1,0,1.8,0.8,1.8,1.8V40l1.8-1.8h55.4c1,0,1.8,0.8,1.8,1.8v23.3l-1.9,1.8h1.9v12.5c0,0.6-0.4,1.2-0.9,1.5l-2.1,2.1h1.1v19.6
			L-194.4,125z"/>
		<path fill="#EEEEEE" d="M-170.3,38.2h-55.4v25h57.2V39.9C-168.6,39-169.4,38.2-170.3,38.2z M-222.2,53.4c0,0.5-0.4,0.9-0.9,0.9
			c-0.5,0-0.9-0.4-0.9-0.9V48c0-0.5,0.4-0.9,0.9-0.9c0.5,0,0.9,0.4,0.9,0.9V53.4z M-177.5,54.3c0,1-0.8,1.8-1.8,1.8h-37.6
			c-1,0-1.8-0.8-1.8-1.8v-8.9c0-1,0.8-1.8,1.8-1.8h37.6c1,0,1.8,0.8,1.8,1.8V54.3z M-172.1,53.4c0,0.5-0.4,0.9-0.9,0.9
			c-0.5,0-0.9-0.4-0.9-0.9V48c0-0.5,0.4-0.9,0.9-0.9c0.5,0,0.9,0.4,0.9,0.9V53.4z M-225.8,77.5c0,0.6-0.2,1.2-0.5,1.7
			c0.1,0,0.3,0.1,0.4,0.1h55.5c1,0,1.8-0.8,1.8-1.8V65h-57.2V77.5z M-248.5,69.3c-0.7,0.7-0.7,1.8,0,2.5c0.7,0.7,1.8,0.7,2.5,0
			c0.7-0.7,0.7-1.8,0-2.5C-246.7,68.6-247.9,68.6-248.5,69.3z M-237.8,69.3c-0.7,0.7-0.7,1.8,0,2.5c0.7,0.7,1.8,0.7,2.5,0
			c0.7-0.7,0.7-1.8,0-2.5C-236,68.6-237.1,68.6-237.8,69.3z M-227.6,77.5V38.2c0-1-0.8-1.8-1.8-1.8h-23.3c-1,0-1.8,0.8-1.8,1.8v39.4
			c0,1,0.8,1.8,1.8,1.8h23.3C-228.4,79.3-227.6,78.5-227.6,77.5z M-249.1,41.7h16.1v5.4h-16.1V41.7z M-236.5,54.3
			c-1,0-1.8-0.8-1.8-1.8c0-1,0.8-1.8,1.8-1.8c1,0,1.8,0.8,1.8,1.8C-234.8,53.5-235.6,54.3-236.5,54.3z M-234.8,57.8
			c0,1-0.8,1.8-1.8,1.8c-1,0-1.8-0.8-1.8-1.8c0-1,0.8-1.8,1.8-1.8C-235.6,56.1-234.8,56.9-234.8,57.8z M-247.3,50.7
			c1,0,1.8,0.8,1.8,1.8c0,1-0.8,1.8-1.8,1.8c-1,0-1.8-0.8-1.8-1.8C-249.1,51.5-248.3,50.7-247.3,50.7z M-247.3,56.1
			c1,0,1.8,0.8,1.8,1.8c0,1-0.8,1.8-1.8,1.8c-1,0-1.8-0.8-1.8-1.8C-249.1,56.9-248.3,56.1-247.3,56.1z M-244.8,73.1
			c-1.4,1.4-3.7,1.4-5.1,0c-1.4-1.4-1.4-3.7,0-5.1c1.2-1.2,2.9-1.3,4.3-0.6l2.1-0.7l-0.7,2.1C-243.4,70.2-243.6,72-244.8,73.1z
			 M-241.9,59.6c-1,0-1.8-0.8-1.8-1.8c0-1,0.8-1.8,1.8-1.8c1,0,1.8,0.8,1.8,1.8C-240.1,58.8-240.9,59.6-241.9,59.6z M-241.9,54.3
			c-1,0-1.8-0.8-1.8-1.8c0-1,0.8-1.8,1.8-1.8c1,0,1.8,0.8,1.8,1.8C-240.1,53.5-240.9,54.3-241.9,54.3z M-234,73.1
			c-1.4,1.4-3.7,1.4-5.1,0c-1.4-1.4-1.4-3.7,0-5.1c1.2-1.2,2.9-1.3,4.3-0.6l2.1-0.7l-0.7,2.1C-232.7,70.2-232.9,72-234,73.1z
			 M-226.7,81.1l-1.2-0.3c-0.5,0.2-1,0.4-1.6,0.4h-21.5v19.6h23.3l3.6-8.9h35.8l3.6,8.9h14.3V81.2h-55.5
			C-226.1,81.2-226.4,81.1-226.7,81.1z M-233.9,92.8h-10.7c-0.5,0-0.9-0.4-0.9-0.9c0-0.5,0.4-0.9,0.9-0.9h10.7
			c0.5,0,0.9,0.4,0.9,0.9C-233,92.4-233.4,92.8-233.9,92.8z M-233.9,89.2h-10.7c-0.5,0-0.9-0.4-0.9-0.9c0-0.5,0.4-0.9,0.9-0.9h10.7
			c0.5,0,0.9,0.4,0.9,0.9C-233,88.8-233.4,89.2-233.9,89.2z M-233.9,85.6h-10.7c-0.5,0-0.9-0.4-0.9-0.9c0-0.5,0.4-0.9,0.9-0.9h10.7
			c0.5,0,0.9,0.4,0.9,0.9C-233,85.2-233.4,85.6-233.9,85.6z"/>
	</g>
</g>
<g id="_x2014_ÎÓÈ_x5F_12" display="none">
	<g display="inline">
		<path fill="#EF4836" d="M-12,20.8v83.3c0,11.5-9.3,20.8-20.8,20.8h-83.3c-11.5,0-20.8-9.3-20.8-20.8V20.8
			C-137,9.3-127.7,0-116.2,0h83.3C-21.3,0-12,9.3-12,20.8z"/>
		<path opacity="0.3" d="M-58.4,125h-57.8c-11.5,0-20.8-9.3-20.8-20.8v-48l19-19c0.3-0.5,0.9-0.9,1.5-0.9h23.2v1.1l2.1-2.1
			c0.3-0.5,0.9-0.9,1.5-0.9h39.4c1,0,1.8,0.8,1.8,1.8v1.9l1.8-1.9h14.3c1,0,1.8,0.8,1.8,1.8v39.4c0,0.6-0.4,1.2-0.9,1.5l-2.7,2.8v19
			L-58.4,125z"/>
		<path fill="#EEEEEE" d="M-89.7,81.1h39.4c1,0,1.8-0.8,1.8-1.8V36.4c0-1-0.8-1.8-1.8-1.8h-39.4c-1,0-1.8,0.8-1.8,1.8v42.9
			C-91.5,80.3-90.7,81.1-89.7,81.1z M-53.9,73.1c0,0.5-0.4,0.9-0.9,0.9c-0.5,0-0.9-0.4-0.9-0.9v-5.4c0-0.5,0.4-0.9,0.9-0.9
			c0.5,0,0.9,0.4,0.9,0.9V73.1z M-86.1,43.6c0-1,0.8-1.8,1.8-1.8h28.6c1,0,1.8,0.8,1.8,1.8v14.3c0,1-0.8,1.8-1.8,1.8h-28.6
			c-1,0-1.8-0.8-1.8-1.8V43.6z M-86.1,67.7c0-0.5,0.4-0.9,0.9-0.9c0.5,0,0.9,0.4,0.9,0.9v5.4c0,0.5-0.4,0.9-0.9,0.9
			c-0.5,0-0.9-0.4-0.9-0.9V67.7z M-112.4,70.9c-0.7,0.7-0.7,1.8,0,2.5c0.7,0.7,1.8,0.7,2.5,0c0.7-0.7,0.7-1.8,0-2.5
			C-110.6,70.2-111.7,70.2-112.4,70.9z M-93.3,36.4h-23.2c-1,0-1.8,0.8-1.8,1.8v39.4c0,1,0.8,1.8,1.8,1.8h23.2V36.4z M-113,41.8
			h14.3v5.4H-113V41.8z M-100.4,61.4c1,0,1.8,0.8,1.8,1.8s-0.8,1.8-1.8,1.8c-1,0-1.8-0.8-1.8-1.8S-101.4,61.4-100.4,61.4z
			 M-102.2,57.9c0-1,0.8-1.8,1.8-1.8c1,0,1.8,0.8,1.8,1.8c0,1-0.8,1.8-1.8,1.8C-101.4,59.7-102.2,58.9-102.2,57.9z M-100.4,54.3
			c-1,0-1.8-0.8-1.8-1.8c0-1,0.8-1.8,1.8-1.8c1,0,1.8,0.8,1.8,1.8C-98.7,53.5-99.5,54.3-100.4,54.3z M-105.8,54.3
			c-1,0-1.8-0.8-1.8-1.8c0-1,0.8-1.8,1.8-1.8c1,0,1.8,0.8,1.8,1.8C-104,53.5-104.8,54.3-105.8,54.3z M-104,57.9c0,1-0.8,1.8-1.8,1.8
			c-1,0-1.8-0.8-1.8-1.8c0-1,0.8-1.8,1.8-1.8C-104.8,56.1-104,56.9-104,57.9z M-109.4,52.5c0,1-0.8,1.8-1.8,1.8
			c-1,0-1.8-0.8-1.8-1.8c0-1,0.8-1.8,1.8-1.8C-110.2,50.7-109.4,51.5-109.4,52.5z M-111.2,56.1c1,0,1.8,0.8,1.8,1.8
			c0,1-0.8,1.8-1.8,1.8c-1,0-1.8-0.8-1.8-1.8C-113,56.9-112.2,56.1-111.2,56.1z M-109.4,63.2c0,1-0.8,1.8-1.8,1.8
			c-1,0-1.8-0.8-1.8-1.8s0.8-1.8,1.8-1.8C-110.2,61.4-109.4,62.2-109.4,63.2z M-108.7,74.7c-1.4,1.4-3.7,1.4-5.1,0
			c-1.4-1.4-1.4-3.7,0-5.1c1.2-1.2,2.9-1.3,4.3-0.6l2.1-0.7l-0.7,2.1C-107.3,71.8-107.5,73.6-108.7,74.7z M-105.8,65
			c-1,0-1.8-0.8-1.8-1.8s0.8-1.8,1.8-1.8c1,0,1.8,0.8,1.8,1.8S-104.8,65-105.8,65z M-97.9,74.7c-1.4,1.4-3.7,1.4-5.1,0
			c-1.4-1.4-1.4-3.7,0-5.1c1.2-1.2,2.9-1.3,4.3-0.6l2.1-0.7l-0.7,2.1C-96.6,71.8-96.8,73.6-97.9,74.7z M-32.5,36.4h-14.3v42.9h14.3
			c1,0,1.8-0.8,1.8-1.8V38.2C-30.7,37.2-31.5,36.4-32.5,36.4z M-101.7,70.9c-0.7,0.7-0.7,1.8,0,2.5c0.7,0.7,1.8,0.7,2.5,0
			c0.7-0.7,0.7-1.8,0-2.5C-99.9,70.2-101,70.2-101.7,70.9z M-50.3,83h-39.4c-1.3,0-2.5-0.7-3.1-1.8h-21.9v19.6h23.3l3.6-8.9h35.8
			l3.6,8.9h14.3V81.2h-13C-47.9,82.2-49,83-50.3,83z M-97.8,92.8h-10.7c-0.5,0-0.9-0.4-0.9-0.9c0-0.5,0.4-0.9,0.9-0.9h10.7
			c0.5,0,0.9,0.4,0.9,0.9C-96.9,92.4-97.3,92.8-97.8,92.8z M-97.8,89.2h-10.7c-0.5,0-0.9-0.4-0.9-0.9c0-0.5,0.4-0.9,0.9-0.9h10.7
			c0.5,0,0.9,0.4,0.9,0.9C-96.9,88.8-97.3,89.2-97.8,89.2z M-97.8,85.6h-10.7c-0.5,0-0.9-0.4-0.9-0.9c0-0.5,0.4-0.9,0.9-0.9h10.7
			c0.5,0,0.9,0.4,0.9,0.9C-96.9,85.2-97.3,85.6-97.8,85.6z"/>
	</g>
</g>
<g id="_x2014_ÎÓÈ_x5F_13">
	<g>
		<path fill="#2FCC58" d="M125,20.8v83.3c0,11.5-9.3,20.8-20.8,20.8H20.8C9.3,125,0,115.7,0,104.2V20.8C0,9.3,9.3,0,20.8,0h83.3
			C115.7,0,125,9.3,125,20.8z"/>
		<path opacity="0.3" d="M18.1,37.2c0.3-0.5,0.9-0.9,1.5-0.9H50c1,0,1.8,0.8,1.8,1.8v7.3l1.8-1.9h3.6v1.8h3.6v10.7L50,66.8v1.3
			l3.1-3.1h2.7l13.8-14.3h1.8v3.6h1.8l1.3,5.3l-1.9,1.8h0.6l12.5-12.5h1.7V49l1.8-1.9h14.3v2.4l1.8-1.8c0.1-0.3,0.4-0.6,0.8-0.6
			c0.5,0,0.9,0.4,0.9,0.9v5.4c0,0.4-0.3,0.7-0.6,0.8l-5.3,5.4h2.4v4l-1.4,1.4c0.8,0.2,1.4,0.9,1.4,1.7v10.7c0,0.6-0.4,1.2-0.9,1.5
			l-2.7,2.8v19L75.8,125h-55C9.3,125,0,115.7,0,104.2V55.2L18.1,37.2z"/>
		<path fill="#EEEEEE" d="M94.7,77.6h-7.1c0,2-1.6,3.6-3.6,3.6H64.3c-2,0-3.6-1.6-3.6-3.6l-35.7,0v23.2h21.5L50,90h34l5.4,10.7h10.7
			V81.2h-1.8C96.3,81.2,94.7,79.6,94.7,77.6z M41.9,90H31.2c-0.5,0-0.9-0.4-0.9-0.9c0-0.5,0.4-0.9,0.9-0.9h10.7
			c0.5,0,0.9,0.4,0.9,0.9C42.8,89.6,42.4,90,41.9,90z M41.9,86.5H31.2c-0.5,0-0.9-0.4-0.9-0.9c0-0.5,0.4-0.9,0.9-0.9h10.7
			c0.5,0,0.9,0.4,0.9,0.9C42.8,86.1,42.4,86.5,41.9,86.5z M41.9,82.9H31.2c-0.5,0-0.9-0.4-0.9-0.9c0-0.5,0.4-0.9,0.9-0.9h10.7
			c0.5,0,0.9,0.4,0.9,0.9C42.8,82.5,42.4,82.9,41.9,82.9z M101.9,65h-3.6c-1,0-1.8,0.8-1.8,1.8v10.7c0,1,0.8,1.8,1.8,1.8h3.6
			c1,0,1.8-0.8,1.8-1.8V66.8C103.7,65.8,102.8,65,101.9,65z M50,73.9v-7.2c0-1-0.8-1.8-1.8-1.8H50c1,0,1.8-0.8,1.8-1.8v-25
			c0-1-0.8-1.8-1.8-1.8H19.6c-1,0-1.8,0.8-1.8,1.8v25c0,1,0.8,1.8,1.8,1.8h3.6c-1,0-1.8,0.8-1.8,1.8v7.2c0,1,0.8,1.8,1.8,1.8h25.1
			C49.2,75.7,50,74.9,50,73.9z M30.3,61.4c-1,0-1.8-0.8-1.8-1.8c0-1,0.8-1.8,1.8-1.8c1,0,1.8,0.8,1.8,1.8
			C32.1,60.6,31.3,61.4,30.3,61.4z M32.1,48.9c0,2-1.6,3.6-3.6,3.6c-2,0-3.6-1.6-3.6-3.6c0-2,1.6-3.6,3.6-3.6c0.7,0,1.3,0.2,1.8,0.5
			l1.8-1.8c0-0.1-0.1-0.3-0.1-0.5c0-1,0.8-1.8,1.8-1.8c1,0,1.8,0.8,1.8,1.8c0,1-0.8,1.8-1.8,1.8c-0.2,0-0.3,0-0.5-0.1l-1.8,1.8
			C31.9,47.6,32.1,48.2,32.1,48.9z M35.7,72.2c-1,0-1.8-0.8-1.8-1.8c0-1,0.8-1.8,1.8-1.8c1,0,1.8,0.8,1.8,1.8
			C37.4,71.4,36.6,72.2,35.7,72.2z M37.4,61.4c-1,0-1.8-0.8-1.8-1.8c0-1,0.8-1.8,1.8-1.8c1,0,1.8,0.8,1.8,1.8
			C39.2,60.6,38.4,61.4,37.4,61.4z M42.8,72.2c-1,0-1.8-0.8-1.8-1.8c0-1,0.8-1.8,1.8-1.8c1,0,1.8,0.8,1.8,1.8
			C44.6,71.4,43.8,72.2,42.8,72.2z M44.6,61.4c-1,0-1.8-0.8-1.8-1.8c0-1,0.8-1.8,1.8-1.8c1,0,1.8,0.8,1.8,1.8
			C46.4,60.6,45.6,61.4,44.6,61.4z M46.4,45.3c-0.2,0-0.3,0-0.5-0.1l-1.8,1.8c0.3,0.5,0.5,1.1,0.5,1.8c0,2-1.6,3.6-3.6,3.6
			c-2,0-3.6-1.6-3.6-3.6c0-2,1.6-3.6,3.6-3.6c0.7,0,1.3,0.2,1.8,0.5l1.8-1.8c0-0.1-0.1-0.3-0.1-0.5c0-1,0.8-1.8,1.8-1.8
			c1,0,1.8,0.8,1.8,1.8C48.2,44.5,47.4,45.3,46.4,45.3z M57.1,56.1h3.6V45.3h-3.6v-1.8h-3.6v14.3h3.6V56.1z M73.2,54.3h-1.8v-3.6
			h-1.8v3.6h-1.8l-1.3,5.3h8L73.2,54.3z M71.4,68.6c0.7,0,1.2,0.4,1.5,0.9h1.9c-0.4-1.5-1.8-2.7-3.5-2.7c-1.7,0-3.1,1.1-3.5,2.7h1.9
			C70.2,68.9,70.8,68.6,71.4,68.6z M64.3,79.3H84c1,0,1.8-0.8,1.8-1.8V63.2c0-1-0.8-1.8-1.8-1.8H64.3c-1,0-1.8,0.8-1.8,1.8v14.3
			C62.5,78.5,63.3,79.3,64.3,79.3z M80.4,65c1,0,1.8,0.8,1.8,1.8c0,1-0.8,1.8-1.8,1.8c-1,0-1.8-0.8-1.8-1.8
			C78.6,65.8,79.4,65,80.4,65z M71.4,65c3,0,5.4,2.4,5.4,5.4c0,3-2.4,5.4-5.4,5.4c-3,0-5.4-2.4-5.4-5.4C66.1,67.4,68.5,65,71.4,65z
			 M71.4,72.2c-0.7,0-1.2-0.4-1.5-0.9H68c0.4,1.5,1.8,2.7,3.5,2.7c1.7,0,3.1-1.1,3.5-2.7H73C72.7,71.8,72.1,72.2,71.4,72.2z
			 M60.7,66.7V65h-7.5c-0.3,0.6-0.8,1-1.3,1.4c0,0.1,0,0.3,0,0.4H60.7z M89.3,65h-1.7v1.7h7.1c0-2,1.6-3.6,3.6-3.6h3.6
			c0.7,0,1.3,0.2,1.8,0.5v-4H89.3V65z M94.7,68.6h-7.1v3.6h7.1V68.6z M94.7,74h-7.1v1.7h7.1V74z M60.7,68.6h-8.8v3.6h8.8V68.6z
			 M51.3,75.7h9.3V74h-8.8C51.8,74.6,51.6,75.2,51.3,75.7z M106.3,47.1c-0.5,0-0.9,0.4-0.9,0.9v1.8h-1.8v-2.7H89.3v7.2h1.8v3.5h10.7
			v-3.5h1.8v-2.7h1.8v1.8c0,0.5,0.4,0.9,0.9,0.9c0.5,0,0.9-0.4,0.9-0.9v-1.8v-1.8V48C107.2,47.5,106.8,47.1,106.3,47.1z M87.5,52.5
			v-3.6h-1.7L84,50.7l1.8,1.8H87.5z"/>
	</g>
</g>
</svg>
