<?xml version="1.0" encoding="utf-8"?>
<!-- Generator: Adobe Illustrator 18.0.0, SVG Export Plug-In . SVG Version: 6.00 Build 0)  -->
<!DOCTYPE svg PUBLIC "-//W3C//DTD SVG 1.1//EN" "http://www.w3.org/Graphics/SVG/1.1/DTD/svg11.dtd">
<svg version="1.1" xmlns="http://www.w3.org/2000/svg" xmlns:xlink="http://www.w3.org/1999/xlink" x="0px" y="0px"
	 viewBox="0 0 89.5 64.4" enable-background="new 0 0 89.5 64.4" xml:space="preserve">
<g id="_x2014_ÎÓÈ_x5F_1" display="none">
	<rect x="-446.3" y="-336" display="inline" fill="#22313F" width="570" height="450"/>
</g>
<g id="_x2014_ÎÓÈ_x5F_2" display="none">
	<g display="inline">
		<path fill="#10AAC3" d="M-303.8-289.5v83.3c0,11.5-9.3,20.8-20.8,20.8h-83.3c-11.5,0-20.8-9.3-20.8-20.8v-83.3
			c0-11.5,9.3-20.8,20.8-20.8h83.3C-313.1-310.4-303.8-301-303.8-289.5z"/>
		<path opacity="0.3" d="M-372.8-285.2c0.5-0.8,1.9-1.4,3.7-1.4c2.1,0,3.9,0.9,3.9,1.9v4l-1.9,1.8h3.8v4l-1.9,1.8h7.7
			c1.1,0,1.9,0.9,1.9,1.9v5.2l2.2-2.1c0.2-0.4,0.4-0.6,0.7-0.6c0.5,0,1,0.8,1,1.8v10.8c0,0.9-0.4,1.6-0.8,1.7l-8,8.1v8.1l-1.9,1.8
			h8.1l3-3c0.3-0.5,0.9-0.9,1.6-0.9h5.8c1.1,0,1.9,0.9,1.9,1.9v13.6c0,0.7-0.4,1.2-0.9,1.6l-9.9,10h5v3.9l-23.7,23.8h-36.4
			c-11.5,0-20.8-9.3-20.8-20.8v-23.1L-372.8-285.2z"/>
		<path fill="#EEEEEE" d="M-373.8-262c0.8-0.8,0.8-2,0-2.7c-0.8-0.8-2-0.8-2.7,0c-0.8,0.8-0.8,2,0,2.7
			C-375.8-261.2-374.6-261.2-373.8-262z M-380.8-253.7h23.2c1.1,0,1.9-0.9,1.9-1.9v-4.8h1.9v4.4c0,1,0.4,1.8,1,1.8
			c0.5,0,1-0.8,1-1.8v-10.8c0-1-0.4-1.8-1-1.8c-0.5,0-1,0.8-1,1.8v4.4h-1.9v-8.7c0-1.1-0.9-1.9-1.9-1.9h-23.2
			c-1.1,0-1.9,0.9-1.9,1.9v15.5C-382.7-254.5-381.8-253.7-380.8-253.7z M-366.3-266.1c1.3-1.3,3.1-1.4,4.6-0.6l2.2-0.7l-0.7,2.2
			c0.8,1.5,0.6,3.4-0.6,4.6c-1.5,1.5-4,1.5-5.5,0C-367.8-262.1-367.8-264.6-366.3-266.1z M-377.9-266.1c1.3-1.3,3.1-1.4,4.6-0.6
			l2.2-0.7l-0.7,2.2c0.8,1.5,0.6,3.4-0.6,4.6c-1.5,1.5-4,1.5-5.5,0C-379.5-262.1-379.5-264.6-377.9-266.1z M-362.2-262
			c0.8-0.8,0.8-2,0-2.7c-0.8-0.8-2-0.8-2.7,0c-0.8,0.8-0.8,2,0,2.7C-364.2-261.2-363-261.2-362.2-262z M-363.4-220.8l7.8-7.8h-27.3
			l7.8,7.8H-363.4z M-365.3-284.6c0-1.1-1.7-1.9-3.9-1.9c-2.1,0-3.9,0.9-3.9,1.9v4h7.7V-284.6z M-375-238.1v-13.7h-2.8v13.7H-375z
			 M-360.6-238.1v-13.7h-2.8v13.7H-360.6z M-363.4-278.8H-375v4h11.6V-278.8z M-363.4-218.9H-375v5.9h-15.5v3.9h42.6v-3.9h-15.5
			V-218.9z M-365.3-251.8h-7.7v4h7.7V-251.8z M-344-240.1h-5.8c-1.1,0-1.9,0.9-1.9,1.9v13.6c0,1.1,0.9,1.9,1.9,1.9h5.8
			c1.1,0,1.9-0.9,1.9-1.9v-13.6C-342.1-239.3-342.9-240.1-344-240.1z M-346.9-226.6c-1.1,0-1.9-0.9-1.9-1.9c0-1.1,0.9-1.9,1.9-1.9
			c1.1,0,1.9,0.9,1.9,1.9C-345-227.4-345.8-226.6-346.9-226.6z M-346.9-232.4c-1.1,0-1.9-0.9-1.9-1.9c0-1.1,0.9-1.9,1.9-1.9
			c1.1,0,1.9,0.9,1.9,1.9C-345-233.3-345.8-232.4-346.9-232.4z M-369.2-242.1l1.9-1.9v-2h-3.9v2L-369.2-242.1z M-353.6-236.3h-34.9
			v5.8h34.9V-236.3z"/>
	</g>
</g>
<g id="_x2014_ÎÓÈ_x5F_3" display="none">
	<g display="inline">
		<path fill="#F39C12" d="M-166.8-289.5v83.3c0,11.5-9.3,20.8-20.8,20.8h-83.3c-11.5,0-20.8-9.3-20.8-20.8v-83.3
			c0-11.5,9.3-20.8,20.8-20.8h83.3C-176.1-310.4-166.8-301-166.8-289.5z"/>
		<path opacity="0.3" d="M-243.8-283.7c1.8-2.2,6.6-3.2,14.5-3.2c10.2,0,15.3,1.8,15.3,5.3v29.1l-1.9,1.8h13.8v4.2l-6.3,6.2v29.7
			c0,0.6-0.3,1.1-0.8,1.4l-23.8,23.8h-38c-11.5,0-20.8-9.3-20.8-20.8v-29.5L-243.8-283.7z"/>
		<path fill="#EEEEEE" d="M-241.8-281.6c0-1.4,5.6-2.6,12.6-2.6c6.9,0,12.6,1.2,12.6,2.6v29.1h2.8v-29.1c0-3.5-5.2-5.3-15.3-5.3
			c-10.2,0-15.3,1.8-15.3,5.3v29.1h2.8V-281.6z M-256.5-250.7v4.2h54.4v-4.2H-256.5z M-223-267.2h-3.1c0,1.7-1.4,3.1-3.1,3.1
			s-3.1-1.4-3.1-3.1h-3.1c0,3.5,2.8,6.3,6.3,6.3C-225.8-260.9-223-263.7-223-267.2z M-229.3-277.4c-4.6,0-8.4,3.8-8.4,8.4h16.7
			C-220.9-273.6-224.6-277.4-229.3-277.4z M-237.6-252.5h16.7v-4.2h-16.7V-252.5z M-239.1-232.5c-0.5-0.5-0.7-1.3-0.5-2l-1.6-1.6
			c-0.9,1.6-0.7,3.7,0.6,5.1c1.4,1.4,3.5,1.6,5.1,0.6l-1.6-1.6C-237.8-231.7-238.6-231.9-239.1-232.5z M-210.4-244.4h-37.7
			c-1.2,0-2.1,0.8-2.1,1.8v32c0,1,0.9,1.8,2.1,1.8h37.7c1.1,0,2.1-0.8,2.1-1.8v-32C-208.3-243.6-209.3-244.4-210.4-244.4z
			 M-239.7-219.3c-1.2,0-2.1-0.9-2.1-2.1c0-1.2,0.9-2.1,2.1-2.1c1.2,0,2.1,0.9,2.1,2.1C-237.6-220.2-238.6-219.3-239.7-219.3z
			 M-233.5-219.3c-1.2,0-2.1-0.9-2.1-2.1c0-1.2,0.9-2.1,2.1-2.1c1.2,0,2.1,0.9,2.1,2.1C-231.4-220.2-232.3-219.3-233.5-219.3z
			 M-233.2-229.5c-2.4,2.5-6.4,2.5-8.9,0c-2.5-2.5-2.5-6.4,0-8.9c2.5-2.5,6.4-2.5,8.9,0C-230.7-235.9-230.7-231.9-233.2-229.5z
			 M-213.6-213h-12.6c-0.6,0-1-0.5-1-1c0-0.6,0.5-1,1-1h12.6c0.6,0,1,0.5,1,1C-212.5-213.5-213-213-213.6-213z M-213.6-217.2h-12.6
			c-0.6,0-1-0.5-1-1c0-0.6,0.5-1.1,1-1.1h12.6c0.6,0,1,0.5,1,1.1C-212.5-217.7-213-217.2-213.6-217.2z M-213.6-221.4h-12.6
			c-0.6,0-1-0.5-1-1.1c0-0.6,0.5-1,1-1h12.6c0.6,0,1,0.5,1,1C-212.5-221.8-213-221.4-213.6-221.4z M-214.6-236c-0.2,0-0.4,0-0.5-0.1
			l-2.1,2.1c0.4,0.6,0.6,1.3,0.6,2.1c0,2.3-1.9,4.2-4.2,4.2c-2.3,0-4.2-1.9-4.2-4.2c0-2.3,1.9-4.2,4.2-4.2c0.8,0,1.5,0.2,2.1,0.6
			l2.1-2.2c0-0.2-0.1-0.3-0.1-0.5c0-1.2,0.9-2.1,2.1-2.1c1.2,0,2.1,0.9,2.1,2.1C-212.5-237-213.5-236-214.6-236z M-239.8-237.5
			l1.6,1.6c0.7-0.2,1.5,0,2,0.5c0.5,0.5,0.7,1.3,0.5,2l1.6,1.6c0.9-1.6,0.7-3.7-0.6-5.1C-236.1-238.3-238.1-238.5-239.8-237.5z"/>
	</g>
</g>
<g id="_x2014_ÎÓÈ_x5F_4" display="none">
	<g display="inline">
		<path fill="#2FCC58" d="M-29.8-289.5v83.3c0,11.5-9.3,20.8-20.8,20.8h-83.3c-11.5,0-20.8-9.3-20.8-20.8v-83.3
			c0-11.5,9.3-20.8,20.8-20.8h83.3C-39.1-310.4-29.8-301-29.8-289.5z"/>
		<path opacity="0.3" d="M-111.3-277.9c0.3-0.5,0.9-0.9,1.6-0.9h11.2l6.4-6.4c0.5-0.8,1.9-1.4,3.7-1.4c2.1,0,3.9,0.9,3.9,1.9v4
			l-1.9,1.8h1.9c1.1,0,1.9,0.9,1.9,1.9v1.9c0,0.7-0.4,1.3-0.9,1.6l-4.1,4.2h24.4v7.7l-3.9,3.8v13.7l-1.9,1.8h5.3
			c1.3,0,2.4,0.9,2.4,1.9v25.2c0,0,0,0.1,0,0.1l-1.8,1.8h3.8v3.9L-83-185.4h-50.9c-11.5,0-20.8-9.3-20.8-20.8v-28.3L-111.3-277.9z"
			/>
		<path fill="#EEEEEE" d="M-109.7-273h25.2c1.1,0,1.9-0.9,1.9-1.9v-1.9c0-1.1-0.9-1.9-1.9-1.9h-25.2c-1.1,0-1.9,0.9-1.9,1.9v1.9
			C-111.6-273.9-110.7-273-109.7-273z M-84.5-284.6c0-1.1-1.7-1.9-3.9-1.9c-2.1,0-3.9,0.9-3.9,1.9v4h7.7V-284.6z M-98.1-271.2h-11.6
			v13.6h11.6V-271.2z M-103.9-244l1.9-1.9v-2h-3.9v2L-103.9-244z M-100-255.7h-7.7v5.9h7.7V-255.7z M-116.5-258.4c0.5,0,1-0.8,1-1.7
			v-4.2h1.9v2.9h2v-7.7h-2v2.9h-1.9v-4.2c0-1-0.4-1.7-1-1.7c-0.5,0-1,0.8-1,1.7v10.4C-117.4-259.1-117-258.4-116.5-258.4z
			 M-96.2-261.4h33v-7.7h-33V-261.4z M-74.8-259.6v15.7h7.7v-15.7H-74.8z M-118.4-226.6c0.5,0,1-0.4,1-1v-1.9h1.9v2.9h33v-7.7h-33
			v2.9h-1.9v-1.9c0-0.5-0.4-1-1-1c-0.5,0-1,0.4-1,1v5.8C-119.4-227-118.9-226.6-118.4-226.6z M-82.5-224.7H-111l28.5,6.9V-224.7z
			 M-125.2-213v3.9h65.8v-3.9H-125.2z M-72.3-233.5c-0.8,0.8-0.8,2,0,2.7c0.8,0.8,2,0.8,2.7,0c0.8-0.8,0.8-2,0-2.7
			C-70.4-234.3-71.6-234.3-72.3-233.5z M-78.2-242.1c-1.3,0-2.4,0.9-2.4,1.9v25.2c0,0,0,0.1,0,0.1h19.3c0,0,0-0.1,0-0.1v-25.2
			c0-1.1-1.1-1.9-2.4-1.9H-78.2z M-73.9-220.8c-1.1,0-1.9-0.9-1.9-1.9c0-1.1,0.9-1.9,1.9-1.9c1.1,0,1.9,0.9,1.9,1.9
			C-71.9-221.6-72.8-220.8-73.9-220.8z M-73.7-229.4c-1.5-1.5-1.5-4,0-5.5c1.3-1.3,3.1-1.5,4.6-0.6l2.2-0.7l-0.7,2.2
			c0.8,1.5,0.6,3.4-0.6,4.6C-69.8-227.9-72.2-227.9-73.7-229.4z M-68.1-220.8c-1.1,0-1.9-0.9-1.9-1.9c0-1.1,0.9-1.9,1.9-1.9
			c1.1,0,1.9,0.9,1.9,1.9C-66.1-221.6-67-220.8-68.1-220.8z M-111.6-236.2h15.5v-3.9h-15.5V-236.2z"/>
	</g>
</g>
<g id="_x2014_ÎÓÈ_x5F_5" display="none">
	<g display="inline">
		<path fill="#EF4836" d="M107.2-289.5v83.3c0,11.5-9.3,20.8-20.8,20.8H3.1c-11.5,0-20.8-9.3-20.8-20.8v-83.3
			c0-11.5,9.3-20.8,20.8-20.8h83.3C97.9-310.4,107.2-301,107.2-289.5z"/>
		<path opacity="0.3" d="M17.8-279.4c0.5-0.8,1.9-1.4,3.7-1.4c2.1,0,3.9,0.9,3.9,1.9v7.8l-1.9,1.8h2.8c1.3,0,2.4,1.1,2.4,2.4v2.7
			l21.2-21.1c0.5-0.8,1.9-1.4,3.7-1.4c2.1,0,3.9,0.9,3.9,1.9v4l-1.9,1.8h3.9v7.8l-1.8,1.8h3.8c1.1,0,1.9,0.9,1.9,1.9v3.8l1.8-1.8
			h8.8v7.7l-19.5,19.5h3.1v3.9l-1.8,1.8H67v1.6l2-1.9c0.1-0.4,0.5-0.6,0.9-0.6c0.5,0,1,0.4,1,1v5.8c0,0.4-0.3,0.8-0.6,0.9L57.6-213
			h20.1v3.9L54-185.4H3.1c-11.5,0-20.8-9.3-20.8-20.8v-37.6L17.8-279.4z"/>
		<path fill="#EEEEEE" d="M47.6-261.4c0.7,0,1.3,0.4,1.7,1h2.1c-0.4-1.7-1.9-2.9-3.7-2.9c-1.8,0-3.3,1.2-3.7,2.9H46
			C46.3-261,46.9-261.4,47.6-261.4z M39.9-249.8h21.3c1.1,0,1.9-0.9,1.9-1.9v-15.5c0-1.1-0.9-1.9-1.9-1.9H39.9
			c-1.1,0-1.9,0.9-1.9,1.9v15.5C38-250.7,38.8-249.8,39.9-249.8z M57.3-265.3c1.1,0,1.9,0.9,1.9,1.9c0,1.1-0.9,1.9-1.9,1.9
			c-1.1,0-1.9-0.9-1.9-1.9C55.4-264.4,56.2-265.3,57.3-265.3z M47.6-265.3c3.2,0,5.8,2.6,5.8,5.8c0,3.2-2.6,5.8-5.8,5.8
			c-3.2,0-5.8-2.6-5.8-5.8C41.8-262.7,44.4-265.3,47.6-265.3z M47.6-255.6c1.8,0,3.3-1.2,3.7-2.9h-2.1c-0.3,0.6-1,1-1.7,1
			s-1.3-0.4-1.7-1h-2.1C44.3-256.8,45.8-255.6,47.6-255.6z M57.3-284.6c0-1.1-1.7-1.9-3.9-1.9c-2.1,0-3.9,0.9-3.9,1.9v4h7.7V-284.6z
			 M16.8-247.9h9.5c1.3,0,2.4-1.1,2.4-2.4v-16.6c0-1.3-1.1-2.4-2.4-2.4h-9.5c-1.3,0-2.4,1.1-2.4,2.4v16.6
			C14.4-248.9,15.5-247.9,16.8-247.9z M21.5-263.4c1.1,0,1.9,0.9,1.9,1.9c0,1.1-0.9,1.9-1.9,1.9c-1.1,0-1.9-0.9-1.9-1.9
			C19.6-262.5,20.4-263.4,21.5-263.4z M21.5-257.5c1.1,0,1.9,0.9,1.9,1.9c0,1.1-0.9,1.9-1.9,1.9c-1.1,0-1.9-0.9-1.9-1.9
			C19.6-256.7,20.4-257.5,21.5-257.5z M25.4-246h-7.7v9.9h7.7V-246z M25.4-278.8c0-1.1-1.7-1.9-3.9-1.9c-2.1,0-3.9,0.9-3.9,1.9v7.8
			h7.7V-278.8z M51.5-239.2l1.9-1.9v-2h-3.9v2L51.5-239.2z M73.8-265.3H65v8.7l8.8-1V-265.3z M59.3-278.8H43.8v7.8h15.5V-278.8z
			 M29.2-217.3l35.9-4.7v-2.8H29.2V-217.3z M36.1-265.3h-5.7v12.6l5.7-0.6V-265.3z M29.2-226.6H67v-1.9h1.9v1.9c0,0.5,0.4,1,1,1
			c0.5,0,1-0.4,1-1v-5.8c0-0.5-0.4-1-1-1c-0.5,0-1,0.4-1,1v1.9H67v-1.9H29.1c0.1,0.4,0.1,0.7,0.1,1.1V-226.6z M55.4-248h-7.7v3h7.7
			V-248z M15.7-231.3v15.2c0,0.4,0.1,0.8,0.2,1.2h11.3c0.1-0.4,0.2-0.8,0.2-1.2v-15.2c0-1.7-0.9-3-1.9-3h-7.7
			C16.6-234.3,15.7-233,15.7-231.3z M11.8-213v3.9h65.8v-3.9H11.8z M45.7-234.2h11.6v-3.9H45.7V-234.2z"/>
	</g>
</g>
<g id="_x2014_ÎÓÈ_x5F_6" display="none">
	<g display="inline">
		<path fill="#2FCC58" d="M-303.8-152.5v83.3c0,11.5-9.3,20.8-20.8,20.8h-83.3c-11.5,0-20.8-9.3-20.8-20.8v-83.3
			c0-11.5,9.3-20.8,20.8-20.8h83.3C-313.1-173.4-303.8-164-303.8-152.5z"/>
		<path opacity="0.3" d="M-357-48.4h-50.9c-11.5,0-20.8-9.3-20.8-20.8v-35.3l37.3-37.4h18.9l6.4-6.4c0.5-0.8,1.9-1.4,3.7-1.4
			c2.1,0,3.9,0.9,3.9,1.9v4l-1.8,1.8h1.9v1.9l1.8-1.9h13.6l9.7,38.7v5.9l-1.9,1.8h1.9v23.2L-357-48.4z"/>
		<path fill="#EEEEEE" d="M-379.8-112.8l1.9-1.9v-2h-3.9v2L-379.8-112.8z M-358.5-147.6c0-1.1-1.7-1.9-3.9-1.9
			c-2.1,0-3.9,0.9-3.9,1.9v4h7.7V-147.6z M-375.9-124.5h-7.7v5.9h7.7V-124.5z M-343-141.8h-13.5v44.6h23.2v-5.9L-343-141.8z
			 M-364.3-97.3v-5.8h-31v1.9h-1.9v-1.9c0-0.5-0.4-1-1-1c-0.5,0-1,0.4-1,1v5.8c0,0.5,0.4,1,1,1c0.5,0,1-0.4,1-1v-1.9h1.9v1.9H-364.3
			z M-385.6-105h13.5v-3.9h-13.5V-105z M-381.2-132.7c-0.5-0.5-0.7-1.2-0.5-1.9l-1.5-1.5c-0.9,1.5-0.7,3.4,0.6,4.7
			c1.3,1.3,3.2,1.5,4.7,0.6l-1.5-1.5C-380-132.1-380.7-132.2-381.2-132.7z M-382.6-136.8C-382.6-136.8-382.6-136.8-382.6-136.8
			L-382.6-136.8C-382.5-136.8-382.5-136.8-382.6-136.8z M-381.8-137.4l1.5,1.5c0.6-0.2,1.4,0,1.9,0.5c0.5,0.5,0.7,1.2,0.5,1.9
			l1.5,1.5c0.9-1.5,0.7-3.4-0.6-4.7C-378.4-138.1-380.3-138.3-381.8-137.4z M-358.4-141.8h-33v15.5h33V-141.8z M-375.7-130
			c-2.3,2.3-5.9,2.3-8.2,0c-2.3-2.3-2.3-5.9,0-8.2c2.3-2.3,5.9-2.3,8.2,0C-373.4-135.9-373.4-132.3-375.7-130z M-391.4-85.7
			l15.5,13.5h42.6v-23.2h-58.1V-85.7z M-351.7-89.6h11.6c0.5,0,1,0.4,1,1c0,0.5-0.4,1-1,1h-11.6c-0.5,0-1-0.4-1-1
			C-352.7-89.2-352.3-89.6-351.7-89.6z M-351.7-85.7h11.6c0.5,0,1,0.4,1,1c0,0.5-0.4,1-1,1h-11.6c-0.5,0-1-0.4-1-1
			C-352.7-85.3-352.3-85.7-351.7-85.7z M-351.7-81.8h11.6c0.5,0,1,0.4,1,1c0,0.5-0.4,1-1,1h-11.6c-0.5,0-1-0.4-1-1
			C-352.7-81.4-352.3-81.8-351.7-81.8z M-377.9-91.5c1.1,0,1.9,0.9,1.9,1.9c0,1.1-0.9,1.9-1.9,1.9c-1.1,0-1.9-0.9-1.9-1.9
			C-379.8-90.7-378.9-91.5-377.9-91.5z M-383.7-91.5c1.1,0,1.9,0.9,1.9,1.9c0,1.1-0.9,1.9-1.9,1.9c-1.1,0-1.9-0.9-1.9-1.9
			C-385.6-90.7-384.8-91.5-383.7-91.5z"/>
	</g>
</g>
<g id="_x2014_ÎÓÈ_x5F_7" display="none">
	<g display="inline">
		<path fill="#EF4836" d="M-166.8-152.5v83.3c0,11.5-9.3,20.8-20.8,20.8h-83.3c-11.5,0-20.8-9.3-20.8-20.8v-83.3
			c0-11.5,9.3-20.8,20.8-20.8h83.3C-176.1-173.4-166.8-164-166.8-152.5z"/>
		<path opacity="0.3" d="M-262.1-144h56.7l5.7,6.7v2.2l-1.8,1.7v1.8l-1.9,1.8h1.9c1,0,1.8,0.8,1.8,1.8v7.2c0,0.6-0.4,1.2-0.9,1.5
			l-6.3,6.5v0.5l2.4-2.3c0.3-0.5,0.8-0.8,1.3-0.8h12.5c1,0,1.8,1.2,1.8,2.6v23.4c0,1.1-0.5,2-1.1,2.4l-2,2h1.3v12.5l-24.1,24.1h-56
			c-11.5,0-20.8-9.3-20.8-20.8v-45.1L-262.1-144z"/>
		<path fill="#EEEEEE" d="M-255.2-94h42.9v-3.2h-42.9V-94z M-199.7-120.8v-7.2c0-1-0.8-1.8-1.8-1.8h-7.2c-1,0-1.8,0.8-1.8,1.8v7.2
			c0,1,0.8,1.8,1.8,1.8h7.2C-200.5-119-199.7-119.8-199.7-120.8z M-265.9-119h7.2c1,0,1.8-0.8,1.8-1.8v-7.2c0-1-0.8-1.8-1.8-1.8
			h-7.2c-1,0-1.8,0.8-1.8,1.8v7.2C-267.7-119.8-266.9-119-265.9-119z M-235.5-115.4v5.3h3.6v-5.3H-235.5z M-240.9-104.7v3.6h14.3
			v-3.6l-3.6-3.6h-7.2L-240.9-104.7z M-265.9-131.6h7.2l0,0v-3.5h50.1v3.5h7.2v-3.5h1.8v-2.2l-5.7-6.7h-56.7l-5.7,6.7v2.2h1.8
			V-131.6z M-208.7-94h1.7v-18.8c0-2.2,1.2-3.9,2.9-4.3h-4.6V-94z M-265.9-117.2V-94h7.2v-23.2l0,0H-265.9z M-212.3-127.9h-42.8v7.2
			h16.1v3.6h10.7v-3.6h16.1V-127.9z M-197-102.9c-1,0-1.8,0.8-1.8,1.8c0,1,0.8,1.8,1.8,1.8c1,0,1.8-0.8,1.8-1.8
			C-195.2-102.1-196-102.9-197-102.9z M-190.8-115.4h-12.5c-1,0-1.8,1.2-1.8,2.6v23.4c0,1.4,0.8,2.6,1.8,2.6h12.5
			c1,0,1.8-1.2,1.8-2.6v-23.4C-189-114.3-189.8-115.4-190.8-115.4z M-199.7-90.4c-1,0-1.8-0.8-1.8-1.8c0-1,0.8-1.8,1.8-1.8
			c1,0,1.8,0.8,1.8,1.8C-198-91.2-198.8-90.4-199.7-90.4z M-200.5-101.1c0-1.6,1.1-3,2.6-3.4l1-1.9l1,1.9c1.5,0.4,2.6,1.8,2.6,3.4
			c0,2-1.6,3.6-3.6,3.6C-198.9-97.5-200.5-99.1-200.5-101.1z M-194.4-90.4c-1,0-1.8-0.8-1.8-1.8c0-1,0.8-1.8,1.8-1.8
			c1,0,1.8,0.8,1.8,1.8C-192.6-91.2-193.4-90.4-194.4-90.4z M-192.6-108.3h-8.9v-3.6h8.9V-108.3z M-207-89.4v-2.8h-62.6v19.7h21.5
			l3.6-8.9h21.5l3.6,8.9h28.6V-85h-12.5C-205.4-85-207-86.9-207-89.4z M-252.5-77.8h-10.7c-0.5,0-0.9-0.4-0.9-0.9
			c0-0.5,0.4-0.9,0.9-0.9h10.7c0.5,0,0.9,0.4,0.9,0.9C-251.6-78.2-252-77.8-252.5-77.8z M-252.5-81.4h-10.7c-0.5,0-0.9-0.4-0.9-0.9
			c0-0.5,0.4-0.9,0.9-0.9h10.7c0.5,0,0.9,0.4,0.9,0.9C-251.6-81.8-252-81.4-252.5-81.4z M-252.5-85h-10.7c-0.5,0-0.9-0.4-0.9-0.9
			c0-0.5,0.4-0.9,0.9-0.9h10.7c0.5,0,0.9,0.4,0.9,0.9C-251.6-85.4-252-85-252.5-85z"/>
	</g>
</g>
<g id="_x2014_ÎÓÈ_x5F_8" display="none">
	<g display="inline">
		<path fill="#10AAC3" d="M-29.8-152.5v83.3c0,11.5-9.3,20.8-20.8,20.8h-83.3c-11.5,0-20.8-9.3-20.8-20.8v-83.3
			c0-11.5,9.3-20.8,20.8-20.8h83.3C-39.1-173.4-29.8-164-29.8-152.5z"/>
		<path opacity="0.3" d="M-124.5-144l21.5-1.8h14.3v7.2l-1.8,1.8v5.3l-1.8,1.8v3.5l-1.8,1.8v1.7l-1.8,1.8l-7.2,7.2v3.6l-5.4,5.4h4
			l10.3-10.7h1.8v3.6h1.8l0.9,1.8l-1.9,1.8h11.7l7.2-7.2h1.7l1.8-1.8h14.3v2.4l1.9-1.8c0.1-0.3,0.4-0.6,0.8-0.6
			c0.5,0,0.9,0.4,0.9,0.9v5.4c0,0.4-0.3,0.7-0.6,0.8l-5.3,5.4h2.3c1,0,1.8,0.8,1.8,1.8v10.7c0,0.6-0.3,1.2-0.9,1.5l-2,2.1h1.1v16.1
			l-24.1,24.1h-55.1c-11.5,0-20.8-9.3-20.8-20.8v-44.4L-124.5-144z"/>
		<path fill="#EEEEEE" d="M-90.5-111.8h-1.8v-3.6h-1.8v3.6h-1.8l-0.9,1.7h7.1L-90.5-111.8z M-101.2-106.5v14.3c0,1,0.8,1.8,1.8,1.8
			h19.7c1,0,1.8-0.8,1.8-1.8v-14.3c0-1-0.8-1.8-1.8-1.8h-19.7C-100.4-108.2-101.2-107.4-101.2-106.5z M-83.3-104.7
			c1,0,1.8,0.8,1.8,1.8c0,1-0.8,1.8-1.8,1.8c-1,0-1.8-0.8-1.8-1.8C-85.1-103.9-84.3-104.7-83.3-104.7z M-92.3-104.7
			c3,0,5.4,2.4,5.4,5.4c0,3-2.4,5.4-5.4,5.4c-3,0-5.4-2.4-5.4-5.4C-97.6-102.3-95.2-104.7-92.3-104.7z M-92.3-97.5
			c-0.7,0-1.2-0.4-1.5-0.9h-1.9c0.4,1.5,1.8,2.7,3.5,2.7c1.7,0,3.1-1.1,3.5-2.7h-1.9C-91-97.9-91.6-97.5-92.3-97.5z M-92.3-101.1
			c0.7,0,1.2,0.4,1.5,0.9h1.9c-0.4-1.5-1.8-2.7-3.5-2.7c-1.7,0-3.1,1.1-3.5,2.7h1.9C-93.5-100.7-92.9-101.1-92.3-101.1z
			 M-110.1-92.6c0,0.2,0,0.3,0,0.5h7.1v-3.5h-7.1V-92.6z M-103.1-104.7h-7.1v1.7h7.1V-104.7z M-65.5-95.7h-10.6v3.5h10.6V-95.7z
			 M-103.1-101.1h-7.1v3.6h7.1V-101.1z M-65.5-101.1h-10.6v3.6h10.6V-101.1z M-61.8-106.5h5.4v-1.7h-10.7v3.5h-8.9v1.7h10.6
			C-65.4-104.9-63.8-106.5-61.8-106.5z M-103-119h-3.6v-1.8h-3.6v12.5h3.6v-1.8h3.6V-119z M-54.7-104.7h-7.2c-1,0-1.8,0.8-1.8,1.8
			v10.7c0,1,0.8,1.8,1.8,1.8h7.2c1,0,1.8-0.8,1.8-1.8v-10.7C-52.9-103.9-53.7-104.7-54.7-104.7z M-52-117.2c-0.5,0-0.9,0.4-0.9,0.9
			v1.8h-1.8v-2.7H-69v7.2h14.3v-2.7h1.8v1.8c0,0.5,0.4,0.9,0.9,0.9c0.5,0,0.9-0.4,0.9-0.9v-5.4C-51.1-116.8-51.5-117.2-52-117.2z
			 M-70.8-111.8v-3.6h-1.7l-1.8,1.8l1.8,1.8H-70.8z M-94.1-122.6v-1.7h-3.6v1.7l1.8,1.8L-94.1-122.6z M-99.4-127.9v1.7h7.2v-3.5
			h-2.4C-96-128.5-97.7-127.9-99.4-127.9z M-108.4-136.8v5.3h2.7c-0.6-1.1-1-2.3-1-3.6c0-0.6,0.1-1.2,0.2-1.7H-108.4z M-104.5-140.2
			c1.4-1.4,3.2-2.1,5.1-2.1c1.9,0,3.7,0.8,5.1,2.1c0.5,0.5,0.8,1,1.2,1.5h4.5v-7.2H-103l-21.5,1.8v5.4h18.8
			C-105.4-139.2-105-139.7-104.5-140.2z M-90.5-131.5v-5.3h-2c0.1,0.6,0.2,1.1,0.2,1.7c0,1.3-0.3,2.5-1,3.6H-90.5z M-115.5-136.8
			h-9.4l-3.1,12.4h12.5V-136.8z M-95.6-131.3c2.1-2.1,2.1-5.5,0-7.6c-2.1-2.1-5.5-2.1-7.6,0c-2.1,2.1-2.1,5.5,0,7.6
			C-101.1-129.2-97.7-129.2-95.6-131.3z M-96.9-132.5C-96.9-132.5-96.9-132.5-96.9-132.5L-96.9-132.5
			C-96.9-132.6-96.9-132.5-96.9-132.5z M-96.9-137.6c1.2,1.2,1.4,3,0.5,4.3l-1.4-1.4c0.2-0.6,0-1.3-0.5-1.7
			c-0.5-0.5-1.1-0.6-1.7-0.5l-1.4-1.4C-99.9-139-98.1-138.8-96.9-137.6z M-102.5-136.9l1.4,1.4c-0.2,0.6,0,1.3,0.5,1.7
			c0.5,0.5,1.1,0.6,1.7,0.5l1.4,1.4c-1.4,0.8-3.2,0.6-4.3-0.5C-103.1-133.7-103.3-135.5-102.5-136.9z M-111.9-92.6v-27.6
			c0-1.3-0.8-2.3-1.8-2.3h-17.9c-1,0-1.8,1-1.8,2.3v27.6c0,1.3,0.8,2.3,1.8,2.3h17.9C-112.8-90.3-111.9-91.4-111.9-92.6z
			 M-126.3-99.3c-1,0-1.8-0.8-1.8-1.8c0-1,0.8-1.8,1.8-1.8c1,0,1.8,0.8,1.8,1.8C-124.5-100.1-125.3-99.3-126.3-99.3z M-119.1-99.3
			c-1,0-1.8-0.8-1.8-1.8c0-1,0.8-1.8,1.8-1.8c1,0,1.8,0.8,1.8,1.8C-117.3-100.1-118.1-99.3-119.1-99.3z M-117.3-113.6
			c-0.2,0-0.3,0-0.5-0.1l-1.8,1.8c0.3,0.5,0.5,1.1,0.5,1.8c0,2-1.6,3.6-3.6,3.6c-2,0-3.6-1.6-3.6-3.6c0-2,1.6-3.6,3.6-3.6
			c0.7,0,1.3,0.2,1.8,0.5l1.8-1.8c0-0.1-0.1-0.3-0.1-0.5c0-1,0.8-1.8,1.8-1.8c1,0,1.8,0.8,1.8,1.8
			C-115.5-114.4-116.3-113.6-117.3-113.6z M-65-90.3h-11.7c-0.6,1.1-1.8,1.8-3.1,1.8h-19.7c-1.3,0-2.5-0.7-3.1-1.8h-8.2
			c-0.7,1.1-1.7,1.8-3,1.8h-16.1v16.1h21.5l3.6-10.7h34l5.4,10.7h10.7v-16.1h-7.2C-63.2-88.5-64.3-89.2-65-90.3z M-112.8-76.9h-10.7
			c-0.5,0-0.9-0.4-0.9-0.9c0-0.5,0.4-0.9,0.9-0.9h10.7c0.5,0,0.9,0.4,0.9,0.9C-111.9-77.3-112.3-76.9-112.8-76.9z M-112.8-80.5
			h-10.7c-0.5,0-0.9-0.4-0.9-0.9c0-0.5,0.4-0.9,0.9-0.9h10.7c0.5,0,0.9,0.4,0.9,0.9C-111.9-80.9-112.3-80.5-112.8-80.5z
			 M-112.8-84.1h-10.7c-0.5,0-0.9-0.4-0.9-0.9c0-0.5,0.4-0.9,0.9-0.9h10.7c0.5,0,0.9,0.4,0.9,0.9C-111.9-84.5-112.3-84.1-112.8-84.1
			z"/>
	</g>
</g>
<g id="_x2014_ÎÓÈ_x5F_9">
	<g>
		<path display="none" fill="#F39C12" d="M107.2-152.5v83.3c0,11.5-9.3,20.8-20.8,20.8H3.1c-11.5,0-20.8-9.3-20.8-20.8v-83.3
			c0-11.5,9.3-20.8,20.8-20.8h83.3C97.9-173.4,107.2-164,107.2-152.5z"/>
		<path display="none" opacity="0.3" d="M19.7-144h12.5v19.7l16.1-16.1H61l3.5-3.6h8.9l12.5,37.6V-94l-1.8,1.8v19.7L60-48.4H3.1
			c-11.5,0-20.8-9.3-20.8-20.8v-37.4L19.7-144z"/>
		<path fill="#EEEEEE" d="M39.4-104.7H59v-3.6H39.4V-104.7z M62.6-140.5H48.3v7.2h14.3V-140.5z M53.7-120.8l1.8-1.8v-1.7h-3.6v1.7
			L53.7-120.8z M57.3-131.5h-7.2v5.3h7.2V-131.5z M37.6-111.8h3.6v-10.7h-3.6v-1.8H34v14.3h3.6V-111.8z M12-110.4
			c0.7-0.7,0.7-1.8,0-2.5c-0.7-0.7-1.8-0.7-2.5,0c-0.7,0.7-0.7,1.8,0,2.5C10.2-109.7,11.3-109.7,12-110.4z M32.2-144.1H19.7
			L3.6-126.2v34h1.7V-94h26.9V-144.1z M18.9-114.2c1.2-1.2,2.9-1.3,4.3-0.6l2.1-0.7l-0.7,2.1c0.8,1.4,0.6,3.1-0.6,4.3
			c-1.4,1.4-3.7,1.4-5.1,0C17.5-110.5,17.5-112.8,18.9-114.2z M8.2-114.2c1.2-1.2,2.9-1.3,4.3-0.6l2.1-0.7l-0.7,2.1
			c0.8,1.4,0.6,3.1-0.6,4.3c-1.4,1.4-3.7,1.4-5.1,0C6.8-110.5,6.8-112.8,8.2-114.2z M16.1-102.9c-0.2,0-0.3,0-0.5-0.1l-1.8,1.8
			c0.3,0.5,0.5,1.1,0.5,1.8c0,2-1.6,3.6-3.6,3.6c-2,0-3.6-1.6-3.6-3.6c0-2,1.6-3.6,3.6-3.6c0.7,0,1.3,0.2,1.8,0.5l1.8-1.8
			c0-0.1-0.1-0.3-0.1-0.5c0-1,0.8-1.8,1.8-1.8c1,0,1.8,0.8,1.8,1.8C17.9-103.7,17.1-102.9,16.1-102.9z M26.8-102.9
			c-0.2,0-0.3,0-0.5-0.1l-1.8,1.8c0.3,0.5,0.5,1.1,0.5,1.8c0,2-1.6,3.6-3.6,3.6c-2,0-3.6-1.6-3.6-3.6c0-2,1.6-3.6,3.6-3.6
			c0.7,0,1.3,0.2,1.8,0.5l1.8-1.8c0-0.1-0.1-0.3-0.1-0.5c0-1,0.8-1.8,1.8-1.8c1,0,1.8,0.8,1.8,1.8C28.6-103.7,27.8-102.9,26.8-102.9
			z M22.7-110.4c0.7-0.7,0.7-1.8,0-2.5c-0.7-0.7-1.8-0.7-2.5,0c-0.7,0.7-0.7,1.8,0,2.5C20.9-109.7,22-109.7,22.7-110.4z M73.4-144.1
			h-8.9v41.2H35.8v8.9h50.1v-12.5L73.4-144.1z M75.2-101.1c-1,0-1.8-0.8-1.8-1.8c0-1,0.8-1.8,1.8-1.8c1,0,1.8,0.8,1.8,1.8
			C76.9-101.9,76.1-101.1,75.2-101.1z M75.2-106.5c-1,0-1.8-0.8-1.8-1.8c0-1,0.8-1.8,1.8-1.8c1,0,1.8,0.8,1.8,1.8
			C76.9-107.3,76.1-106.5,75.2-106.5z M7.2-72.5h18.3l3.7-7.2h33l3.7,7.2h18.3v-19.7H7.2V-72.5z M13.4-88.6h10.7
			c0.5,0,0.9,0.4,0.9,0.9s-0.4,0.9-0.9,0.9H13.4c-0.5,0-0.9-0.4-0.9-0.9S12.9-88.6,13.4-88.6z M13.4-85h10.7c0.5,0,0.9,0.4,0.9,0.9
			c0,0.5-0.4,0.9-0.9,0.9H13.4c-0.5,0-0.9-0.4-0.9-0.9C12.5-84.6,12.9-85,13.4-85z M13.4-81.4h10.7c0.5,0,0.9,0.4,0.9,0.9
			c0,0.5-0.4,0.9-0.9,0.9H13.4c-0.5,0-0.9-0.4-0.9-0.9C12.5-81,12.9-81.4,13.4-81.4z"/>
	</g>
</g>
<g id="_x2014_ÎÓÈ_x5F_10" display="none">
	<g display="inline">
		<path fill="#F39C12" d="M-303.8-15.5v83.3c0,11.5-9.3,20.8-20.8,20.8h-83.3c-11.5,0-20.8-9.3-20.8-20.8v-83.3
			c0-11.5,9.3-20.8,20.8-20.8h83.3C-313.1-36.4-303.8-27-303.8-15.5z"/>
		<path opacity="0.3" d="M-393.8-2.2c0.5-0.8,1.8-1.3,3.4-1.3c2,0,3.6,0.8,3.6,1.9v3.6l1.8-1.9h8.2l2.8-2.7c0.3-0.5,0.8-0.9,1.5-0.9
			h19.7c1,0,1.8,0.8,1.8,1.8V2l1.8-1.9h10.4l2.3-2.3c0.5-0.8,1.8-1.3,3.4-1.3c2,0,3.6,0.8,3.6,1.9V43l-1.9,1.8h5.5v19.7l-24,24.2
			h-57.9c-11.5,0-20.8-9.3-20.8-20.8V32.7L-393.8-2.2z"/>
		<path fill="#EEEEEE" d="M-388.6,24.1v18.8h1.7V-1.7c0-1-1.6-1.9-3.6-1.9c-2,0-3.6,0.8-3.6,1.9v21.4h1.8
			C-390.2,19.7-388.6,21.6-388.6,24.1z M-383.3,42.9h42.9v-3.2h-42.9V42.9z M-329.6-1.7c0-1-1.6-1.9-3.6-1.9c-2,0-3.6,0.8-3.6,1.9
			v44.6h7.2V-1.7z M-338.6,0.1h-10.6v10.7h10.6V0.1z M-376.2,0.1h-8.8v10.7h8.8V0.1z M-372.5,14.4h19.7c1,0,1.8-0.8,1.8-1.8V-1.7
			c0-1-0.8-1.8-1.8-1.8h-19.7c-1,0-1.8,0.8-1.8,1.8v14.3C-374.3,13.6-373.5,14.4-372.5,14.4z M-356.4,0.1c1,0,1.8,0.8,1.8,1.8
			c0,1-0.8,1.8-1.8,1.8c-1,0-1.8-0.8-1.8-1.8C-358.2,0.9-357.4,0.1-356.4,0.1z M-365.4,0.1c3,0,5.4,2.4,5.4,5.4c0,3-2.4,5.4-5.4,5.4
			c-3,0-5.4-2.4-5.4-5.4C-370.7,2.5-368.3,0.1-365.4,0.1z M-365.4,3.6c0.7,0,1.2,0.4,1.5,0.9h1.9c-0.4-1.5-1.8-2.7-3.5-2.7
			c-1.7,0-3.1,1.1-3.5,2.7h1.9C-366.6,4-366,3.6-365.4,3.6z M-365.4,9c1.7,0,3.1-1.1,3.5-2.7h-1.9c-0.3,0.5-0.9,0.9-1.5,0.9
			c-0.7,0-1.2-0.4-1.5-0.9h-1.9C-368.4,7.9-367,9-365.4,9z M-361.8,26.8l1.8-1.8v-1.7h-3.6V25L-361.8,26.8z M-358.2,16.2h-7.2v5.3
			h7.2V16.2z M-390.4,47.5V24.1c0-1.4-0.8-2.6-1.8-2.6h-12.5c-1,0-1.8,1.2-1.8,2.6v23.4c0,1.4,0.8,2.6,1.8,2.6h12.5
			C-391.2,50.2-390.4,49-390.4,47.5z M-401.2,46.6c-1,0-1.8-0.8-1.8-1.8c0-1,0.8-1.8,1.8-1.8c1,0,1.8,0.8,1.8,1.8
			C-399.4,45.8-400.2,46.6-401.2,46.6z M-401.2,41.2c-1,0-1.8-0.8-1.8-1.8c0-1,0.8-1.8,1.8-1.8c1,0,1.8,0.8,1.8,1.8
			C-399.4,40.4-400.2,41.2-401.2,41.2z M-401.2,35.8c-1,0-1.8-0.8-1.8-1.8c0-1,0.8-1.8,1.8-1.8c1,0,1.8,0.8,1.8,1.8
			C-399.4,35-400.2,35.8-401.2,35.8z M-395.8,46.6c-1,0-1.8-0.8-1.8-1.8c0-1,0.8-1.8,1.8-1.8c1,0,1.8,0.8,1.8,1.8
			C-394,45.8-394.8,46.6-395.8,46.6z M-395.8,41.2c-1,0-1.8-0.8-1.8-1.8c0-1,0.8-1.8,1.8-1.8c1,0,1.8,0.8,1.8,1.8
			C-394,40.4-394.8,41.2-395.8,41.2z M-395.8,35.8c-1,0-1.8-0.8-1.8-1.8c0-1,0.8-1.8,1.8-1.8c1,0,1.8,0.8,1.8,1.8
			C-394,35-394.8,35.8-395.8,35.8z M-394,28.7h-8.9v-3.6h8.9V28.7z M-388.6,44.8v2.8c0,2.5-1.6,4.4-3.6,4.4h-5.4v12.5h21.5l3.6-8.9
			h21.5l3.6,8.9h21.5V44.8H-388.6z M-332.3,59.1H-343c-0.5,0-0.9-0.4-0.9-0.9c0-0.5,0.4-0.9,0.9-0.9h10.7c0.5,0,0.9,0.4,0.9,0.9
			C-331.4,58.7-331.8,59.1-332.3,59.1z M-332.3,55.5H-343c-0.5,0-0.9-0.4-0.9-0.9c0-0.5,0.4-0.9,0.9-0.9h10.7c0.5,0,0.9,0.4,0.9,0.9
			C-331.4,55.1-331.8,55.5-332.3,55.5z M-332.3,51.9H-343c-0.5,0-0.9-0.4-0.9-0.9c0-0.5,0.4-0.9,0.9-0.9h10.7c0.5,0,0.9,0.4,0.9,0.9
			C-331.4,51.5-331.8,51.9-332.3,51.9z"/>
	</g>
</g>
<g id="_x2014_ÎÓÈ_x5F_11" display="none">
	<g display="inline">
		<path fill="#10AAC3" d="M-166.8-15.5v83.3c0,11.5-9.3,20.8-20.8,20.8h-83.3c-11.5,0-20.8-9.3-20.8-20.8v-83.3
			c0-11.5,9.3-20.8,20.8-20.8h83.3C-176.1-36.4-166.8-27-166.8-15.5z"/>
		<path opacity="0.3" d="M-212.2,88.6h-58.7c-11.5,0-20.8-9.3-20.8-20.8V20.6l19.8-19.8c0.3-0.5,0.9-0.9,1.5-0.9h23.3
			c1,0,1.8,0.8,1.8,1.8v1.8l1.8-1.8h55.4c1,0,1.8,0.8,1.8,1.8v23.3l-1.9,1.8h1.9v12.5c0,0.6-0.4,1.2-0.9,1.5l-2.1,2.1h1.1v19.6
			L-212.2,88.6z"/>
		<path fill="#EEEEEE" d="M-188.1,1.8h-55.4v25h57.2V3.6C-186.3,2.6-187.1,1.8-188.1,1.8z M-240,17c0,0.5-0.4,0.9-0.9,0.9
			c-0.5,0-0.9-0.4-0.9-0.9v-5.4c0-0.5,0.4-0.9,0.9-0.9c0.5,0,0.9,0.4,0.9,0.9V17z M-195.3,17.9c0,1-0.8,1.8-1.8,1.8h-37.6
			c-1,0-1.8-0.8-1.8-1.8V8.9c0-1,0.8-1.8,1.8-1.8h37.6c1,0,1.8,0.8,1.8,1.8V17.9z M-189.9,17c0,0.5-0.4,0.9-0.9,0.9
			c-0.5,0-0.9-0.4-0.9-0.9v-5.4c0-0.5,0.4-0.9,0.9-0.9c0.5,0,0.9,0.4,0.9,0.9V17z M-243.5,41.2c0,0.6-0.2,1.2-0.5,1.7
			c0.1,0,0.3,0.1,0.4,0.1h55.5c1,0,1.8-0.8,1.8-1.8V28.7h-57.2V41.2z M-266.3,32.9c-0.7,0.7-0.7,1.8,0,2.5c0.7,0.7,1.8,0.7,2.5,0
			c0.7-0.7,0.7-1.8,0-2.5C-264.5,32.2-265.6,32.2-266.3,32.9z M-255.6,32.9c-0.7,0.7-0.7,1.8,0,2.5c0.7,0.7,1.8,0.7,2.5,0
			c0.7-0.7,0.7-1.8,0-2.5C-253.7,32.2-254.9,32.2-255.6,32.9z M-245.4,41.2V1.8c0-1-0.8-1.8-1.8-1.8h-23.3c-1,0-1.8,0.8-1.8,1.8
			v39.4c0,1,0.8,1.8,1.8,1.8h23.3C-246.2,42.9-245.4,42.1-245.4,41.2z M-266.8,5.4h16.1v5.4h-16.1V5.4z M-254.3,17.9
			c-1,0-1.8-0.8-1.8-1.8c0-1,0.8-1.8,1.8-1.8c1,0,1.8,0.8,1.8,1.8C-252.5,17.1-253.3,17.9-254.3,17.9z M-252.5,21.5
			c0,1-0.8,1.8-1.8,1.8c-1,0-1.8-0.8-1.8-1.8c0-1,0.8-1.8,1.8-1.8C-253.3,19.7-252.5,20.5-252.5,21.5z M-265.1,14.3
			c1,0,1.8,0.8,1.8,1.8c0,1-0.8,1.8-1.8,1.8c-1,0-1.8-0.8-1.8-1.8C-266.8,15.1-266,14.3-265.1,14.3z M-265.1,19.7
			c1,0,1.8,0.8,1.8,1.8c0,1-0.8,1.8-1.8,1.8c-1,0-1.8-0.8-1.8-1.8C-266.8,20.5-266,19.7-265.1,19.7z M-262.5,36.7
			c-1.4,1.4-3.7,1.4-5.1,0c-1.4-1.4-1.4-3.7,0-5.1c1.2-1.2,2.9-1.3,4.3-0.6l2.1-0.7l-0.7,2.1C-261.2,33.8-261.4,35.6-262.5,36.7z
			 M-259.7,23.3c-1,0-1.8-0.8-1.8-1.8c0-1,0.8-1.8,1.8-1.8c1,0,1.8,0.8,1.8,1.8C-257.9,22.5-258.7,23.3-259.7,23.3z M-259.7,17.9
			c-1,0-1.8-0.8-1.8-1.8c0-1,0.8-1.8,1.8-1.8c1,0,1.8,0.8,1.8,1.8C-257.9,17.1-258.7,17.9-259.7,17.9z M-251.8,36.7
			c-1.4,1.4-3.7,1.4-5.1,0c-1.4-1.4-1.4-3.7,0-5.1c1.2-1.2,2.9-1.3,4.3-0.6l2.1-0.7l-0.7,2.1C-250.4,33.8-250.6,35.6-251.8,36.7z
			 M-244.4,44.7l-1.2-0.3c-0.5,0.2-1,0.4-1.6,0.4h-21.5v19.6h23.3l3.6-8.9h35.8l3.6,8.9h14.3V44.8h-55.5
			C-243.9,44.8-244.1,44.8-244.4,44.7z M-251.6,56.4h-10.7c-0.5,0-0.9-0.4-0.9-0.9c0-0.5,0.4-0.9,0.9-0.9h10.7
			c0.5,0,0.9,0.4,0.9,0.9C-250.7,56-251.1,56.4-251.6,56.4z M-251.6,52.8h-10.7c-0.5,0-0.9-0.4-0.9-0.9c0-0.5,0.4-0.9,0.9-0.9h10.7
			c0.5,0,0.9,0.4,0.9,0.9C-250.7,52.4-251.1,52.8-251.6,52.8z M-251.6,49.2h-10.7c-0.5,0-0.9-0.4-0.9-0.9c0-0.5,0.4-0.9,0.9-0.9
			h10.7c0.5,0,0.9,0.4,0.9,0.9C-250.7,48.8-251.1,49.2-251.6,49.2z"/>
	</g>
</g>
<g id="_x2014_ÎÓÈ_x5F_12" display="none">
	<g display="inline">
		<path fill="#EF4836" d="M-29.8-15.5v83.3c0,11.5-9.3,20.8-20.8,20.8h-83.3c-11.5,0-20.8-9.3-20.8-20.8v-83.3
			c0-11.5,9.3-20.8,20.8-20.8h83.3C-39.1-36.4-29.8-27-29.8-15.5z"/>
		<path opacity="0.3" d="M-76.1,88.6h-57.8c-11.5,0-20.8-9.3-20.8-20.8v-48l19-19c0.3-0.5,0.9-0.9,1.5-0.9h23.2v1.1l2.1-2.1
			c0.3-0.5,0.9-0.9,1.5-0.9h39.4c1,0,1.8,0.8,1.8,1.8v1.9l1.8-1.9h14.3c1,0,1.8,0.8,1.8,1.8v39.4c0,0.6-0.4,1.2-0.9,1.5l-2.7,2.8v19
			L-76.1,88.6z"/>
		<path fill="#EEEEEE" d="M-107.5,44.8h39.4c1,0,1.8-0.8,1.8-1.8V0c0-1-0.8-1.8-1.8-1.8h-39.4c-1,0-1.8,0.8-1.8,1.8V43
			C-109.3,44-108.5,44.8-107.5,44.8z M-71.7,36.7c0,0.5-0.4,0.9-0.9,0.9c-0.5,0-0.9-0.4-0.9-0.9v-5.4c0-0.5,0.4-0.9,0.9-0.9
			c0.5,0,0.9,0.4,0.9,0.9V36.7z M-103.9,7.2c0-1,0.8-1.8,1.8-1.8h28.6c1,0,1.8,0.8,1.8,1.8v14.3c0,1-0.8,1.8-1.8,1.8h-28.6
			c-1,0-1.8-0.8-1.8-1.8V7.2z M-103.9,31.3c0-0.5,0.4-0.9,0.9-0.9c0.5,0,0.9,0.4,0.9,0.9v5.4c0,0.5-0.4,0.9-0.9,0.9
			c-0.5,0-0.9-0.4-0.9-0.9V31.3z M-130.2,34.5c-0.7,0.7-0.7,1.8,0,2.5c0.7,0.7,1.8,0.7,2.5,0c0.7-0.7,0.7-1.8,0-2.5
			C-128.4,33.8-129.5,33.8-130.2,34.5z M-111.1,0h-23.2c-1,0-1.8,0.8-1.8,1.8v39.4c0,1,0.8,1.8,1.8,1.8h23.2V0z M-130.7,5.4h14.3
			v5.4h-14.3V5.4z M-118.2,25.1c1,0,1.8,0.8,1.8,1.8s-0.8,1.8-1.8,1.8c-1,0-1.8-0.8-1.8-1.8S-119.2,25.1-118.2,25.1z M-120,21.5
			c0-1,0.8-1.8,1.8-1.8c1,0,1.8,0.8,1.8,1.8c0,1-0.8,1.8-1.8,1.8C-119.2,23.3-120,22.5-120,21.5z M-118.2,17.9c-1,0-1.8-0.8-1.8-1.8
			c0-1,0.8-1.8,1.8-1.8c1,0,1.8,0.8,1.8,1.8C-116.4,17.1-117.2,17.9-118.2,17.9z M-123.6,17.9c-1,0-1.8-0.8-1.8-1.8
			c0-1,0.8-1.8,1.8-1.8c1,0,1.8,0.8,1.8,1.8C-121.8,17.1-122.6,17.9-123.6,17.9z M-121.8,21.5c0,1-0.8,1.8-1.8,1.8
			c-1,0-1.8-0.8-1.8-1.8c0-1,0.8-1.8,1.8-1.8C-122.6,19.7-121.8,20.5-121.8,21.5z M-127.2,16.1c0,1-0.8,1.8-1.8,1.8
			c-1,0-1.8-0.8-1.8-1.8c0-1,0.8-1.8,1.8-1.8C-128,14.3-127.2,15.1-127.2,16.1z M-128.9,19.7c1,0,1.8,0.8,1.8,1.8
			c0,1-0.8,1.8-1.8,1.8s-1.8-0.8-1.8-1.8C-130.7,20.5-129.9,19.7-128.9,19.7z M-127.2,26.9c0,1-0.8,1.8-1.8,1.8
			c-1,0-1.8-0.8-1.8-1.8s0.8-1.8,1.8-1.8C-128,25.1-127.2,25.9-127.2,26.9z M-126.4,38.3c-1.4,1.4-3.7,1.4-5.1,0
			c-1.4-1.4-1.4-3.7,0-5.1c1.2-1.2,2.9-1.3,4.3-0.6l2.1-0.7l-0.7,2.1C-125.1,35.4-125.3,37.2-126.4,38.3z M-123.6,28.7
			c-1,0-1.8-0.8-1.8-1.8s0.8-1.8,1.8-1.8c1,0,1.8,0.8,1.8,1.8S-122.6,28.7-123.6,28.7z M-115.7,38.3c-1.4,1.4-3.7,1.4-5.1,0
			c-1.4-1.4-1.4-3.7,0-5.1c1.2-1.2,2.9-1.3,4.3-0.6l2.1-0.7l-0.7,2.1C-114.3,35.4-114.5,37.2-115.7,38.3z M-50.2,0h-14.3V43h14.3
			c1,0,1.8-0.8,1.8-1.8V1.8C-48.4,0.8-49.2,0-50.2,0z M-119.5,34.5c-0.7,0.7-0.7,1.8,0,2.5c0.7,0.7,1.8,0.7,2.5,0
			c0.7-0.7,0.7-1.8,0-2.5C-117.6,33.8-118.8,33.8-119.5,34.5z M-68.1,46.6h-39.4c-1.3,0-2.5-0.7-3.1-1.8h-21.9v19.6h23.3l3.6-8.9
			h35.8l3.6,8.9H-52V44.8h-13C-65.6,45.9-66.8,46.6-68.1,46.6z M-115.5,56.4h-10.7c-0.5,0-0.9-0.4-0.9-0.9c0-0.5,0.4-0.9,0.9-0.9
			h10.7c0.5,0,0.9,0.4,0.9,0.9C-114.6,56-115,56.4-115.5,56.4z M-115.5,52.8h-10.7c-0.5,0-0.9-0.4-0.9-0.9c0-0.5,0.4-0.9,0.9-0.9
			h10.7c0.5,0,0.9,0.4,0.9,0.9C-114.6,52.4-115,52.8-115.5,52.8z M-115.5,49.3h-10.7c-0.5,0-0.9-0.4-0.9-0.9c0-0.5,0.4-0.9,0.9-0.9
			h10.7c0.5,0,0.9,0.4,0.9,0.9C-114.6,48.9-115,49.3-115.5,49.3z"/>
	</g>
</g>
<g id="_x2014_ÎÓÈ_x5F_13">
	<g>
		<path display="none" fill="#2FCC58" d="M107.2-15.5v83.3c0,11.5-9.3,20.8-20.8,20.8H3.1c-11.5,0-20.8-9.3-20.8-20.8v-83.3
			c0-11.5,9.3-20.8,20.8-20.8h83.3C97.9-36.4,107.2-27,107.2-15.5z"/>
		<path display="none" opacity="0.3" d="M0.3,0.9C0.6,0.4,1.2,0,1.8,0h30.4c1,0,1.8,0.8,1.8,1.8v7.3l1.8-1.9h3.6v1.8h3.6v10.7
			L32.2,30.4v1.3l3.1-3.1h2.7l13.8-14.3h1.8v3.6h1.8l1.3,5.3l-1.9,1.8h0.6L68,12.5h1.7v0.1l1.8-1.9h14.3v2.4l1.8-1.8
			c0.1-0.3,0.4-0.6,0.8-0.6c0.5,0,0.9,0.4,0.9,0.9V17c0,0.4-0.3,0.7-0.6,0.8l-5.3,5.4h2.4v4l-1.4,1.4c0.8,0.2,1.4,0.9,1.4,1.7v10.7
			c0,0.6-0.4,1.2-0.9,1.5l-2.7,2.8v19L58,88.6h-55c-11.5,0-20.8-9.3-20.8-20.8V18.9L0.3,0.9z"/>
		<path fill="#EEEEEE" d="M76.9,41.2h-7.1c0,2-1.6,3.6-3.6,3.6H46.5c-2,0-3.6-1.6-3.6-3.6l-35.7,0v23.2h21.5l3.6-10.7h34l5.4,10.7
			h10.7V44.8h-1.8C78.5,44.8,76.9,43.2,76.9,41.2z M24.2,53.7H13.4c-0.5,0-0.9-0.4-0.9-0.9c0-0.5,0.4-0.9,0.9-0.9h10.7
			c0.5,0,0.9,0.4,0.9,0.9C25.1,53.3,24.7,53.7,24.2,53.7z M24.2,50.1H13.4c-0.5,0-0.9-0.4-0.9-0.9c0-0.5,0.4-0.9,0.9-0.9h10.7
			c0.5,0,0.9,0.4,0.9,0.9C25.1,49.7,24.7,50.1,24.2,50.1z M24.2,46.5H13.4c-0.5,0-0.9-0.4-0.9-0.9c0-0.5,0.4-0.9,0.9-0.9h10.7
			c0.5,0,0.9,0.4,0.9,0.9C25.1,46.1,24.7,46.5,24.2,46.5z M84.1,28.6h-3.6c-1,0-1.8,0.8-1.8,1.8v10.7c0,1,0.8,1.8,1.8,1.8h3.6
			c1,0,1.8-0.8,1.8-1.8V30.4C85.9,29.4,85.1,28.6,84.1,28.6z M32.2,37.6v-7.2c0-1-0.8-1.8-1.8-1.8h1.8c1,0,1.8-0.8,1.8-1.8v-25
			c0-1-0.8-1.8-1.8-1.8H1.8C0.8,0,0,0.8,0,1.8v25c0,1,0.8,1.8,1.8,1.8h3.6c-1,0-1.8,0.8-1.8,1.8v7.2c0,1,0.8,1.8,1.8,1.8h25.1
			C31.4,39.4,32.2,38.6,32.2,37.6z M12.5,25c-1,0-1.8-0.8-1.8-1.8c0-1,0.8-1.8,1.8-1.8c1,0,1.8,0.8,1.8,1.8
			C14.3,24.2,13.5,25,12.5,25z M14.3,12.5c0,2-1.6,3.6-3.6,3.6c-2,0-3.6-1.6-3.6-3.6c0-2,1.6-3.6,3.6-3.6c0.7,0,1.3,0.2,1.8,0.5
			l1.8-1.8c0-0.1-0.1-0.3-0.1-0.5c0-1,0.8-1.8,1.8-1.8s1.8,0.8,1.8,1.8s-0.8,1.8-1.8,1.8c-0.2,0-0.3,0-0.5-0.1l-1.8,1.8
			C14.1,11.2,14.3,11.9,14.3,12.5z M17.9,35.8c-1,0-1.8-0.8-1.8-1.8c0-1,0.8-1.8,1.8-1.8c1,0,1.8,0.8,1.8,1.8
			C19.7,35,18.9,35.8,17.9,35.8z M19.7,25c-1,0-1.8-0.8-1.8-1.8c0-1,0.8-1.8,1.8-1.8c1,0,1.8,0.8,1.8,1.8C21.5,24.2,20.7,25,19.7,25
			z M25.1,35.8c-1,0-1.8-0.8-1.8-1.8c0-1,0.8-1.8,1.8-1.8c1,0,1.8,0.8,1.8,1.8C26.8,35,26,35.8,25.1,35.8z M26.8,25
			c-1,0-1.8-0.8-1.8-1.8c0-1,0.8-1.8,1.8-1.8c1,0,1.8,0.8,1.8,1.8C28.6,24.2,27.8,25,26.8,25z M28.6,8.9c-0.2,0-0.3,0-0.5-0.1
			l-1.8,1.8c0.3,0.5,0.5,1.1,0.5,1.8c0,2-1.6,3.6-3.6,3.6c-2,0-3.6-1.6-3.6-3.6c0-2,1.6-3.6,3.6-3.6c0.7,0,1.3,0.2,1.8,0.5l1.8-1.8
			c0-0.1-0.1-0.3-0.1-0.5c0-1,0.8-1.8,1.8-1.8c1,0,1.8,0.8,1.8,1.8S29.6,8.9,28.6,8.9z M39.4,19.7h3.6V8.9h-3.6V7.2h-3.6v14.3h3.6
			V19.7z M55.5,17.9h-1.8v-3.6h-1.8v3.6h-1.8l-1.3,5.3h8L55.5,17.9z M53.7,32.2c0.7,0,1.2,0.4,1.5,0.9h1.9c-0.4-1.5-1.8-2.7-3.5-2.7
			c-1.7,0-3.1,1.1-3.5,2.7h1.9C52.5,32.6,53,32.2,53.7,32.2z M46.5,42.9h19.7c1,0,1.8-0.8,1.8-1.8V26.8c0-1-0.8-1.8-1.8-1.8H46.5
			c-1,0-1.8,0.8-1.8,1.8v14.3C44.7,42.1,45.5,42.9,46.5,42.9z M62.6,28.6c1,0,1.8,0.8,1.8,1.8c0,1-0.8,1.8-1.8,1.8
			c-1,0-1.8-0.8-1.8-1.8C60.8,29.4,61.6,28.6,62.6,28.6z M53.7,28.6c3,0,5.4,2.4,5.4,5.4c0,3-2.4,5.4-5.4,5.4c-3,0-5.4-2.4-5.4-5.4
			C48.3,31,50.7,28.6,53.7,28.6z M53.7,35.8c-0.7,0-1.2-0.4-1.5-0.9h-1.9c0.4,1.5,1.8,2.7,3.5,2.7c1.7,0,3.1-1.1,3.5-2.7h-1.9
			C54.9,35.4,54.3,35.8,53.7,35.8z M42.9,30.4v-1.7h-7.5c-0.3,0.6-0.8,1-1.3,1.4c0,0.1,0,0.3,0,0.4H42.9z M71.6,28.6h-1.7v1.7h7.1
			c0-2,1.6-3.6,3.6-3.6h3.6c0.7,0,1.3,0.2,1.8,0.5v-4H71.6V28.6z M76.9,32.2h-7.1v3.6h7.1V32.2z M76.9,37.6h-7.1v1.7h7.1V37.6z
			 M42.9,32.2H34v3.6h8.8V32.2z M33.6,39.4h9.3v-1.7H34C34,38.3,33.9,38.8,33.6,39.4z M88.6,10.7c-0.5,0-0.9,0.4-0.9,0.9v1.8h-1.8
			v-2.7H71.6v7.2h1.8v3.5h10.7v-3.5h1.8v-2.7h1.8V17c0,0.5,0.4,0.9,0.9,0.9c0.5,0,0.9-0.4,0.9-0.9v-1.8v-1.8v-1.8
			C89.5,11.1,89.1,10.7,88.6,10.7z M69.7,16.1v-3.6H68l-1.8,1.8l1.8,1.8H69.7z"/>
	</g>
</g>
</svg>
