<?xml version="1.0" encoding="utf-8"?>
<!-- Generator: Adobe Illustrator 18.0.0, SVG Export Plug-In . SVG Version: 6.00 Build 0)  -->
<!DOCTYPE svg PUBLIC "-//W3C//DTD SVG 1.1//EN" "http://www.w3.org/Graphics/SVG/1.1/DTD/svg11.dtd">
<svg version="1.1" xmlns="http://www.w3.org/2000/svg" xmlns:xlink="http://www.w3.org/1999/xlink" x="0px" y="0px"
	 viewBox="0 0 82.3 71.6" enable-background="new 0 0 82.3 71.6" xml:space="preserve">
<g id="_x2014_ÎÓÈ_x5F_1" display="none">
	<rect x="-449.8" y="-192" display="inline" fill="#22313F" width="570" height="450"/>
</g>
<g id="_x2014_ÎÓÈ_x5F_2" display="none">
	<g display="inline">
		<path fill="#10AAC3" d="M-307.3-145.5v83.3c0,11.5-9.3,20.8-20.8,20.8h-83.3c-11.5,0-20.8-9.3-20.8-20.8v-83.3
			c0-11.5,9.3-20.8,20.8-20.8h83.3C-316.7-166.3-307.3-157-307.3-145.5z"/>
		<path opacity="0.3" d="M-376.4-141.2c0.5-0.8,1.9-1.4,3.7-1.4c2.1,0,3.9,0.9,3.9,1.9v4l-1.9,1.8h3.8v4l-1.9,1.8h7.7
			c1.1,0,1.9,0.9,1.9,1.9v5.2l2.2-2.1c0.2-0.4,0.4-0.6,0.7-0.6c0.5,0,1,0.8,1,1.8v10.8c0,0.9-0.4,1.6-0.8,1.7l-8,8.1v8.1l-1.9,1.8
			h8.1l3-3c0.3-0.5,0.9-0.9,1.6-0.9h5.8c1.1,0,1.9,0.9,1.9,1.9v13.6c0,0.7-0.4,1.2-0.9,1.6l-9.9,10h5v3.9l-23.7,23.8h-36.4
			c-11.5,0-20.8-9.3-20.8-20.8v-23.1L-376.4-141.2z"/>
		<path fill="#EEEEEE" d="M-377.4-117.9c0.8-0.8,0.8-2,0-2.7c-0.8-0.8-2-0.8-2.7,0c-0.8,0.8-0.8,2,0,2.7
			C-379.4-117.2-378.2-117.2-377.4-117.9z M-384.4-109.6h23.2c1.1,0,1.9-0.9,1.9-1.9v-4.8h1.9v4.4c0,1,0.4,1.8,1,1.8
			c0.5,0,1-0.8,1-1.8v-10.8c0-1-0.4-1.8-1-1.8c-0.5,0-1,0.8-1,1.8v4.4h-1.9v-8.7c0-1.1-0.9-1.9-1.9-1.9h-23.2
			c-1.1,0-1.9,0.9-1.9,1.9v15.5C-386.3-110.5-385.4-109.6-384.4-109.6z M-369.9-122c1.3-1.3,3.1-1.4,4.6-0.6l2.2-0.7l-0.7,2.2
			c0.8,1.5,0.6,3.4-0.6,4.6c-1.5,1.5-4,1.5-5.5,0C-371.4-118.1-371.4-120.5-369.9-122z M-381.5-122c1.3-1.3,3.1-1.4,4.6-0.6l2.2-0.7
			l-0.7,2.2c0.8,1.5,0.6,3.4-0.6,4.6c-1.5,1.5-4,1.5-5.5,0C-383-118.1-383-120.5-381.5-122z M-365.8-117.9c0.8-0.8,0.8-2,0-2.7
			c-0.8-0.8-2-0.8-2.7,0c-0.8,0.8-0.8,2,0,2.7C-367.8-117.2-366.6-117.2-365.8-117.9z M-366.9-76.7l7.8-7.8h-27.3l7.8,7.8H-366.9z
			 M-368.9-140.6c0-1.1-1.7-1.9-3.9-1.9c-2.1,0-3.9,0.9-3.9,1.9v4h7.7V-140.6z M-378.6-94v-13.7h-2.8V-94H-378.6z M-364.2-94v-13.7
			h-2.8V-94H-364.2z M-366.9-134.8h-11.6v4h11.6V-134.8z M-366.9-74.9h-11.6v5.9H-394v3.9h42.6V-69h-15.5V-74.9z M-368.9-107.8h-7.7
			v4h7.7V-107.8z M-347.6-96.1h-5.8c-1.1,0-1.9,0.9-1.9,1.9v13.6c0,1.1,0.9,1.9,1.9,1.9h5.8c1.1,0,1.9-0.9,1.9-1.9v-13.6
			C-345.7-95.2-346.5-96.1-347.6-96.1z M-350.5-82.5c-1.1,0-1.9-0.9-1.9-1.9c0-1.1,0.9-1.9,1.9-1.9c1.1,0,1.9,0.9,1.9,1.9
			C-348.6-83.4-349.4-82.5-350.5-82.5z M-350.5-88.3c-1.1,0-1.9-0.9-1.9-1.9c0-1.1,0.9-1.9,1.9-1.9c1.1,0,1.9,0.9,1.9,1.9
			C-348.6-89.2-349.4-88.3-350.5-88.3z M-372.7-98l1.9-1.9v-2h-3.9v2L-372.7-98z M-357.2-92.2h-34.9v5.8h34.9V-92.2z"/>
	</g>
</g>
<g id="_x2014_ÎÓÈ_x5F_3" display="none">
	<g display="inline">
		<path fill="#F39C12" d="M-170.3-145.5v83.3c0,11.5-9.3,20.8-20.8,20.8h-83.3c-11.5,0-20.8-9.3-20.8-20.8v-83.3
			c0-11.5,9.3-20.8,20.8-20.8h83.3C-179.7-166.3-170.3-157-170.3-145.5z"/>
		<path opacity="0.3" d="M-247.4-139.6c1.8-2.2,6.6-3.2,14.5-3.2c10.2,0,15.3,1.8,15.3,5.3v29.1l-1.9,1.8h13.8v4.2l-6.3,6.2v29.7
			c0,0.6-0.3,1.1-0.8,1.4l-23.8,23.8h-38c-11.5,0-20.8-9.3-20.8-20.8v-29.5L-247.4-139.6z"/>
		<path fill="#EEEEEE" d="M-245.4-137.5c0-1.4,5.6-2.6,12.6-2.6c6.9,0,12.6,1.2,12.6,2.6v29.1h2.8v-29.1c0-3.5-5.2-5.3-15.3-5.3
			c-10.2,0-15.3,1.8-15.3,5.3v29.1h2.8V-137.5z M-260.1-106.6v4.2h54.4v-4.2H-260.1z M-226.6-123.1h-3.1c0,1.7-1.4,3.1-3.1,3.1
			c-1.7,0-3.1-1.4-3.1-3.1h-3.1c0,3.5,2.8,6.3,6.3,6.3C-229.4-116.8-226.6-119.6-226.6-123.1z M-232.8-133.3c-4.6,0-8.4,3.8-8.4,8.4
			h16.7C-224.5-129.6-228.2-133.3-232.8-133.3z M-241.2-108.5h16.7v-4.2h-16.7V-108.5z M-242.7-88.4c-0.5-0.5-0.7-1.3-0.5-2
			l-1.6-1.6c-0.9,1.6-0.7,3.7,0.6,5.1c1.4,1.4,3.5,1.6,5.1,0.6l-1.6-1.6C-241.4-87.7-242.2-87.9-242.7-88.4z M-214-100.3h-37.7
			c-1.2,0-2.1,0.8-2.1,1.8v32c0,1,0.9,1.8,2.1,1.8h37.7c1.1,0,2.1-0.8,2.1-1.8v-32C-211.9-99.5-212.9-100.3-214-100.3z M-243.3-75.2
			c-1.2,0-2.1-0.9-2.1-2.1c0-1.2,0.9-2.1,2.1-2.1c1.2,0,2.1,0.9,2.1,2.1C-241.2-76.2-242.2-75.2-243.3-75.2z M-237-75.2
			c-1.2,0-2.1-0.9-2.1-2.1c0-1.2,0.9-2.1,2.1-2.1c1.2,0,2.1,0.9,2.1,2.1C-234.9-76.2-235.9-75.2-237-75.2z M-236.8-85.4
			c-2.4,2.5-6.4,2.5-8.9,0c-2.5-2.5-2.5-6.4,0-8.9c2.5-2.5,6.4-2.5,8.9,0C-234.3-91.9-234.3-87.9-236.8-85.4z M-217.1-68.9h-12.6
			c-0.6,0-1-0.5-1-1c0-0.6,0.5-1,1-1h12.6c0.6,0,1,0.5,1,1C-216.1-69.4-216.6-68.9-217.1-68.9z M-217.1-73.1h-12.6c-0.6,0-1-0.5-1-1
			c0-0.6,0.5-1.1,1-1.1h12.6c0.6,0,1,0.5,1,1.1C-216.1-73.6-216.6-73.1-217.1-73.1z M-217.1-77.3h-12.6c-0.6,0-1-0.5-1-1.1
			c0-0.6,0.5-1,1-1h12.6c0.6,0,1,0.5,1,1C-216.1-77.8-216.6-77.3-217.1-77.3z M-218.2-92c-0.2,0-0.4,0-0.5-0.1l-2.1,2.1
			c0.4,0.6,0.6,1.3,0.6,2.1c0,2.3-1.9,4.2-4.2,4.2c-2.3,0-4.2-1.9-4.2-4.2c0-2.3,1.9-4.2,4.2-4.2c0.8,0,1.5,0.2,2.1,0.6l2.1-2.2
			c0-0.2-0.1-0.3-0.1-0.5c0-1.2,0.9-2.1,2.1-2.1c1.2,0,2.1,0.9,2.1,2.1C-216.1-92.9-217-92-218.2-92z M-243.3-93.5l1.6,1.6
			c0.7-0.2,1.5,0,2,0.5c0.5,0.5,0.7,1.3,0.5,2l1.6,1.6c0.9-1.6,0.7-3.7-0.6-5.1C-239.6-94.2-241.7-94.4-243.3-93.5z"/>
	</g>
</g>
<g id="_x2014_ÎÓÈ_x5F_4" display="none">
	<g display="inline">
		<path fill="#2FCC58" d="M-33.3-145.5v83.3c0,11.5-9.3,20.8-20.8,20.8h-83.3c-11.5,0-20.8-9.3-20.8-20.8v-83.3
			c0-11.5,9.3-20.8,20.8-20.8h83.3C-42.7-166.3-33.3-157-33.3-145.5z"/>
		<path opacity="0.3" d="M-114.9-133.9c0.3-0.5,0.9-0.9,1.6-0.9h11.2l6.4-6.4c0.5-0.8,1.9-1.4,3.7-1.4c2.1,0,3.9,0.9,3.9,1.9v4
			l-1.9,1.8h1.9c1.1,0,1.9,0.9,1.9,1.9v1.9c0,0.7-0.4,1.3-0.9,1.6l-4.1,4.2h24.4v7.7l-3.9,3.8v13.7l-1.9,1.8h5.3
			c1.3,0,2.4,0.9,2.4,1.9v25.2c0,0,0,0.1,0,0.1l-1.8,1.8h3.8v3.9l-23.7,23.8h-50.9c-11.5,0-20.8-9.3-20.8-20.8v-28.3L-114.9-133.9z"
			/>
		<path fill="#EEEEEE" d="M-113.3-129h25.2c1.1,0,1.9-0.9,1.9-1.9v-1.9c0-1.1-0.9-1.9-1.9-1.9h-25.2c-1.1,0-1.9,0.9-1.9,1.9v1.9
			C-115.2-129.9-114.3-129-113.3-129z M-88.1-140.6c0-1.1-1.7-1.9-3.9-1.9c-2.1,0-3.9,0.9-3.9,1.9v4h7.7V-140.6z M-101.6-127.1
			h-11.6v13.6h11.6V-127.1z M-107.5-99.9l1.9-1.9v-2h-3.9v2L-107.5-99.9z M-103.6-111.7h-7.7v5.9h7.7V-111.7z M-120-114.3
			c0.5,0,1-0.8,1-1.7v-4.2h1.9v2.9h2v-7.7h-2v2.9h-1.9v-4.2c0-1-0.4-1.7-1-1.7c-0.5,0-1,0.8-1,1.7v10.4
			C-121-115.1-120.6-114.3-120-114.3z M-99.8-117.4h33v-7.7h-33V-117.4z M-78.4-115.5v15.7h7.7v-15.7H-78.4z M-122-82.5
			c0.5,0,1-0.4,1-1v-1.9h1.9v2.9h33v-7.7h-33v2.9h-1.9v-1.9c0-0.5-0.4-1-1-1c-0.5,0-1,0.4-1,1v5.8C-122.9-83-122.5-82.5-122-82.5z
			 M-86.1-80.7h-28.5l28.5,6.9V-80.7z M-128.7-69v3.9h65.8V-69H-128.7z M-75.9-89.5c-0.8,0.8-0.8,2,0,2.7c0.8,0.8,2,0.8,2.7,0
			c0.8-0.8,0.8-2,0-2.7C-73.9-90.2-75.2-90.2-75.9-89.5z M-81.8-98c-1.3,0-2.4,0.9-2.4,1.9v25.2c0,0,0,0.1,0,0.1h19.3
			c0,0,0-0.1,0-0.1v-25.2c0-1.1-1.1-1.9-2.4-1.9H-81.8z M-77.5-76.7c-1.1,0-1.9-0.9-1.9-1.9c0-1.1,0.9-1.9,1.9-1.9
			c1.1,0,1.9,0.9,1.9,1.9C-75.5-77.6-76.4-76.7-77.5-76.7z M-77.3-85.4c-1.5-1.5-1.5-4,0-5.5c1.3-1.3,3.1-1.5,4.6-0.6l2.2-0.7
			l-0.7,2.2c0.8,1.5,0.6,3.4-0.6,4.6C-73.3-83.9-75.8-83.9-77.3-85.4z M-71.7-76.7c-1.1,0-1.9-0.9-1.9-1.9c0-1.1,0.9-1.9,1.9-1.9
			c1.1,0,1.9,0.9,1.9,1.9C-69.7-77.6-70.6-76.7-71.7-76.7z M-115.2-92.1h15.5V-96h-15.5V-92.1z"/>
	</g>
</g>
<g id="_x2014_ÎÓÈ_x5F_5" display="none">
	<g display="inline">
		<path fill="#EF4836" d="M103.7-145.5v83.3c0,11.5-9.3,20.8-20.8,20.8H-0.5c-11.5,0-20.8-9.3-20.8-20.8v-83.3
			c0-11.5,9.3-20.8,20.8-20.8h83.3C94.3-166.3,103.7-157,103.7-145.5z"/>
		<path opacity="0.3" d="M14.2-135.4c0.5-0.8,1.9-1.4,3.7-1.4c2.1,0,3.9,0.9,3.9,1.9v7.8l-1.9,1.8h2.8c1.3,0,2.4,1.1,2.4,2.4v2.7
			l21.2-21.1c0.5-0.8,1.9-1.4,3.7-1.4c2.1,0,3.9,0.9,3.9,1.9v4l-1.9,1.8h3.9v7.8l-1.8,1.8h3.8c1.1,0,1.9,0.9,1.9,1.9v3.8l1.8-1.8
			h8.8v7.7L50.6-94h3.1v3.9l-1.8,1.8h11.5v1.6l2-1.9c0.1-0.4,0.5-0.6,0.9-0.6c0.5,0,1,0.4,1,1v5.8c0,0.4-0.3,0.8-0.6,0.9L54-69h20.1
			v3.9L50.4-41.3H-0.5c-11.5,0-20.8-9.3-20.8-20.8v-37.6L14.2-135.4z"/>
		<path fill="#EEEEEE" d="M44.1-117.4c0.7,0,1.3,0.4,1.7,1h2.1c-0.4-1.7-1.9-2.9-3.7-2.9c-1.8,0-3.3,1.2-3.7,2.9h2.1
			C42.7-117,43.3-117.4,44.1-117.4z M36.3-105.8h21.3c1.1,0,1.9-0.9,1.9-1.9v-15.5c0-1.1-0.9-1.9-1.9-1.9H36.3
			c-1.1,0-1.9,0.9-1.9,1.9v15.5C34.4-106.6,35.3-105.8,36.3-105.8z M53.7-121.2c1.1,0,1.9,0.9,1.9,1.9c0,1.1-0.9,1.9-1.9,1.9
			c-1.1,0-1.9-0.9-1.9-1.9C51.8-120.4,52.7-121.2,53.7-121.2z M44.1-121.2c3.2,0,5.8,2.6,5.8,5.8c0,3.2-2.6,5.8-5.8,5.8
			c-3.2,0-5.8-2.6-5.8-5.8C38.3-118.6,40.9-121.2,44.1-121.2z M44.1-111.6c1.8,0,3.3-1.2,3.7-2.9h-2.1c-0.3,0.6-1,1-1.7,1
			c-0.7,0-1.3-0.4-1.7-1h-2.1C40.8-112.8,42.3-111.6,44.1-111.6z M53.7-140.6c0-1.1-1.7-1.9-3.9-1.9c-2.1,0-3.9,0.9-3.9,1.9v4h7.7
			V-140.6z M13.2-103.8h9.5c1.3,0,2.4-1.1,2.4-2.4v-16.6c0-1.3-1.1-2.4-2.4-2.4h-9.5c-1.3,0-2.4,1.1-2.4,2.4v16.6
			C10.8-104.9,11.9-103.8,13.2-103.8z M17.9-119.3c1.1,0,1.9,0.9,1.9,1.9c0,1.1-0.9,1.9-1.9,1.9c-1.1,0-1.9-0.9-1.9-1.9
			C16-118.4,16.9-119.3,17.9-119.3z M17.9-113.5c1.1,0,1.9,0.9,1.9,1.9c0,1.1-0.9,1.9-1.9,1.9c-1.1,0-1.9-0.9-1.9-1.9
			C16-112.6,16.9-113.5,17.9-113.5z M21.8-102h-7.7v9.9h7.7V-102z M21.8-134.8c0-1.1-1.7-1.9-3.9-1.9c-2.1,0-3.9,0.9-3.9,1.9v7.8
			h7.7V-134.8z M47.9-95.2l1.9-1.9v-2H46v2L47.9-95.2z M70.2-121.2h-8.8v8.7l8.8-1V-121.2z M55.7-134.8H40.2v7.8h15.5V-134.8z
			 M25.6-73.2l35.9-4.7v-2.8H25.6V-73.2z M32.5-121.2h-5.7v12.6l5.7-0.6V-121.2z M25.6-82.5h37.8v-1.9h1.9v1.9c0,0.5,0.4,1,1,1
			c0.5,0,1-0.4,1-1v-5.8c0-0.5-0.4-1-1-1c-0.5,0-1,0.4-1,1v1.9h-1.9v-1.9H25.5c0.1,0.4,0.1,0.7,0.1,1.1V-82.5z M51.8-103.9h-7.7v3
			h7.7V-103.9z M12.1-87.2V-72c0,0.4,0.1,0.8,0.2,1.2h11.3c0.1-0.4,0.2-0.8,0.2-1.2v-15.2c0-1.7-0.9-3-1.9-3h-7.7
			C13-90.3,12.1-88.9,12.1-87.2z M8.3-69v3.9h65.8V-69H8.3z M42.1-90.2h11.6V-94H42.1V-90.2z"/>
	</g>
</g>
<g id="_x2014_ÎÓÈ_x5F_6" display="none">
	<g display="inline">
		<path fill="#2FCC58" d="M-307.3-8.5v83.3c0,11.5-9.3,20.8-20.8,20.8h-83.3c-11.5,0-20.8-9.3-20.8-20.8V-8.5
			c0-11.5,9.3-20.8,20.8-20.8h83.3C-316.7-29.3-307.3-20-307.3-8.5z"/>
		<path opacity="0.3" d="M-360.6,95.7h-50.9c-11.5,0-20.8-9.3-20.8-20.8V39.6L-395,2.2h18.9l6.4-6.4c0.5-0.8,1.9-1.4,3.7-1.4
			c2.1,0,3.9,0.9,3.9,1.9v4l-1.8,1.8h1.9v1.9l1.8-1.9h13.6l9.7,38.7v5.9l-1.9,1.8h1.9v23.2L-360.6,95.7z"/>
		<path fill="#EEEEEE" d="M-383.4,31.2l1.9-1.9v-2h-3.9v2L-383.4,31.2z M-362.1-3.6c0-1.1-1.7-1.9-3.9-1.9c-2.1,0-3.9,0.9-3.9,1.9v4
			h7.7V-3.6z M-379.5,19.5h-7.7v5.9h7.7V19.5z M-346.6,2.2h-13.5v44.6h23.2v-5.9L-346.6,2.2z M-367.9,46.7v-5.8h-31v1.9h-1.9v-1.9
			c0-0.5-0.4-1-1-1c-0.5,0-1,0.4-1,1v5.8c0,0.5,0.4,1,1,1c0.5,0,1-0.4,1-1v-1.9h1.9v1.9H-367.9z M-389.2,39.1h13.5v-3.9h-13.5V39.1z
			 M-384.8,11.3c-0.5-0.5-0.7-1.2-0.5-1.9l-1.5-1.5c-0.9,1.5-0.7,3.4,0.6,4.7c1.3,1.3,3.2,1.5,4.7,0.6l-1.5-1.5
			C-383.5,12-384.3,11.8-384.8,11.3z M-386.1,7.2C-386.1,7.2-386.1,7.2-386.1,7.2L-386.1,7.2C-386.1,7.2-386.1,7.2-386.1,7.2z
			 M-385.3,6.6l1.5,1.5c0.6-0.2,1.4,0,1.9,0.5c0.5,0.5,0.7,1.2,0.5,1.9l1.5,1.5c0.9-1.5,0.7-3.4-0.6-4.7
			C-381.9,5.9-383.9,5.8-385.3,6.6z M-362,2.2h-33v15.5h33V2.2z M-379.3,14.1c-2.3,2.3-5.9,2.3-8.2,0c-2.3-2.3-2.3-5.9,0-8.2
			c2.3-2.3,5.9-2.3,8.2,0C-377,8.1-377,11.8-379.3,14.1z M-395,58.3l15.5,13.5h42.6V48.7H-395V58.3z M-355.3,54.5h11.6
			c0.5,0,1,0.4,1,1c0,0.5-0.4,1-1,1h-11.6c-0.5,0-1-0.4-1-1C-356.3,54.9-355.9,54.5-355.3,54.5z M-355.3,58.3h11.6c0.5,0,1,0.4,1,1
			c0,0.5-0.4,1-1,1h-11.6c-0.5,0-1-0.4-1-1C-356.3,58.8-355.9,58.3-355.3,58.3z M-355.3,62.2h11.6c0.5,0,1,0.4,1,1c0,0.5-0.4,1-1,1
			h-11.6c-0.5,0-1-0.4-1-1C-356.3,62.6-355.9,62.2-355.3,62.2z M-381.5,52.5c1.1,0,1.9,0.9,1.9,1.9c0,1.1-0.9,1.9-1.9,1.9
			c-1.1,0-1.9-0.9-1.9-1.9C-383.4,53.4-382.5,52.5-381.5,52.5z M-387.3,52.5c1.1,0,1.9,0.9,1.9,1.9c0,1.1-0.9,1.9-1.9,1.9
			c-1.1,0-1.9-0.9-1.9-1.9C-389.2,53.4-388.3,52.5-387.3,52.5z"/>
	</g>
</g>
<g id="_x2014_ÎÓÈ_x5F_7" display="none">
	<g display="inline">
		<path fill="#EF4836" d="M-170.3-8.5v83.3c0,11.5-9.3,20.8-20.8,20.8h-83.3c-11.5,0-20.8-9.3-20.8-20.8V-8.5
			c0-11.5,9.3-20.8,20.8-20.8h83.3C-179.7-29.3-170.3-20-170.3-8.5z"/>
		<path opacity="0.3" d="M-265.7,0h56.7l5.7,6.7v2.2l-1.8,1.7v1.8l-1.9,1.8h1.9c1,0,1.8,0.8,1.8,1.8v7.2c0,0.6-0.4,1.2-0.9,1.5
			l-6.3,6.5v0.5l2.4-2.3c0.3-0.5,0.8-0.8,1.3-0.8h12.5c1,0,1.8,1.2,1.8,2.6v23.4c0,1.1-0.5,2-1.1,2.4l-2,2h1.3v12.5l-24.1,24.1h-56
			c-11.5,0-20.8-9.3-20.8-20.8V29.8L-265.7,0z"/>
		<path fill="#EEEEEE" d="M-258.8,50h42.9v-3.2h-42.9V50z M-203.3,23.3v-7.2c0-1-0.8-1.8-1.8-1.8h-7.2c-1,0-1.8,0.8-1.8,1.8v7.2
			c0,1,0.8,1.8,1.8,1.8h7.2C-204.1,25-203.3,24.2-203.3,23.3z M-269.5,25h7.2c1,0,1.8-0.8,1.8-1.8v-7.2c0-1-0.8-1.8-1.8-1.8h-7.2
			c-1,0-1.8,0.8-1.8,1.8v7.2C-271.3,24.2-270.5,25-269.5,25z M-239.1,28.7v5.3h3.6v-5.3H-239.1z M-244.5,39.4v3.6h14.3v-3.6
			l-3.6-3.6h-7.2L-244.5,39.4z M-269.5,12.5h7.2l0,0V8.9h50.1v3.5h7.2V8.9h1.8V6.7L-209,0h-56.7l-5.7,6.7v2.2h1.8V12.5z M-212.3,50
			h1.7V31.2c0-2.2,1.2-3.9,2.9-4.3h-4.6V50z M-269.5,26.9V50h7.2V26.9l0,0H-269.5z M-215.9,16.1h-42.8v7.2h16.1v3.6h10.7v-3.6h16.1
			V16.1z M-200.5,41.2c-1,0-1.8,0.8-1.8,1.8c0,1,0.8,1.8,1.8,1.8c1,0,1.8-0.8,1.8-1.8C-198.8,42-199.6,41.2-200.5,41.2z
			 M-194.4,28.6h-12.5c-1,0-1.8,1.2-1.8,2.6v23.4c0,1.4,0.8,2.6,1.8,2.6h12.5c1,0,1.8-1.2,1.8-2.6V31.2
			C-192.6,29.8-193.4,28.6-194.4,28.6z M-203.3,53.7c-1,0-1.8-0.8-1.8-1.8c0-1,0.8-1.8,1.8-1.8c1,0,1.8,0.8,1.8,1.8
			C-201.5,52.9-202.3,53.7-203.3,53.7z M-204.1,42.9c0-1.6,1.1-3,2.6-3.4l1-1.9l1,1.9c1.5,0.4,2.6,1.8,2.6,3.4c0,2-1.6,3.6-3.6,3.6
			C-202.5,46.5-204.1,44.9-204.1,42.9z M-198,53.7c-1,0-1.8-0.8-1.8-1.8c0-1,0.8-1.8,1.8-1.8c1,0,1.8,0.8,1.8,1.8
			C-196.2,52.9-197,53.7-198,53.7z M-196.2,35.8h-8.9v-3.6h8.9V35.8z M-210.5,54.7v-2.8h-62.6v19.7h21.5l3.6-8.9h21.5l3.6,8.9h28.6
			V59.1h-12.5C-208.9,59.1-210.5,57.1-210.5,54.7z M-256.1,66.2h-10.7c-0.5,0-0.9-0.4-0.9-0.9c0-0.5,0.4-0.9,0.9-0.9h10.7
			c0.5,0,0.9,0.4,0.9,0.9C-255.2,65.8-255.6,66.2-256.1,66.2z M-256.1,62.6h-10.7c-0.5,0-0.9-0.4-0.9-0.9c0-0.5,0.4-0.9,0.9-0.9
			h10.7c0.5,0,0.9,0.4,0.9,0.9C-255.2,62.2-255.6,62.6-256.1,62.6z M-256.1,59h-10.7c-0.5,0-0.9-0.4-0.9-0.9c0-0.5,0.4-0.9,0.9-0.9
			h10.7c0.5,0,0.9,0.4,0.9,0.9C-255.2,58.6-255.6,59-256.1,59z"/>
	</g>
</g>
<g id="_x2014_ÎÓÈ_x5F_8" display="none">
	<g display="inline">
		<path fill="#10AAC3" d="M-33.3-8.5v83.3c0,11.5-9.3,20.8-20.8,20.8h-83.3c-11.5,0-20.8-9.3-20.8-20.8V-8.5
			c0-11.5,9.3-20.8,20.8-20.8h83.3C-42.7-29.3-33.3-20-33.3-8.5z"/>
		<path opacity="0.3" d="M-128,0l21.5-1.8h14.3v7.2l-1.8,1.8v5.3l-1.8,1.8v3.5l-1.8,1.8v1.7l-1.8,1.8l-7.2,7.2V34l-5.4,5.4h4
			l10.3-10.7h1.8v3.6h1.8l0.9,1.8l-1.9,1.8h11.7l7.2-7.2h1.7l1.8-1.8h14.3v2.4l1.9-1.8c0.1-0.3,0.4-0.6,0.8-0.6
			c0.5,0,0.9,0.4,0.9,0.9v5.4c0,0.4-0.3,0.7-0.6,0.8l-5.3,5.4h2.3c1,0,1.8,0.8,1.8,1.8v10.7c0,0.6-0.3,1.2-0.9,1.5l-2,2.1h1.1v16.1
			l-24.1,24.1h-55.1c-11.5,0-20.8-9.3-20.8-20.8V30.5L-128,0z"/>
		<path fill="#EEEEEE" d="M-94.1,32.2h-1.8v-3.6h-1.8v3.6h-1.8l-0.9,1.7h7.1L-94.1,32.2z M-104.8,37.6v14.3c0,1,0.8,1.8,1.8,1.8
			h19.7c1,0,1.8-0.8,1.8-1.8V37.6c0-1-0.8-1.8-1.8-1.8H-103C-104,35.8-104.8,36.6-104.8,37.6z M-86.9,39.4c1,0,1.8,0.8,1.8,1.8
			c0,1-0.8,1.8-1.8,1.8c-1,0-1.8-0.8-1.8-1.8C-88.7,40.2-87.9,39.4-86.9,39.4z M-95.8,39.4c3,0,5.4,2.4,5.4,5.4c0,3-2.4,5.4-5.4,5.4
			c-3,0-5.4-2.4-5.4-5.4C-101.2,41.8-98.8,39.4-95.8,39.4z M-95.8,46.5c-0.7,0-1.2-0.4-1.5-0.9h-1.9c0.4,1.5,1.8,2.7,3.5,2.7
			c1.7,0,3.1-1.1,3.5-2.7h-1.9C-94.6,46.2-95.2,46.5-95.8,46.5z M-95.8,43c0.7,0,1.2,0.4,1.5,0.9h1.9c-0.4-1.5-1.8-2.7-3.5-2.7
			c-1.7,0-3.1,1.1-3.5,2.7h1.9C-97.1,43.3-96.5,43-95.8,43z M-113.7,51.4c0,0.2,0,0.3,0,0.5h7.1v-3.5h-7.1V51.4z M-106.6,39.4h-7.1
			v1.7h7.1V39.4z M-69.1,48.4h-10.6v3.5h10.6V48.4z M-106.6,43h-7.1v3.6h7.1V43z M-69.1,43h-10.6v3.6h10.6V43z M-65.4,37.5h5.4v-1.7
			h-10.7v3.5h-8.9v1.7H-69C-69,39.2-67.4,37.5-65.4,37.5z M-106.6,25.1h-3.6v-1.8h-3.6v12.5h3.6V34h3.6V25.1z M-58.3,39.4h-7.2
			c-1,0-1.8,0.8-1.8,1.8v10.7c0,1,0.8,1.8,1.8,1.8h7.2c1,0,1.8-0.8,1.8-1.8V41.2C-56.5,40.2-57.3,39.4-58.3,39.4z M-55.6,26.9
			c-0.5,0-0.9,0.4-0.9,0.9v1.8h-1.8v-2.7h-14.3V34h14.3v-2.7h1.8v1.8c0,0.5,0.4,0.9,0.9,0.9c0.5,0,0.9-0.4,0.9-0.9v-5.4
			C-54.7,27.3-55.1,26.9-55.6,26.9z M-74.4,32.2v-3.6h-1.7l-1.8,1.8l1.8,1.8H-74.4z M-97.6,21.5v-1.7h-3.6v1.7l1.8,1.8L-97.6,21.5z
			 M-103,16.2v1.7h7.2v-3.5h-2.4C-99.6,15.5-101.2,16.2-103,16.2z M-111.9,7.2v5.3h2.7c-0.6-1.1-1-2.3-1-3.6c0-0.6,0.1-1.2,0.2-1.7
			H-111.9z M-108.1,3.9c1.4-1.4,3.2-2.1,5.1-2.1c1.9,0,3.7,0.8,5.1,2.1c0.5,0.5,0.8,1,1.2,1.5h4.5v-7.2h-14.3L-128.1,0v5.4h18.8
			C-108.9,4.8-108.6,4.3-108.1,3.9z M-94.1,12.6V7.2h-2c0.1,0.6,0.2,1.1,0.2,1.7c0,1.3-0.3,2.5-1,3.6H-94.1z M-119.1,7.2h-9.4
			l-3.1,12.4h12.5V7.2z M-99.2,12.8c2.1-2.1,2.1-5.5,0-7.6c-2.1-2.1-5.5-2.1-7.6,0c-2.1,2.1-2.1,5.5,0,7.6
			C-104.7,14.9-101.3,14.9-99.2,12.8z M-100.5,11.5C-100.5,11.5-100.5,11.5-100.5,11.5L-100.5,11.5
			C-100.5,11.5-100.5,11.5-100.5,11.5z M-100.5,6.4c1.2,1.2,1.4,3,0.5,4.3l-1.4-1.4c0.2-0.6,0-1.3-0.5-1.7c-0.5-0.5-1.1-0.6-1.7-0.5
			l-1.4-1.4C-103.4,5.1-101.6,5.3-100.5,6.4z M-106.1,7.2l1.4,1.4c-0.2,0.6,0,1.3,0.5,1.7c0.5,0.5,1.1,0.6,1.7,0.5l1.4,1.4
			c-1.4,0.8-3.2,0.6-4.3-0.5C-106.7,10.3-106.9,8.5-106.1,7.2z M-115.5,51.4V23.8c0-1.3-0.8-2.3-1.8-2.3h-17.9c-1,0-1.8,1-1.8,2.3
			v27.6c0,1.3,0.8,2.3,1.8,2.3h17.9C-116.3,53.7-115.5,52.7-115.5,51.4z M-129.8,44.8c-1,0-1.8-0.8-1.8-1.8c0-1,0.8-1.8,1.8-1.8
			c1,0,1.8,0.8,1.8,1.8C-128.1,44-128.9,44.8-129.8,44.8z M-122.7,44.8c-1,0-1.8-0.8-1.8-1.8c0-1,0.8-1.8,1.8-1.8
			c1,0,1.8,0.8,1.8,1.8C-120.9,44-121.7,44.8-122.7,44.8z M-120.9,30.4c-0.2,0-0.3,0-0.5-0.1l-1.8,1.8c0.3,0.5,0.5,1.1,0.5,1.8
			c0,2-1.6,3.6-3.6,3.6c-2,0-3.6-1.6-3.6-3.6c0-2,1.6-3.6,3.6-3.6c0.7,0,1.3,0.2,1.8,0.5l1.8-1.8c0-0.1-0.1-0.3-0.1-0.5
			c0-1,0.8-1.8,1.8-1.8c1,0,1.8,0.8,1.8,1.8C-119.1,29.6-119.9,30.4-120.9,30.4z M-68.5,53.8h-11.7c-0.6,1.1-1.8,1.8-3.1,1.8H-103
			c-1.3,0-2.5-0.7-3.1-1.8h-8.2c-0.7,1.1-1.7,1.8-3,1.8h-16.1v16.1h21.5l3.6-10.7h34l5.4,10.7h10.7V55.5h-7.2
			C-66.8,55.5-67.9,54.8-68.5,53.8z M-116.4,67.2h-10.7c-0.5,0-0.9-0.4-0.9-0.9c0-0.5,0.4-0.9,0.9-0.9h10.7c0.5,0,0.9,0.4,0.9,0.9
			C-115.5,66.8-115.9,67.2-116.4,67.2z M-116.4,63.6h-10.7c-0.5,0-0.9-0.4-0.9-0.9c0-0.5,0.4-0.9,0.9-0.9h10.7
			c0.5,0,0.9,0.4,0.9,0.9C-115.5,63.2-115.9,63.6-116.4,63.6z M-116.4,60h-10.7c-0.5,0-0.9-0.4-0.9-0.9c0-0.5,0.4-0.9,0.9-0.9h10.7
			c0.5,0,0.9,0.4,0.9,0.9C-115.5,59.6-115.9,60-116.4,60z"/>
	</g>
</g>
<g id="_x2014_ÎÓÈ_x5F_9">
	<g>
		<path display="none" fill="#F39C12" d="M103.7-8.5v83.3c0,11.5-9.3,20.8-20.8,20.8H-0.5c-11.5,0-20.8-9.3-20.8-20.8V-8.5
			c0-11.5,9.3-20.8,20.8-20.8h83.3C94.3-29.3,103.7-20,103.7-8.5z"/>
		<path display="none" opacity="0.3" d="M16.1,0h12.5v19.7L44.7,3.6h12.7L60.8,0h8.9l12.5,37.6v12.5l-1.8,1.8v19.7L56.4,95.7H-0.5
			c-11.5,0-20.8-9.3-20.8-20.8V37.5L16.1,0z"/>
		<path fill="#EEEEEE" d="M35.8,39.3h19.7v-3.6H35.8V39.3z M59,3.6H44.7v7.2H59V3.6z M50.1,23.3l1.8-1.8v-1.7h-3.6v1.7L50.1,23.3z
			 M53.7,12.6h-7.2v5.3h7.2V12.6z M34,32.2h3.6V21.5H34v-1.8h-3.6V34H34V32.2z M8.4,33.7c0.7-0.7,0.7-1.8,0-2.5
			c-0.7-0.7-1.8-0.7-2.5,0c-0.7,0.7-0.7,1.8,0,2.5C6.6,34.4,7.7,34.4,8.4,33.7z M28.6,0H16.1L0,17.9v34h1.7V50h26.9V0z M15.4,29.9
			c1.2-1.2,2.9-1.3,4.3-0.6l2.1-0.7L21,30.7c0.8,1.4,0.6,3.1-0.6,4.3c-1.4,1.4-3.7,1.4-5.1,0C14,33.6,14,31.3,15.4,29.9z M4.6,29.9
			c1.2-1.2,2.9-1.3,4.3-0.6l2.1-0.7l-0.7,2.1C11,32,10.8,33.8,9.7,35c-1.4,1.4-3.7,1.4-5.1,0C3.2,33.6,3.2,31.3,4.6,29.9z
			 M12.5,41.2c-0.2,0-0.3,0-0.5-0.1l-1.8,1.8c0.3,0.5,0.5,1.1,0.5,1.8c0,2-1.6,3.6-3.6,3.6c-2,0-3.6-1.6-3.6-3.6
			c0-2,1.6-3.6,3.6-3.6c0.7,0,1.3,0.2,1.8,0.5l1.8-1.8c0-0.1-0.1-0.3-0.1-0.5c0-1,0.8-1.8,1.8-1.8c1,0,1.8,0.8,1.8,1.8
			C14.3,40.4,13.5,41.2,12.5,41.2z M23.3,41.2c-0.2,0-0.3,0-0.5-0.1L21,42.9c0.3,0.5,0.5,1.1,0.5,1.8c0,2-1.6,3.6-3.6,3.6
			c-2,0-3.6-1.6-3.6-3.6c0-2,1.6-3.6,3.6-3.6c0.7,0,1.3,0.2,1.8,0.5l1.8-1.8c0-0.1-0.1-0.3-0.1-0.5c0-1,0.8-1.8,1.8-1.8
			c1,0,1.8,0.8,1.8,1.8C25.1,40.4,24.2,41.2,23.3,41.2z M19.2,33.7c0.7-0.7,0.7-1.8,0-2.5c-0.7-0.7-1.8-0.7-2.5,0
			c-0.7,0.7-0.7,1.8,0,2.5C17.3,34.4,18.5,34.4,19.2,33.7z M69.8,0h-8.9v41.2H32.2v8.9h50.1V37.6L69.8,0z M71.6,42.9
			c-1,0-1.8-0.8-1.8-1.8c0-1,0.8-1.8,1.8-1.8c1,0,1.8,0.8,1.8,1.8C73.4,42.1,72.6,42.9,71.6,42.9z M71.6,37.6c-1,0-1.8-0.8-1.8-1.8
			c0-1,0.8-1.8,1.8-1.8c1,0,1.8,0.8,1.8,1.8C73.4,36.8,72.6,37.6,71.6,37.6z M3.6,71.6h18.3l3.7-7.2h33l3.7,7.2h18.3V51.9H3.6V71.6z
			 M9.8,55.5h10.7c0.5,0,0.9,0.4,0.9,0.9c0,0.5-0.4,0.9-0.9,0.9H9.8c-0.5,0-0.9-0.4-0.9-0.9C8.9,55.9,9.3,55.5,9.8,55.5z M9.8,59
			h10.7c0.5,0,0.9,0.4,0.9,0.9c0,0.5-0.4,0.9-0.9,0.9H9.8c-0.5,0-0.9-0.4-0.9-0.9C8.9,59.4,9.3,59,9.8,59z M9.8,62.6h10.7
			c0.5,0,0.9,0.4,0.9,0.9s-0.4,0.9-0.9,0.9H9.8c-0.5,0-0.9-0.4-0.9-0.9S9.3,62.6,9.8,62.6z"/>
	</g>
</g>
<g id="_x2014_ÎÓÈ_x5F_10" display="none">
	<g display="inline">
		<path fill="#F39C12" d="M-307.3,128.5v83.3c0,11.5-9.3,20.8-20.8,20.8h-83.3c-11.5,0-20.8-9.3-20.8-20.8v-83.3
			c0-11.5,9.3-20.8,20.8-20.8h83.3C-316.7,107.7-307.3,117-307.3,128.5z"/>
		<path opacity="0.3" d="M-397.4,141.8c0.5-0.8,1.8-1.3,3.4-1.3c2,0,3.6,0.8,3.6,1.9v3.6l1.8-1.9h8.2l2.8-2.7
			c0.3-0.5,0.8-0.9,1.5-0.9h19.7c1,0,1.8,0.8,1.8,1.8v3.7l1.8-1.9h10.4l2.3-2.3c0.5-0.8,1.8-1.3,3.4-1.3c2,0,3.6,0.8,3.6,1.9V187
			l-1.9,1.8h5.5v19.7l-24,24.2h-57.9c-11.5,0-20.8-9.3-20.8-20.8v-35.1L-397.4,141.8z"/>
		<path fill="#EEEEEE" d="M-392.2,168.2V187h1.7v-44.6c0-1-1.6-1.9-3.6-1.9c-2,0-3.6,0.8-3.6,1.9v21.4h1.8
			C-393.8,163.7-392.2,165.7-392.2,168.2z M-386.8,187h42.9v-3.2h-42.9V187z M-333.2,142.4c0-1-1.6-1.9-3.6-1.9
			c-2,0-3.6,0.8-3.6,1.9V187h7.2V142.4z M-342.2,144.1h-10.6v10.7h10.6V144.1z M-379.7,144.1h-8.8v10.7h8.8V144.1z M-376.1,158.4
			h19.7c1,0,1.8-0.8,1.8-1.8v-14.3c0-1-0.8-1.8-1.8-1.8h-19.7c-1,0-1.8,0.8-1.8,1.8v14.3C-377.9,157.6-377.1,158.4-376.1,158.4z
			 M-360,144.1c1,0,1.8,0.8,1.8,1.8c0,1-0.8,1.8-1.8,1.8c-1,0-1.8-0.8-1.8-1.8C-361.8,144.9-361,144.1-360,144.1z M-368.9,144.1
			c3,0,5.4,2.4,5.4,5.4c0,3-2.4,5.4-5.4,5.4c-3,0-5.4-2.4-5.4-5.4C-374.3,146.5-371.9,144.1-368.9,144.1z M-368.9,147.7
			c0.7,0,1.2,0.4,1.5,0.9h1.9c-0.4-1.5-1.8-2.7-3.5-2.7c-1.7,0-3.1,1.1-3.5,2.7h1.9C-370.2,148-369.6,147.7-368.9,147.7z
			 M-368.9,153.1c1.7,0,3.1-1.1,3.5-2.7h-1.9c-0.3,0.5-0.9,0.9-1.5,0.9c-0.7,0-1.2-0.4-1.5-0.9h-1.9
			C-372,151.9-370.6,153.1-368.9,153.1z M-365.4,170.9l1.8-1.8v-1.7h-3.6v1.7L-365.4,170.9z M-361.8,160.3h-7.2v5.3h7.2V160.3z
			 M-394,191.6v-23.4c0-1.4-0.8-2.6-1.8-2.6h-12.5c-1,0-1.8,1.2-1.8,2.6v23.4c0,1.4,0.8,2.6,1.8,2.6h12.5
			C-394.8,194.2-394,193-394,191.6z M-404.7,190.6c-1,0-1.8-0.8-1.8-1.8c0-1,0.8-1.8,1.8-1.8c1,0,1.8,0.8,1.8,1.8
			C-402.9,189.8-403.8,190.6-404.7,190.6z M-404.7,185.3c-1,0-1.8-0.8-1.8-1.8c0-1,0.8-1.8,1.8-1.8c1,0,1.8,0.8,1.8,1.8
			C-402.9,184.5-403.8,185.3-404.7,185.3z M-404.7,179.9c-1,0-1.8-0.8-1.8-1.8c0-1,0.8-1.8,1.8-1.8c1,0,1.8,0.8,1.8,1.8
			C-402.9,179.1-403.8,179.9-404.7,179.9z M-399.4,190.6c-1,0-1.8-0.8-1.8-1.8c0-1,0.8-1.8,1.8-1.8c1,0,1.8,0.8,1.8,1.8
			C-397.6,189.8-398.4,190.6-399.4,190.6z M-399.4,185.3c-1,0-1.8-0.8-1.8-1.8c0-1,0.8-1.8,1.8-1.8c1,0,1.8,0.8,1.8,1.8
			C-397.6,184.5-398.4,185.3-399.4,185.3z M-399.4,179.9c-1,0-1.8-0.8-1.8-1.8c0-1,0.8-1.8,1.8-1.8c1,0,1.8,0.8,1.8,1.8
			C-397.6,179.1-398.4,179.9-399.4,179.9z M-397.6,172.7h-8.9v-3.6h8.9V172.7z M-392.2,188.8v2.8c0,2.5-1.6,4.4-3.6,4.4h-5.4v12.5
			h21.5l3.6-8.9h21.5l3.6,8.9h21.5v-19.7H-392.2z M-335.8,203.2h-10.7c-0.5,0-0.9-0.4-0.9-0.9c0-0.5,0.4-0.9,0.9-0.9h10.7
			c0.5,0,0.9,0.4,0.9,0.9C-335,202.8-335.4,203.2-335.8,203.2z M-335.8,199.6h-10.7c-0.5,0-0.9-0.4-0.9-0.9c0-0.5,0.4-0.9,0.9-0.9
			h10.7c0.5,0,0.9,0.4,0.9,0.9C-335,199.2-335.4,199.6-335.8,199.6z M-335.8,196h-10.7c-0.5,0-0.9-0.4-0.9-0.9
			c0-0.5,0.4-0.9,0.9-0.9h10.7c0.5,0,0.9,0.4,0.9,0.9C-335,195.6-335.4,196-335.8,196z"/>
	</g>
</g>
<g id="_x2014_ÎÓÈ_x5F_11" display="none">
	<g display="inline">
		<path fill="#10AAC3" d="M-170.3,128.5v83.3c0,11.5-9.3,20.8-20.8,20.8h-83.3c-11.5,0-20.8-9.3-20.8-20.8v-83.3
			c0-11.5,9.3-20.8,20.8-20.8h83.3C-179.7,107.7-170.3,117-170.3,128.5z"/>
		<path opacity="0.3" d="M-215.8,232.7h-58.7c-11.5,0-20.8-9.3-20.8-20.8v-47.2l19.8-19.8c0.3-0.5,0.9-0.9,1.5-0.9h23.3
			c1,0,1.8,0.8,1.8,1.8v1.8l1.8-1.8h55.4c1,0,1.8,0.8,1.8,1.8v23.3l-1.9,1.8h1.9v12.5c0,0.6-0.4,1.2-0.9,1.5l-2.1,2.1h1.1v19.6
			L-215.8,232.7z"/>
		<path fill="#EEEEEE" d="M-191.7,145.8h-55.4v25h57.2v-23.3C-189.9,146.6-190.7,145.8-191.7,145.8z M-243.6,161
			c0,0.5-0.4,0.9-0.9,0.9c-0.5,0-0.9-0.4-0.9-0.9v-5.4c0-0.5,0.4-0.9,0.9-0.9c0.5,0,0.9,0.4,0.9,0.9V161z M-198.8,161.9
			c0,1-0.8,1.8-1.8,1.8h-37.6c-1,0-1.8-0.8-1.8-1.8V153c0-1,0.8-1.8,1.8-1.8h37.6c1,0,1.8,0.8,1.8,1.8V161.9z M-193.5,161
			c0,0.5-0.4,0.9-0.9,0.9c-0.5,0-0.9-0.4-0.9-0.9v-5.4c0-0.5,0.4-0.9,0.9-0.9c0.5,0,0.9,0.4,0.9,0.9V161z M-247.1,185.2
			c0,0.6-0.2,1.2-0.5,1.7c0.1,0,0.3,0.1,0.4,0.1h55.5c1,0,1.8-0.8,1.8-1.8v-12.5h-57.2V185.2z M-269.9,177c-0.7,0.7-0.7,1.8,0,2.5
			c0.7,0.7,1.8,0.7,2.5,0c0.7-0.7,0.7-1.8,0-2.5C-268.1,176.3-269.2,176.3-269.9,177z M-259.2,177c-0.7,0.7-0.7,1.8,0,2.5
			c0.7,0.7,1.8,0.7,2.5,0c0.7-0.7,0.7-1.8,0-2.5C-257.3,176.3-258.5,176.3-259.2,177z M-248.9,185.2v-39.4c0-1-0.8-1.8-1.8-1.8H-274
			c-1,0-1.8,0.8-1.8,1.8v39.4c0,1,0.8,1.8,1.8,1.8h23.3C-249.8,187-248.9,186.2-248.9,185.2z M-270.4,149.4h16.1v5.4h-16.1V149.4z
			 M-257.9,161.9c-1,0-1.8-0.8-1.8-1.8c0-1,0.8-1.8,1.8-1.8c1,0,1.8,0.8,1.8,1.8C-256.1,161.1-256.9,161.9-257.9,161.9z
			 M-256.1,165.5c0,1-0.8,1.8-1.8,1.8c-1,0-1.8-0.8-1.8-1.8c0-1,0.8-1.8,1.8-1.8C-256.9,163.7-256.1,164.5-256.1,165.5z
			 M-268.6,158.4c1,0,1.8,0.8,1.8,1.8c0,1-0.8,1.8-1.8,1.8c-1,0-1.8-0.8-1.8-1.8C-270.4,159.2-269.6,158.4-268.6,158.4z
			 M-268.6,163.7c1,0,1.8,0.8,1.8,1.8c0,1-0.8,1.8-1.8,1.8c-1,0-1.8-0.8-1.8-1.8C-270.4,164.5-269.6,163.7-268.6,163.7z
			 M-266.1,180.8c-1.4,1.4-3.7,1.4-5.1,0c-1.4-1.4-1.4-3.7,0-5.1c1.2-1.2,2.9-1.3,4.3-0.6l2.1-0.7l-0.7,2.1
			C-264.8,177.9-264.9,179.6-266.1,180.8z M-263.3,167.3c-1,0-1.8-0.8-1.8-1.8c0-1,0.8-1.8,1.8-1.8c1,0,1.8,0.8,1.8,1.8
			C-261.5,166.5-262.3,167.3-263.3,167.3z M-263.3,161.9c-1,0-1.8-0.8-1.8-1.8c0-1,0.8-1.8,1.8-1.8c1,0,1.8,0.8,1.8,1.8
			C-261.5,161.1-262.3,161.9-263.3,161.9z M-255.4,180.8c-1.4,1.4-3.7,1.4-5.1,0c-1.4-1.4-1.4-3.7,0-5.1c1.2-1.2,2.9-1.3,4.3-0.6
			l2.1-0.7l-0.7,2.1C-254,177.9-254.2,179.6-255.4,180.8z M-248,188.7l-1.2-0.3c-0.5,0.2-1,0.4-1.6,0.4h-21.5v19.6h23.3l3.6-8.9
			h35.8l3.6,8.9h14.3v-19.6h-55.5C-247.4,188.8-247.7,188.8-248,188.7z M-255.2,200.4h-10.7c-0.5,0-0.9-0.4-0.9-0.9
			c0-0.5,0.4-0.9,0.9-0.9h10.7c0.5,0,0.9,0.4,0.9,0.9C-254.3,200-254.7,200.4-255.2,200.4z M-255.2,196.9h-10.7
			c-0.5,0-0.9-0.4-0.9-0.9c0-0.5,0.4-0.9,0.9-0.9h10.7c0.5,0,0.9,0.4,0.9,0.9C-254.3,196.5-254.7,196.9-255.2,196.9z M-255.2,193.3
			h-10.7c-0.5,0-0.9-0.4-0.9-0.9c0-0.5,0.4-0.9,0.9-0.9h10.7c0.5,0,0.9,0.4,0.9,0.9C-254.3,192.9-254.7,193.3-255.2,193.3z"/>
	</g>
</g>
<g id="_x2014_ÎÓÈ_x5F_12" display="none">
	<g display="inline">
		<path fill="#EF4836" d="M-33.3,128.5v83.3c0,11.5-9.3,20.8-20.8,20.8h-83.3c-11.5,0-20.8-9.3-20.8-20.8v-83.3
			c0-11.5,9.3-20.8,20.8-20.8h83.3C-42.7,107.7-33.3,117-33.3,128.5z"/>
		<path opacity="0.3" d="M-79.7,232.7h-57.8c-11.5,0-20.8-9.3-20.8-20.8v-48l19-19c0.3-0.5,0.9-0.9,1.5-0.9h23.2v1.1l2.1-2.1
			c0.3-0.5,0.9-0.9,1.5-0.9h39.4c1,0,1.8,0.8,1.8,1.8v1.9l1.8-1.9h14.3c1,0,1.8,0.8,1.8,1.8v39.4c0,0.6-0.4,1.2-0.9,1.5l-2.7,2.8v19
			L-79.7,232.7z"/>
		<path fill="#EEEEEE" d="M-111.1,188.8h39.4c1,0,1.8-0.8,1.8-1.8v-42.9c0-1-0.8-1.8-1.8-1.8h-39.4c-1,0-1.8,0.8-1.8,1.8V187
			C-112.8,188-112,188.8-111.1,188.8z M-75.3,180.8c0,0.5-0.4,0.9-0.9,0.9c-0.5,0-0.9-0.4-0.9-0.9v-5.4c0-0.5,0.4-0.9,0.9-0.9
			c0.5,0,0.9,0.4,0.9,0.9V180.8z M-107.5,151.2c0-1,0.8-1.8,1.8-1.8h28.6c1,0,1.8,0.8,1.8,1.8v14.3c0,1-0.8,1.8-1.8,1.8h-28.6
			c-1,0-1.8-0.8-1.8-1.8V151.2z M-107.5,175.4c0-0.5,0.4-0.9,0.9-0.9c0.5,0,0.9,0.4,0.9,0.9v5.4c0,0.5-0.4,0.9-0.9,0.9
			c-0.5,0-0.9-0.4-0.9-0.9V175.4z M-133.8,178.6c-0.7,0.7-0.7,1.8,0,2.5c0.7,0.7,1.8,0.7,2.5,0c0.7-0.7,0.7-1.8,0-2.5
			C-132,177.9-133.1,177.9-133.8,178.6z M-114.7,144.1h-23.2c-1,0-1.8,0.8-1.8,1.8v39.4c0,1,0.8,1.8,1.8,1.8h23.2V144.1z
			 M-134.3,149.4h14.3v5.4h-14.3V149.4z M-121.8,169.1c1,0,1.8,0.8,1.8,1.8c0,1-0.8,1.8-1.8,1.8c-1,0-1.8-0.8-1.8-1.8
			C-123.6,169.9-122.8,169.1-121.8,169.1z M-123.6,165.5c0-1,0.8-1.8,1.8-1.8c1,0,1.8,0.8,1.8,1.8c0,1-0.8,1.8-1.8,1.8
			C-122.8,167.3-123.6,166.5-123.6,165.5z M-121.8,162c-1,0-1.8-0.8-1.8-1.8c0-1,0.8-1.8,1.8-1.8c1,0,1.8,0.8,1.8,1.8
			C-120,161.2-120.8,162-121.8,162z M-127.2,162c-1,0-1.8-0.8-1.8-1.8c0-1,0.8-1.8,1.8-1.8c1,0,1.8,0.8,1.8,1.8
			C-125.4,161.2-126.2,162-127.2,162z M-125.4,165.5c0,1-0.8,1.8-1.8,1.8c-1,0-1.8-0.8-1.8-1.8c0-1,0.8-1.8,1.8-1.8
			C-126.2,163.8-125.4,164.6-125.4,165.5z M-130.7,160.2c0,1-0.8,1.8-1.8,1.8c-1,0-1.8-0.8-1.8-1.8c0-1,0.8-1.8,1.8-1.8
			C-131.5,158.4-130.7,159.2-130.7,160.2z M-132.5,163.8c1,0,1.8,0.8,1.8,1.8c0,1-0.8,1.8-1.8,1.8s-1.8-0.8-1.8-1.8
			C-134.3,164.6-133.5,163.8-132.5,163.8z M-130.7,170.9c0,1-0.8,1.8-1.8,1.8c-1,0-1.8-0.8-1.8-1.8c0-1,0.8-1.8,1.8-1.8
			C-131.5,169.1-130.7,169.9-130.7,170.9z M-130,182.4c-1.4,1.4-3.7,1.4-5.1,0c-1.4-1.4-1.4-3.7,0-5.1c1.2-1.2,2.9-1.3,4.3-0.6
			l2.1-0.7l-0.7,2.1C-128.7,179.5-128.8,181.2-130,182.4z M-127.2,172.7c-1,0-1.8-0.8-1.8-1.8c0-1,0.8-1.8,1.8-1.8
			c1,0,1.8,0.8,1.8,1.8C-125.4,171.9-126.2,172.7-127.2,172.7z M-119.3,182.4c-1.4,1.4-3.7,1.4-5.1,0c-1.4-1.4-1.4-3.7,0-5.1
			c1.2-1.2,2.9-1.3,4.3-0.6l2.1-0.7l-0.7,2.1C-117.9,179.5-118.1,181.2-119.3,182.4z M-53.8,144.1h-14.3V187h14.3
			c1,0,1.8-0.8,1.8-1.8v-39.4C-52,144.9-52.8,144.1-53.8,144.1z M-123.1,178.6c-0.7,0.7-0.7,1.8,0,2.5c0.7,0.7,1.8,0.7,2.5,0
			c0.7-0.7,0.7-1.8,0-2.5C-121.2,177.9-122.4,177.9-123.1,178.6z M-71.7,190.6h-39.4c-1.3,0-2.5-0.7-3.1-1.8h-21.9v19.6h23.3
			l3.6-8.9h35.8l3.6,8.9h14.3v-19.6h-13C-69.2,189.9-70.4,190.6-71.7,190.6z M-119.1,200.5h-10.7c-0.5,0-0.9-0.4-0.9-0.9
			c0-0.5,0.4-0.9,0.9-0.9h10.7c0.5,0,0.9,0.4,0.9,0.9C-118.2,200.1-118.6,200.5-119.1,200.5z M-119.1,196.9h-10.7
			c-0.5,0-0.9-0.4-0.9-0.9c0-0.5,0.4-0.9,0.9-0.9h10.7c0.5,0,0.9,0.4,0.9,0.9C-118.2,196.5-118.6,196.9-119.1,196.9z M-119.1,193.3
			h-10.7c-0.5,0-0.9-0.4-0.9-0.9c0-0.5,0.4-0.9,0.9-0.9h10.7c0.5,0,0.9,0.4,0.9,0.9C-118.2,192.9-118.6,193.3-119.1,193.3z"/>
	</g>
</g>
<g id="_x2014_ÎÓÈ_x5F_13">
	<g>
		<path display="none" fill="#2FCC58" d="M103.7,128.5v83.3c0,11.5-9.3,20.8-20.8,20.8H-0.5c-11.5,0-20.8-9.3-20.8-20.8v-83.3
			c0-11.5,9.3-20.8,20.8-20.8h83.3C94.3,107.7,103.7,117,103.7,128.5z"/>
		<path display="none" opacity="0.3" d="M-3.3,144.9c0.3-0.5,0.9-0.9,1.5-0.9h30.4c1,0,1.8,0.8,1.8,1.8v7.3l1.8-1.9h3.6v1.8h3.6
			v10.7l-10.7,10.7v1.3l3.1-3.1h2.7l13.8-14.3h1.8v3.6h1.8l1.3,5.3l-1.9,1.8h0.6l12.5-12.5h1.7v0.1l1.8-1.9h14.3v2.4l1.8-1.8
			c0.1-0.3,0.4-0.6,0.8-0.6c0.5,0,0.9,0.4,0.9,0.9v5.4c0,0.4-0.3,0.7-0.6,0.8l-5.3,5.4h2.4v4l-1.4,1.4c0.8,0.2,1.4,0.9,1.4,1.7v10.7
			c0,0.6-0.4,1.2-0.9,1.5l-2.7,2.8v19l-24.3,24.2h-55c-11.5,0-20.8-9.3-20.8-20.8v-48.9L-3.3,144.9z"/>
		<path fill="#EEEEEE" d="M73.3,185.3h-7.1c0,2-1.6,3.6-3.6,3.6H42.9c-2,0-3.6-1.6-3.6-3.6l-35.7,0v23.2h21.5l3.6-10.7h34l5.4,10.7
			h10.7v-19.6h-1.8C75,188.8,73.3,187.2,73.3,185.3z M20.6,197.7H9.8c-0.5,0-0.9-0.4-0.9-0.9c0-0.5,0.4-0.9,0.9-0.9h10.7
			c0.5,0,0.9,0.4,0.9,0.9C21.5,197.3,21.1,197.7,20.6,197.7z M20.6,194.2H9.8c-0.5,0-0.9-0.4-0.9-0.9c0-0.5,0.4-0.9,0.9-0.9h10.7
			c0.5,0,0.9,0.4,0.9,0.9C21.5,193.8,21.1,194.2,20.6,194.2z M20.6,190.6H9.8c-0.5,0-0.9-0.4-0.9-0.9c0-0.5,0.4-0.9,0.9-0.9h10.7
			c0.5,0,0.9,0.4,0.9,0.9C21.5,190.2,21.1,190.6,20.6,190.6z M80.5,172.7h-3.6c-1,0-1.8,0.8-1.8,1.8v10.7c0,1,0.8,1.8,1.8,1.8h3.6
			c1,0,1.8-0.8,1.8-1.8v-10.7C82.3,173.5,81.5,172.7,80.5,172.7z M28.6,181.6v-7.2c0-1-0.8-1.8-1.8-1.8h1.8c1,0,1.8-0.8,1.8-1.8v-25
			c0-1-0.8-1.8-1.8-1.8H-1.8c-1,0-1.8,0.8-1.8,1.8v25c0,1,0.8,1.8,1.8,1.8h3.6c-1,0-1.8,0.8-1.8,1.8v7.2c0,1,0.8,1.8,1.8,1.8h25.1
			C27.8,183.4,28.6,182.6,28.6,181.6z M8.9,169.1c-1,0-1.8-0.8-1.8-1.8c0-1,0.8-1.8,1.8-1.8c1,0,1.8,0.8,1.8,1.8
			C10.7,168.3,9.9,169.1,8.9,169.1z M10.7,156.6c0,2-1.6,3.6-3.6,3.6c-2,0-3.6-1.6-3.6-3.6c0-2,1.6-3.6,3.6-3.6
			c0.7,0,1.3,0.2,1.8,0.5l1.8-1.8c0-0.1-0.1-0.3-0.1-0.5c0-1,0.8-1.8,1.8-1.8s1.8,0.8,1.8,1.8c0,1-0.8,1.8-1.8,1.8
			c-0.2,0-0.3,0-0.5-0.1l-1.8,1.8C10.5,155.3,10.7,155.9,10.7,156.6z M14.3,179.8c-1,0-1.8-0.8-1.8-1.8c0-1,0.8-1.8,1.8-1.8
			c1,0,1.8,0.8,1.8,1.8C16.1,179,15.3,179.8,14.3,179.8z M16.1,169.1c-1,0-1.8-0.8-1.8-1.8c0-1,0.8-1.8,1.8-1.8c1,0,1.8,0.8,1.8,1.8
			C17.9,168.3,17.1,169.1,16.1,169.1z M21.5,179.8c-1,0-1.8-0.8-1.8-1.8c0-1,0.8-1.8,1.8-1.8c1,0,1.8,0.8,1.8,1.8
			C23.3,179,22.5,179.8,21.5,179.8z M23.3,169.1c-1,0-1.8-0.8-1.8-1.8c0-1,0.8-1.8,1.8-1.8c1,0,1.8,0.8,1.8,1.8
			C25.1,168.3,24.2,169.1,23.3,169.1z M25.1,153c-0.2,0-0.3,0-0.5-0.1l-1.8,1.8c0.3,0.5,0.5,1.1,0.5,1.8c0,2-1.6,3.6-3.6,3.6
			c-2,0-3.6-1.6-3.6-3.6c0-2,1.6-3.6,3.6-3.6c0.7,0,1.3,0.2,1.8,0.5l1.8-1.8c0-0.1-0.1-0.3-0.1-0.5c0-1,0.8-1.8,1.8-1.8
			c1,0,1.8,0.8,1.8,1.8C26.8,152.2,26,153,25.1,153z M35.8,163.7h3.6V153h-3.6v-1.8h-3.6v14.3h3.6V163.7z M51.9,161.9h-1.8v-3.6
			h-1.8v3.6h-1.8l-1.3,5.3h8L51.9,161.9z M50.1,176.3c0.7,0,1.2,0.4,1.5,0.9h1.9c-0.4-1.5-1.8-2.7-3.5-2.7c-1.7,0-3.1,1.1-3.5,2.7
			h1.9C48.9,176.6,49.4,176.3,50.1,176.3z M42.9,187h19.7c1,0,1.8-0.8,1.8-1.8v-14.3c0-1-0.8-1.8-1.8-1.8H42.9c-1,0-1.8,0.8-1.8,1.8
			v14.3C41.2,186.2,42,187,42.9,187z M59,172.7c1,0,1.8,0.8,1.8,1.8c0,1-0.8,1.8-1.8,1.8c-1,0-1.8-0.8-1.8-1.8
			C57.3,173.5,58.1,172.7,59,172.7z M50.1,172.7c3,0,5.4,2.4,5.4,5.4c0,3-2.4,5.4-5.4,5.4c-3,0-5.4-2.4-5.4-5.4
			C44.7,175.1,47.1,172.7,50.1,172.7z M50.1,179.8c-0.7,0-1.2-0.4-1.5-0.9h-1.9c0.4,1.5,1.8,2.7,3.5,2.7c1.7,0,3.1-1.1,3.5-2.7h-1.9
			C51.3,179.5,50.8,179.8,50.1,179.8z M39.3,174.4v-1.7h-7.5c-0.3,0.6-0.8,1-1.3,1.4c0,0.1,0,0.3,0,0.4H39.3z M68,172.7h-1.7v1.7
			h7.1c0-2,1.6-3.6,3.6-3.6h3.6c0.7,0,1.3,0.2,1.8,0.5v-4H68V172.7z M73.3,176.3h-7.1v3.6h7.1V176.3z M73.3,181.7h-7.1v1.7h7.1
			V181.7z M39.3,176.3h-8.8v3.6h8.8V176.3z M30,183.4h9.3v-1.7h-8.8C30.5,182.3,30.3,182.9,30,183.4z M85,154.8
			c-0.5,0-0.9,0.4-0.9,0.9v1.8h-1.8v-2.7H68v7.2h1.8v3.5h10.7v-3.5h1.8v-2.7h1.8v1.8c0,0.5,0.4,0.9,0.9,0.9c0.5,0,0.9-0.4,0.9-0.9
			v-1.8v-1.8v-1.8C85.9,155.2,85.5,154.8,85,154.8z M66.2,160.2v-3.6h-1.7l-1.8,1.8l1.8,1.8H66.2z"/>
	</g>
</g>
</svg>
